<?xml version="1.0" encoding="utf-8"?>
<!-- Generator: Adobe Illustrator 16.0.4, SVG Export Plug-In . SVG Version: 6.00 Build 0)  -->
<!DOCTYPE svg PUBLIC "-//W3C//DTD SVG 1.1//EN" "http://www.w3.org/Graphics/SVG/1.1/DTD/svg11.dtd">
<svg version="1.1" id="Your_Icon" xmlns="http://www.w3.org/2000/svg" xmlns:xlink="http://www.w3.org/1999/xlink" x="0px" y="0px"
	 width="105.165px" height="100px" viewBox="0 0 105.165 100" enable-background="new 0 0 105.165 100" xml:space="preserve">
<path fill="#353558" d="M60.272,99.709c5.216-11.48,10.431-22.96,15.646-34.438c0.487-1.073,0.975-2.147,1.463-3.22
	c0.095-0.21,0.254-0.006,0.381-0.006c0.39,0,0.78,0,1.17,0c3.164,0,6.328,0,9.491,0c3.599,0,7.196,0,10.795,0
	c1.098,0,2.101-0.077,3.113-0.613c2.071-1.095,3.176-3.398,2.739-5.699c-0.432-2.27-2.295-4.007-4.589-4.278
	c-2.752-0.325-5.472-0.037-8.206-0.037c-5.588,0-11.176,0-16.763,0c-1.582,0-3.162,0-4.742,0c-0.132,0-0.234,0.002-0.299,0.144
	c-0.159,0.352-0.319,0.703-0.479,1.054c-1.496,3.294-2.993,6.587-4.489,9.88c-1.058,2.33-2.116,4.661-3.176,6.99
	c-0.132,0.29-0.072-0.312-0.108-0.467c-0.119-0.514-0.236-1.025-0.355-1.539c-0.447-1.935-0.895-3.871-1.341-5.806
	c-1.466-6.35-2.932-12.698-4.398-19.046c-2.484-10.759-4.969-21.517-7.454-32.275c-0.737-3.193-1.397-6.404-2.213-9.58
	c-0.017-0.068-0.041-0.131-0.071-0.193c-0.145-0.297-0.333-0.452-0.653-0.537c-0.307-0.081-0.542-0.045-0.81,0.126
	c-0.127,0.082-0.225,0.179-0.307,0.306c-0.038,0.059-0.069,0.12-0.094,0.185c-0.832,2.159-1.46,4.38-2.19,6.57
	c-4.31,12.937-8.62,25.873-12.93,38.808c-0.53,1.591-1.061,3.183-1.591,4.774c-0.096,0.287-0.099,0.605-0.518,0.605
	c-1.848,0-3.696,0-5.543,0c-4.265,0-8.53,0-12.794,0c-1.647,0-3.267-0.257-4.934,0.156c-2.259,0.562-3.893,2.541-4.018,4.865
	c-0.127,2.338,1.281,4.483,3.483,5.287c1.57,0.572,3.085,0.319,4.645,0.319c5.491,0,10.982,0,16.474,0c2.614,0,5.228,0,7.842,0
	c0.746,0,1.492,0,2.238,0c0.202,0,0.483,0.312,0.601-0.042c1.201-3.605,2.403-7.212,3.605-10.818
	c1.513-4.542,3.026-9.084,4.54-13.625c0.118-0.354,0.236-0.708,0.354-1.062c0.049-0.146,0.047,0.147,0.064,0.223
	c0.095,0.409,0.189,0.818,0.284,1.227c0.996,4.316,1.993,8.632,2.989,12.948c2.229,9.653,4.459,19.307,6.687,28.959
	c0.997,4.313,1.993,8.627,2.988,12.94c0.522,2.257,0.935,4.535,1.565,6.771c0.085,0.301,0.235,0.485,0.515,0.629
	C59.548,100.533,59.963,100.389,60.272,99.709z"/>
</svg>
