<?xml version="1.0" encoding="utf-8"?>
<!-- Generator: Adobe Illustrator 16.0.4, SVG Export Plug-In . SVG Version: 6.00 Build 0)  -->
<!DOCTYPE svg PUBLIC "-//W3C//DTD SVG 1.1//EN" "http://www.w3.org/Graphics/SVG/1.1/DTD/svg11.dtd">
<svg version="1.1" id="Layer_1" xmlns="http://www.w3.org/2000/svg" xmlns:xlink="http://www.w3.org/1999/xlink" x="0px" y="0px"
	 width="100px" height="100px" viewBox="0 0 100 100" enable-background="new 0 0 100 100" xml:space="preserve">
<path fill="#353558" d="M54.625,73.477h-9.24V54.621h-18.86v-9.24h18.86V26.523h9.24V45.38h18.85v9.239h-18.85V73.477z M50,99.846
	C22.469,99.846,0.154,77.53,0.154,50C0.154,22.469,22.469,0.154,50,0.154c27.527,0,49.846,22.315,49.846,49.846
	C99.846,77.53,77.527,99.846,50,99.846z M49.999,6.353C25.893,6.353,6.352,25.894,6.352,50c0,24.106,19.541,43.647,43.647,43.647
	c24.107,0,43.649-19.541,43.649-43.647C93.648,25.893,74.104,6.353,49.999,6.353z"/>
</svg>
