<?xml version="1.0" encoding="utf-8"?>
<!-- Generator: Adobe Illustrator 16.0.4, SVG Export Plug-In . SVG Version: 6.00 Build 0)  -->
<!DOCTYPE svg PUBLIC "-//W3C//DTD SVG 1.1//EN" "http://www.w3.org/Graphics/SVG/1.1/DTD/svg11.dtd">
<svg version="1.1" xmlns="http://www.w3.org/2000/svg" xmlns:xlink="http://www.w3.org/1999/xlink" x="0px" y="0px" width="100px"
	 height="100px" viewBox="0 0 100 100" enable-background="new 0 0 100 100" xml:space="preserve">
<g id="Layer_4">
</g>
<g id="Default" display="none">
	<path display="inline" fill="#353558" d="M50,88.729c-21.39,0-38.73-17.339-38.73-38.729c0-21.389,17.34-38.729,38.73-38.729
		c21.389,0,38.729,17.34,38.729,38.729C88.729,71.39,71.39,88.729,50,88.729z M60.415,48.77c1.985-1.64,3.309-4.096,3.309-7.603
		c0-6.707-5.132-8.982-8.646-9.382c0-0.025,0.006-0.049,0.006-0.074v-4.943c0-1.091-0.886-1.977-1.977-1.977
		c-1.092,0-1.978,0.886-1.978,1.977v4.943h-3.954v-4.943c0-1.091-0.886-1.977-1.977-1.977c-1.092,0-1.978,0.886-1.978,1.977v4.943
		h-2.966h-3.954c-1.091,0-1.977,0.886-1.977,1.978c0,1.091,0.886,1.977,1.977,1.977h1.977v13.84v14.829h-1.977
		c-1.091,0-1.977,0.886-1.977,1.977s0.886,1.978,1.977,1.978h3.954h2.966v4.942c0,1.092,0.886,1.978,1.978,1.978
		c1.091,0,1.977-0.886,1.977-1.978v-4.942h3.954v4.942c0,1.092,0.886,1.978,1.978,1.978c1.091,0,1.977-0.886,1.977-1.978v-4.942
		c0-0.046-0.009-0.089-0.014-0.134c5.296-0.646,10.605-3.688,10.605-10.694C65.676,52.748,63.186,50.124,60.415,48.77z
		 M53.95,35.666c0.972,0,5.818,0.266,5.818,5.501c0,5.535-5.018,6.362-8.011,6.362h-9.525V35.666H53.95z M52.85,64.335H42.233
		V51.482h9.527h3.431c0.669,0.011,6.532,0.258,6.532,5.979C61.722,63.84,54.932,64.335,52.85,64.335z"/>
</g>
<g id="Layer_3">
	<g>
		<path fill="#363558" d="M93.302,25.001L75,6.699L50,0L25,6.699L6.7,25.001L0.001,50L6.7,74.999L25,93.301L50,100l25-6.699
			l18.302-18.302L99.999,50L93.302,25.001z M50,93.647C25.895,93.647,6.354,74.105,6.354,50C6.354,25.894,25.895,6.353,50,6.353
			c24.106,0,43.648,19.542,43.648,43.647C93.648,74.105,74.106,93.647,50,93.647z"/>
		<path fill="#363558" d="M50,10.771c-21.39,0-38.729,17.34-38.729,38.729c0,21.389,17.34,38.729,38.729,38.729
			S88.729,70.889,88.729,49.5C88.729,28.111,71.39,10.771,50,10.771z M55.141,69.872H55.01v4.887c0,0.154-0.125,0.279-0.279,0.279
			h-4.338c-0.154,0-0.279-0.125-0.279-0.279v-4.887H48.27v4.887c0,0.154-0.125,0.279-0.279,0.279h-4.338
			c-0.154,0-0.279-0.125-0.279-0.279v-4.887h-9.828c-0.154,0-0.279-0.125-0.279-0.279v-4.338c0-0.154,0.125-0.279,0.279-0.279h3.495
			V35.108h-3.495c-0.154,0-0.279-0.125-0.279-0.279v-4.338c0-0.154,0.125-0.279,0.279-0.279h9.828v-4.971
			c0-0.154,0.125-0.279,0.279-0.279h4.338c0.154,0,0.279,0.125,0.279,0.279v4.971h1.843v-4.95c0-0.154,0.125-0.279,0.279-0.279
			h4.338c0.154,0,0.279,0.125,0.279,0.279v4.952c6.67,0.108,10.963,4.104,10.963,10.243c0,4.767-2.954,7.834-6.024,8.94
			c3.827,1.172,6.786,5.263,6.786,9.644C66.734,65.621,62.184,69.872,55.141,69.872z"/>
		<path fill="#363558" d="M60.651,41.161c0-3.518-2.345-6.332-6.742-6.332H42.185v12.604h11.725
			C58.307,47.434,60.651,44.737,60.651,41.161z"/>
		<path fill="#363558" d="M54.203,51.771H42.185v13.483h12.019c4.514,0,7.21-2.579,7.21-6.741
			C61.413,54.938,58.951,51.771,54.203,51.771z"/>
	</g>
</g>
<g id="Layer_2" display="none">
	<circle display="inline" fill="#353558" cx="50" cy="50" r="38.729"/>
	<path display="inline" fill="#353558" d="M61.691,56.777c0-4.483-2.588-6.885-5.912-7.716c2.588-0.74,4.479-3.232,4.479-6.284
		c0-4.232-2.101-7.194-6.71-7.998v-5.308h-2.757v5.081H47.32v-5.081h-2.757v5.081H42.98h-4.672v2.211
		c1.713,0,3.104,1.39,3.104,3.104v20.464c0,1.712-1.39,3.102-3.102,3.102v2.214h4.671h1.582v4.882h2.757v-4.882h3.472v4.882h2.757
		V65.58C58.803,65.101,61.691,61.731,61.691,56.777z"/>
	<path display="inline" fill="#353558" d="M44.553,37.418h6.237c4.296,0,6.283,2.034,6.283,5.36c0,3.233-2.17,5.359-6.283,5.359
		h-6.237V37.418z"/>
	<path display="inline" fill="#353558" d="M52.175,62.782h-7.621V50.816h7.621c3.928,0,6.333,2.172,6.333,5.961
		C58.508,60.52,56.382,62.782,52.175,62.782z"/>
</g>
</svg>
