<?xml version="1.0" encoding="UTF-8" standalone="no"?>
<svg width="30px" height="31px" viewBox="0 0 30 31" version="1.1" xmlns="http://www.w3.org/2000/svg" xmlns:xlink="http://www.w3.org/1999/xlink" xmlns:sketch="http://www.bohemiancoding.com/sketch/ns">
    <!-- Generator: Sketch 3.0.3 (7892) - http://www.bohemiancoding.com/sketch -->
    <title>Slice 1</title>
    <desc>Created with Sketch.</desc>
    <defs></defs>
    <g id="Page-1" stroke="none" stroke-width="1" fill="none" fill-rule="evenodd" sketch:type="MSPage">
        <path d="M27.5997,14.9946 C27.5945,8.04786 21.9488,2.40282 15.0045,2.40072 C8.054,2.39856 2.4022,8.04726 2.4002,14.99796 C2.3982,21.94368 8.0545,27.60012 15.0015,27.59934 C21.9478,27.59862 27.6049,21.93852 27.5997,14.9946 M14.4,0 L15.6,0 C15.6366,0.00612 15.673,0.01614 15.7098,0.01776 C16.8249,0.06756 17.9233,0.23142 18.9959,0.53988 C22.9207,1.66848 25.9245,3.9975 27.9957,7.51332 C29.0959,9.381 29.7258,11.40912 29.9297,13.5681 C29.9559,13.84512 29.9767,14.12274 30,14.4 L30,15.60006 C29.9934,15.6531 29.9862,15.70608 29.9802,15.75924 C29.9085,16.39182 29.8719,17.03064 29.7597,17.65584 C29.2429,20.53344 27.983,23.04876 25.9983,25.19448 C24.3485,26.97828 22.3751,28.2825 20.0903,29.11146 C18.8946,29.54538 17.6624,29.81928 16.3949,29.9322 C16.1301,29.95584 15.865,29.9775 15.6,30.00006 L14.4,30.00006 C14.3676,29.99406 14.3353,29.98536 14.3026,29.98266 C13.9666,29.95506 13.6296,29.937 13.2946,29.90004 C11.7345,29.7279 10.2361,29.32134 8.8111,28.66488 C5.7821,27.2694 3.4528,25.1112 1.8377,22.19304 C0.8447,20.39892 0.2624,18.47382 0.07,16.43166 C0.0447,16.16298 0.0233,15.89388 0,15.62502 L0,14.37504 C0.0067,14.32614 0.0171,14.27754 0.0196,14.22846 C0.0781,13.08006 0.2598,11.9514 0.5829,10.84794 C1.4412,7.91652 3.0355,5.45844 5.3767,3.49806 C7.7425,1.51722 10.4707,0.37932 13.5427,0.07164 C13.828,0.04308 14.1142,0.02364 14.4,0" id="Fill-219" fill="#FAD575" sketch:type="MSShapeGroup"></path>
        <path d="M13.7354,13.98902 C13.765,13.99268 13.7889,13.9985 13.8127,13.99814 C14.3663,13.99028 14.9207,13.99814 15.4732,13.9688 C16.0573,13.93778 16.6323,13.83626 17.1666,13.57934 C17.7378,13.30478 18.0987,12.8747 18.1312,12.21818 C18.164,11.55206 17.9065,11.0366 17.3224,10.69664 C16.9415,10.47494 16.5223,10.37078 16.0924,10.30448 C15.3266,10.18646 14.5556,10.22144 13.7855,10.2368 C13.7699,10.2371 13.7543,10.24478 13.7354,10.24988 L13.7354,13.98902 Z M13.7337,15.8765 L13.7337,20.0279 C13.7583,20.03282 13.7782,20.03996 13.7981,20.04032 C14.7354,20.0567 15.673,20.06852 16.6028,19.92176 C17.1521,19.83512 17.6839,19.6931 18.1725,19.41026 C19.3217,18.7451 19.2307,17.17436 18.2848,16.55138 C17.9311,16.31834 17.5454,16.1717 17.1376,16.07678 C16.3363,15.8903 15.5209,15.87002 14.7034,15.87608 C14.3838,15.87848 14.0641,15.8765 13.7337,15.8765 L13.7337,15.8765 Z M17.0735,8.0753 C17.3972,8.11862 17.7072,8.15396 18.0151,8.20256 C18.5927,8.29358 19.1575,8.43374 19.6958,8.66864 C21.1544,9.3053 21.7221,10.4204 21.6666,11.9108 C21.6363,12.72536 21.3554,13.43342 20.7272,13.9751 C20.5549,14.12366 20.3551,14.24036 20.1671,14.37068 C20.1343,14.39348 20.0979,14.41118 20.0537,14.43668 C20.2837,14.5115 20.4998,14.57336 20.7099,14.65154 C21.979,15.12374 22.6559,16.04204 22.7495,17.38886 C22.7931,18.01652 22.7401,18.63806 22.5737,19.24658 C22.2745,20.34128 21.5944,21.11006 20.5681,21.58148 C19.8563,21.90836 19.1015,22.07426 18.3302,22.17188 C17.9464,22.22048 17.5594,22.24592 17.1739,22.28222 C17.1455,22.28492 17.1175,22.29134 17.0748,22.29836 L17.0748,25.40258 L15.1883,25.40258 L15.1883,22.33232 L13.6865,22.33232 L13.6865,25.40186 L11.7991,25.40186 L11.7991,22.27334 L9.8979,22.27334 L8,22.27334 C8.0471,21.98552 8.0907,21.71498 8.1356,21.44474 C8.208,21.00926 8.2841,20.57438 8.3518,20.13818 C8.3657,20.04866 8.3965,20.02232 8.4863,20.02406 C8.8321,20.03096 9.1779,20.02976 9.5237,20.03036 C9.6112,20.03048 9.6988,20.02904 9.7859,20.0228 C10.2068,19.99274 10.4534,19.72718 10.4536,19.3034 C10.454,17.816 10.4539,16.32866 10.4537,14.84126 C10.4536,13.604 10.4533,12.3668 10.453,11.1296 C10.4528,10.51334 10.0883,10.12568 9.471,10.10654 C9.0382,10.0931 8.6048,10.1015 8.1717,10.10024 C8.1221,10.10006 8.0726,10.10018 8.0116,10.10018 L8.0116,8.09108 L9.899,8.09108 L11.7959,8.09108 L11.7959,5.00438 L13.6795,5.00438 L13.6795,8.00972 L15.1837,8.00972 L15.1837,5 L17.0735,5 L17.0735,8.0753 Z" id="Fill-220" fill="#FAD575" sketch:type="MSShapeGroup"></path>
    </g>
</svg>