<?xml version="1.0" encoding="utf-8"?>
<!-- Generator: Adobe Illustrator 16.0.4, SVG Export Plug-In . SVG Version: 6.00 Build 0)  -->
<!DOCTYPE svg PUBLIC "-//W3C//DTD SVG 1.1//EN" "http://www.w3.org/Graphics/SVG/1.1/DTD/svg11.dtd">
<svg version="1.1" xmlns="http://www.w3.org/2000/svg" xmlns:xlink="http://www.w3.org/1999/xlink" x="0px" y="0px" width="100px"
	 height="100px" viewBox="0 0 100 100" enable-background="new 0 0 100 100" xml:space="preserve">
<g id="Default">
</g>
<g id="Capa_1">
	<path fill="#353558" d="M33.727,32.417v22.314l-2.109,6.425c-1.705,0.023-3.408,0.653-4.75,1.912
		c-2.843,2.67-2.979,7.143-0.305,9.984c2.671,2.838,7.14,2.974,9.983,0.306c0.888-0.84,1.514-1.854,1.87-2.938H62.39
		c0.311,0.949,0.823,1.854,1.557,2.633c2.671,2.838,7.14,2.974,9.981,0.306c2.841-2.677,2.978-7.145,0.303-9.987
		c-2.671-2.837-7.137-2.976-9.979-0.305c-0.896,0.84-1.517,1.856-1.874,2.938h-23.97c-0.311-0.952-0.827-1.851-1.558-2.632
		c-0.316-0.336-0.659-0.634-1.022-0.892l1.079-3.416c11.708,0,23.417,0,35.125,0c0.975,0,1.767-0.788,1.767-1.767
		c1.179-6.655,2.357-13.311,3.536-19.967c0-0.973-0.791-1.764-1.767-1.764c-12.944-1.712-25.889-3.424-38.833-5.136l-5.114-5.114
		c-0.386-0.386-0.774-0.547-1.32-0.547c-1.311,0-2.622,0-3.933,0c-1.067,0-2.882-0.375-3.512,1.049
		c-0.675,1.528,0.562,2.474,2.043,2.474c1.311,0,2.622,0,3.933,0c0.546,0,0.934,0.161,1.32,0.547L33.727,32.417z M50,99.846
		C22.469,99.846,0.154,77.53,0.154,50C0.154,22.469,22.469,0.154,50,0.154c27.527,0,49.846,22.315,49.846,49.846
		C99.846,77.53,77.527,99.846,50,99.846z"/>
</g>
</svg>
