<?xml version="1.0" encoding="UTF-8" standalone="no"?>
<svg width="12px" height="12px" viewBox="0 0 12 12" version="1.1" xmlns="http://www.w3.org/2000/svg" xmlns:xlink="http://www.w3.org/1999/xlink" xmlns:sketch="http://www.bohemiancoding.com/sketch/ns">
    <!-- Generator: Sketch 3.1 (8751) - http://www.bohemiancoding.com/sketch -->
    <title>Fill 988</title>
    <desc>Created with Sketch.</desc>
    <defs></defs>
    <g id="Page-1" stroke="none" stroke-width="1" fill="none" fill-rule="evenodd" sketch:type="MSPage">
        <g id="Fill-986-+-Fill-988" sketch:type="MSLayerGroup" fill-opacity="0.4" fill="#353558">
            <path d="M6,0 C2.6863,0 0,2.6863 0,6 C0,9.3137 2.6863,12 6,12 C9.3137,12 12,9.3137 12,6 C12,2.6863 9.3137,0 6,0 M6,0.912 C6.6873,0.912 7.3535,1.0464 7.9802,1.3115 C8.586,1.5677 9.1302,1.9347 9.5977,2.4022 C10.0653,2.8698 10.4323,3.414 10.6885,4.0198 C10.9536,4.6465 11.088,5.3127 11.088,6 C11.088,6.6873 10.9536,7.3535 10.6885,7.9802 C10.4323,8.586 10.0653,9.1302 9.5977,9.5977 C9.1302,10.0653 8.586,10.4323 7.9802,10.6885 C7.3535,10.9536 6.6873,11.088 6,11.088 C5.3127,11.088 4.6465,10.9536 4.0198,10.6885 C3.414,10.4323 2.8698,10.0653 2.4022,9.5977 C1.9347,9.1302 1.5677,8.586 1.3115,7.9802 C1.0464,7.3535 0.912,6.6873 0.912,6 C0.912,5.3127 1.0464,4.6465 1.3115,4.0198 C1.5677,3.414 1.9347,2.8698 2.4022,2.4022 C2.8698,1.9347 3.414,1.5677 4.0198,1.3115 C4.6465,1.0464 5.3127,0.912 6,0.912" id="Fill-988" sketch:type="MSShapeGroup"></path>
        </g>
    </g>
</svg>