<?xml version="1.0" encoding="UTF-8" standalone="no"?>
<svg width="25px" height="25px" viewBox="0 0 25 25" version="1.1" xmlns="http://www.w3.org/2000/svg" xmlns:xlink="http://www.w3.org/1999/xlink" xmlns:sketch="http://www.bohemiancoding.com/sketch/ns">
    <!-- Generator: Sketch 3.1 (8751) - http://www.bohemiancoding.com/sketch -->
    <title>Slice 2</title>
    <desc>Created with Sketch.</desc>
    <defs></defs>
    <g id="Page-1" stroke="none" stroke-width="1" fill="none" fill-rule="evenodd" sketch:type="MSPage">
        <path d="M12.5,1.75 C6.5834,1.75 1.75,6.5833 1.75,12.5 C1.75,18.4167 6.5834,23.2499 12.5,23.2499 C18.4166,23.2499 23.25,18.4167 23.25,12.5 C23.25,6.5833 18.4166,1.75 12.5,1.75 M25,12.5 C25,19.3889 19.3888,25.0001 12.5,25.0001 C5.6112,25.0001 0,19.3889 0,12.5 C0,5.6111 5.6112,0 12.5,0 C19.3888,0 25,5.5833 25,12.5 M16.6667,9.1666 L13.3333,12.5 L16.6667,15.8334 C16.8888,16.0556 16.8888,16.4443 16.6667,16.6667 C16.4445,16.8889 16.0555,16.8889 15.8333,16.6667 L12.5,13.3334 L9.1667,16.6667 C8.9445,16.8889 8.5555,16.8889 8.3333,16.6667 C8.1112,16.4443 8.1112,16.0556 8.3333,15.8334 L11.6667,12.5 L8.3333,9.1666 C8.1112,8.9445 8.1112,8.5556 8.3333,8.3333 C8.5555,8.1111 8.9445,8.1111 9.1667,8.3333 L12.5,11.6666 L15.8333,8.3333 C16.0555,8.1111 16.4445,8.1111 16.6667,8.3333 C16.8888,8.5556 16.8888,8.9445 16.6667,9.1666" id="Fill-156" fill="#ED1847" sketch:type="MSShapeGroup"></path>
    </g>
</svg>