<?xml version="1.0" encoding="UTF-8" standalone="no"?>
<svg width="19px" height="20px" viewBox="0 0 19 20" version="1.1" xmlns="http://www.w3.org/2000/svg" xmlns:xlink="http://www.w3.org/1999/xlink" xmlns:sketch="http://www.bohemiancoding.com/sketch/ns">
    <!-- Generator: Sketch 3.0.3 (7892) - http://www.bohemiancoding.com/sketch -->
    <title>Slice 1</title>
    <desc>Created with Sketch.</desc>
    <defs></defs>
    <g id="Page-1" stroke="none" stroke-width="1" fill="none" fill-rule="evenodd" sketch:type="MSPage">
        <path d="M16.25,0 L16.25,1.25 L13.75,1.25 L13.75,0 L5,0 L5,1.25 L2.5,1.25 L2.5,0 L0,0 L0,20 L18.75,20 L18.75,0 L16.25,0 Z M1.25,5 L17.5,5 L17.5,18.75 L1.25,18.75 L1.25,5 Z M13.75,10 L16.25,10 L16.25,7.5 L13.75,7.5 L13.75,10 Z M10,10 L12.5,10 L12.5,7.5 L10,7.5 L10,10 Z M6.25,10 L8.75,10 L8.75,7.5 L6.25,7.5 L6.25,10 Z M13.75,13.75 L16.25,13.75 L16.25,11.2499 L13.75,11.2499 L13.75,13.75 Z M10,13.75 L12.5,13.75 L12.5,11.2499 L10,11.2499 L10,13.75 Z M6.25,13.75 L8.75,13.75 L8.75,11.2499 L6.25,11.2499 L6.25,13.75 Z M2.5,13.75 L5,13.75 L5,11.2499 L2.5,11.2499 L2.5,13.75 Z M10,17.5 L12.5,17.5 L12.5,15 L10,15 L10,17.5 Z M6.25,17.5 L8.75,17.5 L8.75,15 L6.25,15 L6.25,17.5 Z M2.5,17.5 L5,17.5 L5,15 L2.5,15 L2.5,17.5 Z" id="Fill-152" fill="#485878" sketch:type="MSShapeGroup"></path>
    </g>
</svg>