<?xml version="1.0" encoding="utf-8"?>
<!-- Generator: Adobe Illustrator 16.0.4, SVG Export Plug-In . SVG Version: 6.00 Build 0)  -->
<!DOCTYPE svg PUBLIC "-//W3C//DTD SVG 1.1//EN" "http://www.w3.org/Graphics/SVG/1.1/DTD/svg11.dtd">
<svg version="1.1" id="Layer_1" xmlns="http://www.w3.org/2000/svg" xmlns:xlink="http://www.w3.org/1999/xlink" x="0px" y="0px"
	 width="100px" height="100px" viewBox="0 0 100 100" enable-background="new 0 0 100 100" xml:space="preserve">
<g id="Captions">
</g>
<path fill="#353558" d="M46.29,77.045c0.105,0.107,0.213,0.204,0.317,0.292c0.057,0.048,0.119,0.094,0.178,0.139
	c0.03,0.024,0.057,0.044,0.087,0.066c0.875,0.649,1.955,1.036,3.127,1.039c1.171-0.003,2.249-0.39,3.122-1.036
	c0.041-0.028,0.08-0.058,0.12-0.089c0.046-0.038,0.097-0.074,0.143-0.116c0.112-0.091,0.224-0.188,0.334-0.299l23.363-23.364
	c2.053-2.052,2.053-5.383,0-7.438c-2.055-2.054-5.384-2.054-7.437,0L55.259,60.624L55.257,5.26C55.257,2.354,52.903,0,50,0
	s-5.257,2.354-5.257,5.26v55.364L30.358,46.239c-2.056-2.054-5.385-2.054-7.439,0c-2.056,2.054-2.055,5.383,0,7.438l23.359,23.36
	C46.281,77.037,46.284,77.044,46.29,77.045z"/>
<path fill="#353558" d="M89.185,100.002H10.815c-2.99,0-5.414-2.425-5.414-5.414c0-2.99,2.424-5.414,5.414-5.414h78.369
	c2.989,0,5.414,2.424,5.414,5.414C94.599,97.577,92.174,100.002,89.185,100.002z"/>
</svg>
