<?xml version="1.0" encoding="utf-8"?>
<!-- Generator: Adobe Illustrator 16.0.4, SVG Export Plug-In . SVG Version: 6.00 Build 0)  -->
<!DOCTYPE svg PUBLIC "-//W3C//DTD SVG 1.1//EN" "http://www.w3.org/Graphics/SVG/1.1/DTD/svg11.dtd">
<svg version="1.1" id="Layer_1" xmlns="http://www.w3.org/2000/svg" xmlns:xlink="http://www.w3.org/1999/xlink" x="0px" y="0px"
	 width="100px" height="100px" viewBox="-4.737 0 100 100" enable-background="new -4.737 0 100 100" xml:space="preserve">
<rect x="16.842" y="56.842" fill="#353558" width="37.896" height="6.316"/>
<rect x="16.842" y="37.895" fill="#353558" width="37.896" height="6.315"/>
<rect x="16.842" y="18.948" fill="#353558" width="37.896" height="6.315"/>
<path fill="#353558" d="M86.316,14.738H71.58V4.21c0-2.632-1.578-4.21-4.211-4.21H4.21C1.578,0,0,1.578,0,4.21v77.895
	c0,2.634,1.578,4.213,4.21,4.213h14.737v9.474c0,2.633,1.579,4.211,4.211,4.211h63.158c2.633,0,4.211-1.578,4.211-4.211V18.948
	C90.527,16.315,88.949,14.738,86.316,14.738z M6.316,77.896V8.421c0-1.316,0.789-2.106,2.104-2.106h54.737
	c1.316,0,2.105,0.79,2.105,2.106v69.475c0,1.315-0.789,2.104-2.105,2.104H8.421C7.105,80,6.316,79.211,6.316,77.896z M84.21,91.579
	c0,1.316-0.789,2.104-2.104,2.104H28.421c-1.315,0-2.104-0.787-2.104-2.104v-5.264h41.053c2.633,0,4.211-1.578,4.211-4.211V22.106
	h10.526c1.314,0,2.104,0.788,2.104,2.104V91.579z"/>
</svg>
