<?xml version="1.0" encoding="UTF-8" standalone="no"?>
<svg width="15px" height="15px" viewBox="0 0 15 15" version="1.1" xmlns="http://www.w3.org/2000/svg" xmlns:xlink="http://www.w3.org/1999/xlink" xmlns:sketch="http://www.bohemiancoding.com/sketch/ns">
    <!-- Generator: Sketch 3.1 (8751) - http://www.bohemiancoding.com/sketch -->
    <title>Slice 2</title>
    <desc>Created with Sketch.</desc>
    <defs>
        <path id="path-1" d="M0,0 L15,0 L15,15 L0,15 L0,0"></path>
    </defs>
    <g id="Page-1" stroke="none" stroke-width="1" fill="none" fill-rule="evenodd" sketch:type="MSPage">
        <g id="Group-380" sketch:type="MSLayerGroup">
            <mask id="mask-2" sketch:name="Clip 377" fill="white">
                <use xlink:href="#path-1"></use>
            </mask>
            <g id="Clip-377"></g>
            <path d="M7.5,13.2724 C4.344,13.2724 1.785,10.6878 1.788,7.4957 C1.785,4.3113 4.344,1.7271 7.5,1.728 C10.657,1.7271 13.216,4.3113 13.22,7.4967 C13.216,10.6877 10.657,13.2724 7.5,13.2724 M7.5,-1.53002102e-16 C3.398,-0.0028 0.073,3.3564 0.069,7.4967 C0.073,11.6432 3.398,15.0015 7.5,15 C11.603,15.0016 14.928,11.6432 14.931,7.4968 C14.928,3.3564 11.603,-0.0028 7.5,-1.53002102e-16" id="Fill-376" fill="#353558" sketch:type="MSShapeGroup" mask="url(#mask-2)"></path>
            <path d="M6.874,9.6524 L8.235,9.6463 L8.235,8.5939 C8.232,8.3089 8.365,8.0383 8.721,7.8048 C9.078,7.5703 10.074,7.0961 10.075,5.8457 C10.074,4.6005 9.028,3.7432 8.149,3.558 C7.271,3.3793 6.318,3.4986 5.644,4.2422 C5.038,4.9015 4.91,5.4259 4.908,6.5826 L6.269,6.5826 L6.269,6.3127 C6.267,5.6973 6.337,5.047 7.216,4.8667 C7.699,4.7721 8.15,4.923 8.418,5.1822 C8.722,5.4833 8.725,6.1566 8.235,6.4905 L7.471,7.0102 C7.027,7.2981 6.875,7.616 6.874,8.0815 L6.874,9.6524 L6.874,9.6524 Z" id="Fill-378" fill="#353558" sketch:type="MSShapeGroup" mask="url(#mask-2)"></path>
            <path d="M6.867,10.1854 L8.241,10.1854 L8.241,11.579 L6.867,11.579 L6.867,10.1854 Z" id="Fill-379" fill="#353558" sketch:type="MSShapeGroup" mask="url(#mask-2)"></path>
        </g>
    </g>
</svg>