<?xml version="1.0" encoding="utf-8"?>
<!-- Generator: Adobe Illustrator 16.0.4, SVG Export Plug-In . SVG Version: 6.00 Build 0)  -->
<!DOCTYPE svg PUBLIC "-//W3C//DTD SVG 1.1//EN" "http://www.w3.org/Graphics/SVG/1.1/DTD/svg11.dtd">
<svg version="1.1" id="Layer_2" xmlns="http://www.w3.org/2000/svg" xmlns:xlink="http://www.w3.org/1999/xlink" x="0px" y="0px"
	 width="500px" height="500px" viewBox="0 0 500 500" enable-background="new 0 0 500 500" xml:space="preserve">
<path fill="#93C4D2" d="M249.98,499.807c-137.986,0-249.826-111.845-249.826-249.824c0-137.986,111.84-249.829,249.826-249.829
	c137.967,0,249.826,111.842,249.826,249.829C499.807,387.962,387.947,499.807,249.98,499.807z M249.976,31.222
	c-120.821,0-218.761,97.939-218.761,218.755c0,120.819,97.939,218.758,218.761,218.758c120.826,0,218.77-97.938,218.77-218.758
	C468.745,129.157,370.792,31.222,249.976,31.222z M252.363,330.83c7.381-18.487,69.173-111.681,26.48-137.332
	c-23.842-14.322-57.025-5.09-82.408,11.803l-1.72,16.086c14.985-5.094,30.34-5.094,34.947,7.03
	c11.21,29.498-27.165,81.133-37.661,108.174c-28.461,73.359,39.862,81.839,88.604,51.603l1.862-17.403
	C255.953,378,237.032,369.156,252.363,330.83z M246.236,128.824c0,18.904,15.327,34.232,34.231,34.232s34.234-15.328,34.234-34.232
	c0-18.908-15.33-34.231-34.234-34.231S246.236,109.917,246.236,128.824z"/>
</svg>
