<?xml version="1.0" encoding="UTF-8" standalone="no"?>
<svg width="24px" height="27px" viewBox="0 0 24 27" version="1.1" xmlns="http://www.w3.org/2000/svg" xmlns:xlink="http://www.w3.org/1999/xlink" xmlns:sketch="http://www.bohemiancoding.com/sketch/ns">
    <!-- Generator: Sketch 3.1 (8751) - http://www.bohemiancoding.com/sketch -->
    <title>Slice 2</title>
    <desc>Created with Sketch.</desc>
    <defs></defs>
    <g id="Page-1" stroke="none" stroke-width="1" fill="none" fill-rule="evenodd" sketch:type="MSPage">
        <path d="M3,17 L12.555,17 C12.726,17.386 12.934,17.742 13.185,18.082 L3,18.082 L3,17 Z" id="Fill-156" fill="#DE0101" sketch:type="MSShapeGroup"></path>
        <path d="M3,14 L12.109,14 C12.061,14.361 12.047,14.719 12.068,15.083 L3,15.083 L3,14 Z" id="Fill-157" fill="#DE0101" sketch:type="MSShapeGroup"></path>
        <path d="M3,11 L13.538,11 C13.238,11.333 12.985,11.689 12.769,12.083 L3,12.083 L3,11 Z" id="Fill-158" fill="#DE0101" sketch:type="MSShapeGroup"></path>
        <path d="M17.4906667,9.59143481 L17.4906667,7.01043481 L17.4906667,6.54643481 C17.4906667,6.50943481 17.4926667,6.47543481 17.4456667,6.47543481 L17.3766667,6.47543481 L17.1046667,6.47543481 L16.0136667,6.47543481 L13.8316667,6.47543481 L12.7406667,6.47543481 L12.6046667,6.47543481 L12.5356667,6.47543481 L12.5016667,6.47543481 C12.4726667,6.47543481 12.5006667,6.44543481 12.5006667,6.43143481 L12.5006667,6.38143481 L12.5006667,6.28043481 L12.5006667,4.67943481 L12.5006667,3.07843481 L12.5006667,2.27743481 L12.5006667,1.87743481 C12.5006667,1.79043481 12.4216667,1.83443481 12.3706667,1.83443481 L7.70466667,1.83443481 L1.91266667,1.83443481 C1.88366667,1.83443481 1.82966667,1.79643481 1.82966667,1.85043481 L1.82966667,2.03543481 L1.82966667,2.40543481 L1.82966667,3.14543481 L1.82966667,4.62543481 L1.82966667,7.58443481 L1.82966667,13.5024348 L1.82966667,19.6024348 L1.82966667,22.6524348 L1.82966667,23.4144348 L1.82966667,23.6064348 C1.82966667,23.6634348 2.01866667,23.6404348 2.04866667,23.6404348 L2.39066667,23.6404348 L3.76066667,23.6404348 L9.23666667,23.6404348 L13.4756667,23.6404348 L15.5956667,23.6404348 L16.6556667,23.6404348 L17.1856667,23.6404348 L17.4506667,23.6404348 C17.4816667,23.6404348 17.4906667,23.6244348 17.4906667,23.5954348 L17.4906667,21.0114348 C17.4906667,20.9774348 17.5016667,20.9564348 17.5386667,20.9624348 C17.5556667,20.9644348 17.5726667,20.9674348 17.5886667,20.9694348 C17.6216667,20.9744348 17.6556667,20.9794348 17.6886667,20.9834348 C17.8236667,20.9994348 17.9576667,21.0114348 18.0936667,21.0184348 C18.3646667,21.0324348 18.6336667,21.0294348 18.9046667,21.0044348 C19.0396667,20.9924348 19.1736667,20.9764348 19.3066667,20.9544348 C19.3536667,20.9474348 19.3096667,21.0024348 19.3096667,21.0274348 L19.3096667,21.5154348 L19.3096667,22.4194348 L19.3096667,23.9384348 C19.3096667,24.1294348 19.3126667,24.3214348 19.3086667,24.5134348 C19.3086667,24.5294348 19.3076667,24.5454348 19.3066667,24.5614348 C19.3046667,24.5944348 19.3006667,24.6264348 19.2956667,24.6584348 C19.2836667,24.7274348 19.2646667,24.7924348 19.2396667,24.8574348 C19.1146667,25.1644348 18.9366667,25.3254348 18.6186667,25.4204348 C18.5466667,25.4424348 18.4746667,25.4544348 18.3996667,25.4584348 C18.3816667,25.4594348 18.3646667,25.4594348 18.3466667,25.4594348 C16.4776667,25.4644348 14.6096667,25.4594348 12.7416667,25.4594348 L1.08066667,25.4594348 C0.742666667,25.4594348 0.487666667,25.4024348 0.249666667,25.1314348 C0.153666667,25.0224348 0.0896666667,24.9054348 0.0486666667,24.7654348 C0.0306666667,24.7014348 0.0186666667,24.6384348 0.0136666667,24.5724348 C0.0116666667,24.5574348 0.0116666667,24.5414348 0.0106666667,24.5264348 C-0.0133333333,23.7344348 0.0106666667,22.9434348 0.0106666667,22.1524348 L0.0106666667,8.57243481 L0.0106666667,1.52743481 C0.0106666667,1.32943481 0.00266666667,1.13243481 0.0116666667,0.935434812 C0.0126666667,0.902434812 0.0156666667,0.869434812 0.0206666667,0.836434812 C0.0316666667,0.767434812 0.0486666667,0.700434812 0.0736666667,0.635434812 C0.128666667,0.491434812 0.206666667,0.376434812 0.318666667,0.272434812 C0.430666667,0.169434812 0.550666667,0.100434812 0.695666667,0.0564348119 C0.761666667,0.0364348119 0.827666667,0.0234348119 0.895666667,0.0184348119 C1.35966667,-0.0205651881 1.82066667,0.0144348119 2.28266667,0.0144348119 L9.40966667,0.0144348119 L11.6666667,0.0144348119 L12.7956667,0.0144348119 C12.8776667,0.0144348119 12.9526667,-0.000565188115 13.0216667,0.0704348119 C13.0676667,0.117434812 13.1136667,0.164434812 13.1596667,0.211434812 C13.2516667,0.305434812 13.3436667,0.400434812 13.4356667,0.494434812 C14.1726667,1.24943481 14.9086667,2.00443481 15.6456667,2.75843481 C16.3826667,3.51343481 17.1186667,4.26843481 17.8556667,5.02243481 C18.2236667,5.40043481 18.5926667,5.77743481 18.9606667,6.15443481 C19.0526667,6.24943481 19.1446667,6.34343481 19.2366667,6.43743481 C19.2596667,6.46143481 19.2826667,6.48543481 19.3056667,6.50843481 C19.3356667,6.53943481 19.3096667,6.56743481 19.3096667,6.59643481 L19.3096667,6.69443481 L19.3096667,7.12343481 L19.3096667,9.42943481 C19.3096667,9.48543481 19.3836667,9.60243481 19.2786667,9.58643481 C19.2676667,9.58543481 19.2566667,9.58343481 19.2456667,9.58143481 C19.2246667,9.57843481 19.2026667,9.57543481 19.1816667,9.57243481 C19.1386667,9.56643481 19.0956667,9.56143481 19.0526667,9.55643481 C18.8786667,9.53643481 18.7056667,9.52443481 18.5316667,9.52043481 C18.1806667,9.51243481 17.8366667,9.53643481 17.4906667,9.59143481" id="Fill-159" fill="#DE0101" sketch:type="MSShapeGroup"></path>
        <path d="M19.082,15.082 L20.841,15.082 L20.841,14.221 L19.082,14.221 L19.082,12.461 L18.22,12.461 L18.22,14.221 L16.46,14.221 L16.46,15.082 L18.22,15.082 L18.22,16.842 L19.082,16.842 L19.082,15.082 Z M14,14.651 C14,12.082 16.082,10 18.65,10 C21.219,10 23.301,12.082 23.301,14.651 C23.301,17.22 21.219,19.302 18.65,19.302 C16.082,19.302 14,17.22 14,14.651 L14,14.651 Z" id="Fill-160" fill="#DE0101" sketch:type="MSShapeGroup"></path>
    </g>
</svg>