<?xml version="1.0" encoding="UTF-8" standalone="no"?>
<svg width="130px" height="40px" viewBox="0 0 130 40" version="1.1" xmlns="http://www.w3.org/2000/svg" xmlns:xlink="http://www.w3.org/1999/xlink" xmlns:sketch="http://www.bohemiancoding.com/sketch/ns">
    <!-- Generator: Sketch 3.1.1 (8761) - http://www.bohemiancoding.com/sketch -->
    <title>Slice 2</title>
    <desc>Created with Sketch.</desc>
    <defs></defs>
    <g id="Page-1" stroke="none" stroke-width="1" fill="none" fill-rule="evenodd" sketch:type="MSPage">
        <path d="M93,1.6681 C93,0.653 93.8342,0 94.6686,0 L98.5417,0 C99.557,0 100.2098,0.8342 100.2098,1.6681 L100.2098,31.1186 C100.2098,31.9527 99.557,32.7869 98.5417,32.7869 L94.6686,32.7869 C93.8342,32.7869 93,32.1338 93,31.1186 L93,1.6681 Z" id="Fill-293" fill="#1A171B" sketch:type="MSShapeGroup"></path>
        <path d="M14.4267,33.3073 C14.4267,37.4778 11.9238,40.4008 7.3332,40.4008 L1.6685,40.4008 C0.8348,40.4008 0,39.748 0,38.7325 L0,35.9322 C0,34.9174 0.8348,34.2642 1.6685,34.2642 L6.3796,34.2642 C6.8547,34.2642 7.1526,33.9603 7.1526,33.4879 L7.1526,1.6685 C7.1526,0.8341 7.8698,0 8.8204,0 L12.7582,0 C13.7083,0 14.4267,0.8341 14.4267,1.6685 L14.4267,33.3073 Z" id="Fill-295" fill="#1A171B" sketch:type="MSShapeGroup"></path>
        <path d="M63.1871,0 C66.2291,0 68.075,1.5519 68.4349,3.6923 C68.971,1.5519 70.6398,0 73.7362,0 L80.7721,0 C85.3627,0 87.9853,3.6344 87.9853,7.21 L87.9853,31.1191 C87.9853,32.1343 87.1507,32.7871 86.3168,32.7871 L82.4409,32.7871 C81.4284,32.7871 80.7721,31.9532 80.7721,31.1191 L80.7721,7.21 C80.7721,6.9131 80.4745,6.4989 80.0574,6.4989 L72.7863,6.4989 C72.3653,6.4989 72.0691,6.9131 72.0691,7.21 L72.0691,31.1191 C72.0691,32.1343 71.2342,32.7871 70.4001,32.7871 L66.5269,32.7871 C65.5121,32.7871 64.8593,31.9532 64.8593,31.1191 L64.8593,7.21 C64.8593,6.9131 64.558,6.4989 64.141,6.4989 L56.9896,6.4989 C56.5109,6.4989 56.2716,6.9131 56.2716,7.21 L56.2716,31.1191 C56.2716,32.1343 55.4375,32.7871 54.6029,32.7871 L50.6686,32.7871 C49.7145,32.7871 49,31.9532 49,31.1191 L49,7.21 C49,3.6344 51.6225,0 56.2716,0 L63.1871,0 Z" id="Fill-296" fill="#1A171B" sketch:type="MSShapeGroup"></path>
        <path d="M35.3919,26.3534 C35.8115,26.3534 36.1091,25.9328 36.1091,25.636 L36.1091,1.6688 C36.1091,0.6533 36.9437,0 37.7777,0 L41.712,0 C42.7244,0 43.3807,0.8344 43.3807,1.6688 L43.3807,25.5774 C43.3807,29.153 40.7588,32.7871 36.1675,32.7871 L26.2123,32.7871 C21.6252,32.7871 19,29.153 19,25.5774 L19,1.6688 C19,0.6533 19.8339,0 20.6678,0 L24.5447,0 C25.556,0 26.2123,0.8344 26.2123,1.6688 L26.2123,25.636 C26.2123,25.9328 26.5136,26.3534 26.927,26.3534 L35.3919,26.3534 Z" id="Fill-297" fill="#1A171B" sketch:type="MSShapeGroup"></path>
        <path d="M128.1348,8 L124.2616,8 C123.4272,8 122.5931,8.6532 122.5931,9.668 L122.5931,12.0024 L122.5931,12.7768 L122.5931,13.4427 L122.5931,17.4573 L122.5931,25.8543 C122.5931,26.2686 122.2334,26.5664 121.8782,26.5664 L111.2677,26.5664 L108.6166,26.5664 L107.6685,26.5664 C106.7469,26.5664 106,27.3133 106,28.2347 C106,28.4928 106.0604,28.7363 106.1648,28.9543 C106.168,28.9627 106.1685,28.9739 106.172,28.9816 C107.2522,31.2231 109.4757,32.9476 112.6344,32.9476 L122.5896,32.9476 C127.1809,32.9476 129.8026,29.3132 129.8026,25.7376 L129.8026,13.4427 L129.8026,11.6026 L129.8026,9.668 C129.8026,8.8341 129.15,8 128.1348,8" id="Fill-298" fill="#97BE0D" sketch:type="MSShapeGroup"></path>
        <path d="M107.6678,24.9476 L111.5409,24.9476 C112.3753,24.9476 113.2095,24.2943 113.2095,23.2795 L113.2095,20.9451 L113.2095,20.1707 L113.2095,19.5049 L113.2095,15.4903 L113.2095,7.0933 C113.2095,6.679 113.5691,6.3812 113.9244,6.3812 L124.5349,6.3812 L127.186,6.3812 L128.134,6.3812 C129.0557,6.3812 129.8026,5.6343 129.8026,4.7129 C129.8026,4.4548 129.7421,4.2113 129.6378,3.9933 C129.6345,3.9849 129.6341,3.9737 129.6306,3.966 C128.5504,1.7245 126.3269,0 123.1681,0 L113.213,0 C108.6217,0 106,3.6344 106,7.21 L106,19.5049 L106,21.3449 L106,23.2795 C106,24.1135 106.6525,24.9476 107.6678,24.9476" id="Fill-299" fill="#1A171B" sketch:type="MSShapeGroup"></path>
    </g>
</svg>