<?xml version="1.0" encoding="utf-8"?>
<!-- Generator: Adobe Illustrator 16.0.4, SVG Export Plug-In . SVG Version: 6.00 Build 0)  -->
<!DOCTYPE svg PUBLIC "-//W3C//DTD SVG 1.1//EN" "http://www.w3.org/Graphics/SVG/1.1/DTD/svg11.dtd">
<svg version="1.1" id="Layer_1" xmlns="http://www.w3.org/2000/svg" xmlns:xlink="http://www.w3.org/1999/xlink" x="0px" y="0px"
	 width="100px" height="100px" viewBox="0 0 100 100" enable-background="new 0 0 100 100" xml:space="preserve">
<path fill="#00BFBC" d="M89.776,45.581L72.094,63.256c-9.759,9.766-25.591,9.766-35.351,0c-1.538-1.531-2.74-3.259-3.796-5.041
	L41.162,50c0.391-0.394,0.873-0.62,1.333-0.885c0.568,1.941,1.56,3.778,3.085,5.304c4.874,4.877,12.805,4.871,17.675,0
	l17.676-17.675c4.877-4.877,4.877-12.805,0-17.679c-4.87-4.874-12.799-4.874-17.676,0l-6.286,6.293
	c-5.1-1.987-10.596-2.521-15.945-1.736l13.394-13.395c9.766-9.762,25.592-9.762,35.357,0C99.535,19.989,99.535,35.818,89.776,45.581
	z M43.032,74.646l-6.29,6.293c-4.874,4.87-12.805,4.87-17.679,0c-4.874-4.877-4.874-12.806,0-17.682l17.679-17.676
	c4.877-4.877,12.802-4.877,17.675,0c1.523,1.522,2.516,3.36,3.089,5.298c0.464-0.269,0.94-0.488,1.331-0.879l8.215-8.212
	c-1.049-1.789-2.258-3.51-3.796-5.044c-9.76-9.763-25.592-9.763-35.355,0L10.226,54.419c-9.762,9.766-9.762,25.592,0,35.357
	c9.763,9.76,25.592,9.76,35.355,0l13.397-13.397C53.625,77.166,48.129,76.629,43.032,74.646z"/>
</svg>
