<?xml version="1.0" encoding="utf-8"?>
<!-- Generator: Adobe Illustrator 16.0.4, SVG Export Plug-In . SVG Version: 6.00 Build 0)  -->
<!DOCTYPE svg PUBLIC "-//W3C//DTD SVG 1.1//EN" "http://www.w3.org/Graphics/SVG/1.1/DTD/svg11.dtd">
<svg version="1.1" id="Layer_1" xmlns="http://www.w3.org/2000/svg" xmlns:xlink="http://www.w3.org/1999/xlink" x="0px" y="0px"
	 width="100px" height="100px" viewBox="0 0 100 100" enable-background="new 0 0 100 100" xml:space="preserve">
<g id="Captions">
</g>
<path fill="#353558" d="M80,40V30C80,13.432,66.568,0,50,0C33.431,0,20,13.432,20,30v10H10v60h80V40H80z M50,80
	c-5.523,0-10-4.477-10-10s4.477-10,10-10c5.521,0,10,4.477,10,10S55.521,80,50,80z M30,40V30c0-11.028,8.972-20,20-20
	c11.027,0,20,8.972,20,20v10H30z"/>
</svg>
