<?xml version="1.0" encoding="UTF-8" standalone="no"?>
<svg width="15px" height="15px" viewBox="0 0 15 15" version="1.1" xmlns="http://www.w3.org/2000/svg" xmlns:xlink="http://www.w3.org/1999/xlink" xmlns:sketch="http://www.bohemiancoding.com/sketch/ns">
    <!-- Generator: Sketch 3.1 (8751) - http://www.bohemiancoding.com/sketch -->
    <title>Slice 2</title>
    <desc>Created with Sketch.</desc>
    <defs>
        <path id="path-1" d="M0,0 L15,0 L15,15 L0,15 L0,0"></path>
    </defs>
    <g id="Page-1" stroke="none" stroke-width="1" fill="none" fill-rule="evenodd" sketch:type="MSPage">
        <g id="Group-386" sketch:type="MSLayerGroup">
            <mask id="mask-2" sketch:name="Clip 384" fill="white">
                <use xlink:href="#path-1"></use>
            </mask>
            <g id="Clip-384"></g>
            <path d="M7.509,14.9948 C3.583,14.9948 0.389,11.8008 0.389,7.8744 C0.389,5.9123 1.21,4.0179 2.643,2.6762 C3.008,2.3366 3.577,2.3556 3.917,2.718 C4.257,3.0814 4.238,3.6515 3.875,3.9915 C2.788,5.0085 2.19,6.3874 2.19,7.8747 C2.19,10.8077 4.576,13.1934 7.509,13.1934 C10.442,13.1934 12.828,10.8077 12.828,7.8747 C12.828,6.4208 12.252,5.0627 11.206,4.051 C10.848,3.7052 10.839,3.1347 11.185,2.7771 C11.53,2.4208 12.1,2.4093 12.459,2.756 C13.858,4.1103 14.63,5.9283 14.63,7.8747 C14.629,11.8008 11.435,14.9948 7.509,14.9948" id="Fill-383" fill="#353558" sketch:type="MSShapeGroup" mask="url(#mask-2)"></path>
            <path d="M7.509,7.7001 C7.011,7.7001 6.608,7.2967 6.608,6.7993 L6.608,0.8956 C6.608,0.3982 7.011,-0.0053 7.509,-0.0053 C8.007,-0.0053 8.41,0.3982 8.41,0.8956 L8.41,6.7995 C8.41,7.2969 8.007,7.7001 7.509,7.7001" id="Fill-385" fill="#353558" sketch:type="MSShapeGroup" mask="url(#mask-2)"></path>
        </g>
    </g>
</svg>