<?xml version="1.0" encoding="UTF-8" standalone="no"?>
<svg width="8px" height="7px" viewBox="0 0 8 7" version="1.1" xmlns="http://www.w3.org/2000/svg" xmlns:xlink="http://www.w3.org/1999/xlink" xmlns:sketch="http://www.bohemiancoding.com/sketch/ns">
    <!-- Generator: Sketch 3.1 (8751) - http://www.bohemiancoding.com/sketch -->
    <title>Slice 2</title>
    <desc>Created with Sketch.</desc>
    <defs>
        <path id="path-1" d="M0,0.0244 L850,0.0244 L850,52.9754 L0,52.9754 L0,0.0244 L0,0.0244 Z"></path>
        <path d="M1280,22.5 L1280,0 L0,0 L0,124.5 L0,84 L0,2 C0,0.8954 0.8954305,0 2,0 L1278,0 C1279.105,0 1280,0.8954 1280,2 L1280,22.5 L1280,22.5 Z M640,166 L0,166 L0,124.5 L640,166 L640,166 Z" id="path-3"></path>
    </defs>
    <g id="Page-1" stroke="none" stroke-width="1" fill="none" fill-rule="evenodd" sketch:type="MSPage">
        <g id="cube_activity-guide_v1" sketch:type="MSLayerGroup" transform="translate(-554.000000, -290.000000)">
            <path d="M0,0 L1280,0 L1280,800 L0,800 L0,0 Z" id="Fill-1" fill="#E6EEF2" sketch:type="MSShapeGroup"></path>
            <path d="M0,154 L1280,154 L1280,800 L0,800 L0,154 Z" id="Fill-118" fill="#F8F8F8" sketch:type="MSShapeGroup"></path>
            <g id="Group-160" transform="translate(16.000000, 214.000000)">
                <g id="Group-152">
                    <g id="Group-139" transform="translate(215.000000, 53.000000)">
                        <g id="Group-124">
                            <mask id="mask-2" sketch:name="Clip 123" fill="white">
                                <use xlink:href="#path-1"></use>
                            </mask>
                            <g id="Clip-123"></g>
                            <path d="M549.2402,28.5008 C548.1952,42.3068 536.6872,52.9758 522.8422,52.9758 C508.9962,52.9758 497.4882,42.3068 496.4422,28.5008 L353.5572,28.5008 C352.5112,42.3068 341.0042,52.9758 327.1582,52.9758 C313.3122,52.9758 301.8042,42.3068 300.7602,28.5008 L157.8742,28.5008 C156.7992,42.6918 144.6962,53.4948 130.4742,52.9558 C116.2522,52.4188 105.0002,40.7328 105.0002,26.5008 C105.0002,12.2688 116.2522,0.5828 130.4742,0.0438 C144.6962,-0.4932 156.7992,10.3098 157.8742,24.5008 L300.7602,24.5008 C301.8042,10.6938 313.3122,0.0258 327.1582,0.0258 C341.0042,0.0258 352.5112,10.6938 353.5572,24.5008 L496.4422,24.5008 C497.4882,10.6938 508.9962,0.0258 522.8422,0.0258 C536.6872,0.0258 548.1952,10.6938 549.2402,24.5008 L692.1262,24.5008 C693.2012,10.3098 705.3032,-0.4932 719.5252,0.0438 C733.7482,0.5828 745.0002,12.2688 745.0002,26.5008 C745.0002,40.7328 733.7482,52.4188 719.5252,52.9558 C705.3032,53.4948 693.2012,42.6918 692.1262,28.5008 L549.2402,28.5008 Z" id="Fill-122" fill="#93C4D2" sketch:type="MSShapeGroup" mask="url(#mask-2)"></path>
                        </g>
                        <g id="Group-138" transform="translate(119.000000, 14.000000)" fill="#FFFFFF" sketch:type="MSShapeGroup">
                            <path d="M211.8154,24.2391 C213.0714,24.2391 214.1324,23.1381 214.1324,21.8341 L214.1324,3.0461 C214.1324,2.423 213.8984,1.861 213.4574,1.4201 C213.0264,0.9891 212.4584,0.7611 211.8154,0.7611 L204.6044,0.7611 C203.2704,0.7611 202.1854,1.7861 202.1854,3.0461 L202.1854,21.8341 C202.1854,22.4441 202.4504,23.058 202.9114,23.52 C203.3614,23.971 203.9944,24.2391 204.6044,24.2391 L211.8154,24.2391 Z M204.6044,25.1661 C203.7524,25.1661 202.8754,24.7961 202.2554,24.1761 C201.6224,23.5411 201.2584,22.687 201.2584,21.8341 L201.2584,3.0461 C201.2584,1.275 202.7594,-0.1659 204.6044,-0.1659 L211.8154,-0.1659 C212.7094,-0.1659 213.5034,0.1561 214.1124,0.765 C214.7314,1.3831 215.0594,2.1721 215.0594,3.0461 L215.0594,21.8341 C215.0594,23.639 213.5734,25.1661 211.8154,25.1661 L204.6044,25.1661 Z" id="Fill-127"></path>
                            <path d="M212.4409,20.4568 L203.6549,20.4568 C203.5859,20.4568 203.5299,20.3988 203.5299,20.3298 L203.5299,4.6698 C203.5299,4.6008 203.5859,4.5438 203.6549,4.5438 L212.4409,4.5438 C212.5099,4.5438 212.5659,4.6008 212.5659,4.6698 L212.5659,20.3298 C212.5659,20.3988 212.5099,20.4568 212.4409,20.4568" id="Fill-129"></path>
                        </g>
                    </g>
                    <g id="Group-151">
                        <mask id="mask-4" sketch:name="Clip 150" fill="white">
                            <use xlink:href="#path-3"></use>
                        </mask>
                        <g id="Clip-150"></g>
                    </g>
                </g>
            </g>
        </g>
    </g>
</svg>