<?xml version="1.0" encoding="UTF-8" standalone="no"?>
<svg width="14px" height="26px" viewBox="0 0 14 26" version="1.1" xmlns="http://www.w3.org/2000/svg" xmlns:xlink="http://www.w3.org/1999/xlink" xmlns:sketch="http://www.bohemiancoding.com/sketch/ns">
    <!-- Generator: Sketch 3.1 (8751) - http://www.bohemiancoding.com/sketch -->
    <title>Slice 2</title>
    <desc>Created with Sketch.</desc>
    <defs></defs>
    <g id="Page-1" stroke="none" stroke-width="1" fill="none" fill-rule="evenodd" sketch:type="MSPage">
        <path d="M10.557,24.405 C11.813,24.405 12.874,23.304 12.874,22 L12.874,3.212 C12.874,2.5889 12.64,2.0269 12.199,1.586 C11.768,1.155 11.2,0.927 10.557,0.927 L3.346,0.927 C2.012,0.927 0.927,1.952 0.927,3.212 L0.927,22 C0.927,22.61 1.192,23.2239 1.653,23.6859 C2.103,24.1369 2.736,24.405 3.346,24.405 L10.557,24.405 Z M3.346,25.332 C2.494,25.332 1.617,24.962 0.997,24.342 C0.364,23.707 0,22.8529 0,22 L0,3.212 C0,1.4409 1.501,0 3.346,0 L10.557,0 C11.451,0 12.245,0.322 12.854,0.9309 C13.473,1.549 13.801,2.338 13.801,3.212 L13.801,22 C13.801,23.8049 12.315,25.332 10.557,25.332 L3.346,25.332 Z" id="Fill-127" fill="#C86060" sketch:type="MSShapeGroup"></path>
        <path d="M10.786498,20.913 L2.13883355,20.913 C2.06219743,20.913 2,20.855 2,20.786 L2,5.126 C2,5.057 2.06219743,5 2.13883355,5 L11.8971664,5 C11.9738026,5 12.036,5.057 12.036,5.126 L12.036,20.786 C12.036,20.855 11.9738026,20.913 11.8971664,20.913" id="Fill-129" fill="#C86060" sketch:type="MSShapeGroup"></path>
        <path d="M6.957,21.61 C6.491,21.61 6.111,21.989 6.111,22.457 C6.111,22.922 6.491,23.302 6.957,23.302 C7.423,23.302 7.803,22.922 7.803,22.457 C7.803,21.989 7.423,21.61 6.957,21.61 M6.957,23.412 C6.429,23.412 6,22.983 6,22.457 C6,21.928 6.429,21.5 6.957,21.5 C7.484,21.5 7.914,21.928 7.914,22.457 C7.914,22.983 7.484,23.412 6.957,23.412" id="Fill-130" fill="#C86060" sketch:type="MSShapeGroup"></path>
        <path d="M6.182,3.111 C6.143,3.111 6.111,3.143 6.111,3.183 L6.111,3.218 C6.111,3.257 6.143,3.289 6.182,3.289 L7.66,3.289 C7.7,3.289 7.732,3.257 7.732,3.218 L7.732,3.183 C7.732,3.143 7.7,3.111 7.66,3.111 L6.182,3.111 Z M7.66,3.4 L6.182,3.4 C6.082,3.4 6,3.318 6,3.218 L6,3.183 C6,3.082 6.082,3 6.182,3 L7.66,3 C7.761,3 7.843,3.082 7.843,3.183 L7.843,3.218 C7.843,3.318 7.761,3.4 7.66,3.4 L7.66,3.4 Z" id="Fill-131" fill="#C86060" sketch:type="MSShapeGroup"></path>
    </g>
</svg>