<?xml version="1.0" encoding="utf-8"?>
<!-- Generator: Adobe Illustrator 16.0.4, SVG Export Plug-In . SVG Version: 6.00 Build 0)  -->
<!DOCTYPE svg PUBLIC "-//W3C//DTD SVG 1.1//EN" "http://www.w3.org/Graphics/SVG/1.1/DTD/svg11.dtd">
<svg version="1.1" xmlns="http://www.w3.org/2000/svg" xmlns:xlink="http://www.w3.org/1999/xlink" x="0px" y="0px" width="100px"
	 height="100px" viewBox="0 0 100 100" enable-background="new 0 0 100 100" xml:space="preserve">
<g id="Default">
</g>
<g id="Layer_1">
	<g>
		<path fill="#353558" d="M91.611,50.284L79.003,12.466L0.242,38.849l16.695,50.213V100H100V50.284H91.611z M16.938,65.37
			c-1.5-4.476-2.999-8.95-4.497-13.426c5.775-1.934,8.89-8.185,6.955-13.96c14.563-4.877,29.126-9.756,43.689-14.635
			c1.935,5.777,8.185,8.89,13.962,6.956c2.076,6.2,4.153,12.402,6.231,18.603c-0.992,0.333-1.894,0.783-2.754,1.376H60.567
			c-0.078-6.963-5.745-12.566-12.708-12.566c-6.964,0-12.63,5.604-12.708,12.566H16.938V65.37z M92.535,84.269
			c-6.092,0-11.028,4.596-11.028,10.263H35.431c0-5.667-4.937-10.263-11.028-10.263c0-6.083,0-12.17,0-18.254
			c6.092,0,11.028-4.595,11.028-10.262c15.358,0,30.718,0,46.076,0c0,5.667,4.937,10.262,11.028,10.262
			C92.535,72.099,92.535,78.186,92.535,84.269z"/>
		<circle fill="#353558" cx="70.036" cy="42.998" r="3.046"/>
		<circle fill="#353558" cx="58.469" cy="75.142" r="12.708"/>
		<circle fill="#353558" cx="35.081" cy="75.142" r="3.046"/>
		<circle fill="#353558" cx="81.855" cy="75.142" r="3.046"/>
	</g>
</g>
</svg>
