<?xml version="1.0" encoding="utf-8"?>
<!-- Generator: Adobe Illustrator 16.0.4, SVG Export Plug-In . SVG Version: 6.00 Build 0)  -->
<!DOCTYPE svg PUBLIC "-//W3C//DTD SVG 1.1//EN" "http://www.w3.org/Graphics/SVG/1.1/DTD/svg11.dtd">
<svg version="1.1" id="Your_Icon" xmlns="http://www.w3.org/2000/svg" xmlns:xlink="http://www.w3.org/1999/xlink" x="0px" y="0px"
	 width="100px" height="100px" viewBox="0 0 100 100" enable-background="new 0 0 100 100" xml:space="preserve">
<path fill="#353558" d="M92.47,50c0,23.456-19.015,42.471-42.47,42.471C26.544,92.471,7.529,73.456,7.529,50S26.544,7.529,50,7.529
	C73.456,7.529,92.47,26.544,92.47,50z M50,0C22.386,0,0,22.386,0,50c0,27.613,22.385,49.999,50,49.999
	c27.613,0,49.999-22.386,49.999-49.999C99.999,22.386,77.613,0,50,0z M54.458,78.839c3.023-6.655,6.047-13.31,9.07-19.964
	c0.283-0.622,0.565-1.244,0.848-1.866c0.055-0.122,0.147-0.004,0.221-0.004c0.227,0,0.453,0,0.679,0c1.835,0,3.668,0,5.501,0
	c2.087,0,4.173,0,6.259,0c0.637,0,1.218-0.045,1.805-0.354c1.2-0.635,1.841-1.971,1.588-3.304c-0.25-1.316-1.33-2.323-2.66-2.48
	c-1.596-0.188-3.171-0.021-4.757-0.021c-3.239,0-6.479,0-9.717,0c-0.918,0-1.834,0-2.749,0c-0.077,0-0.137,0.002-0.174,0.083
	c-0.093,0.204-0.185,0.407-0.277,0.611c-0.867,1.908-1.735,3.818-2.603,5.728c-0.613,1.351-1.227,2.701-1.842,4.052
	c-0.075,0.168-0.041-0.182-0.062-0.271c-0.069-0.298-0.138-0.594-0.207-0.892c-0.259-1.122-0.518-2.244-0.776-3.366
	c-0.851-3.68-1.699-7.36-2.55-11.04c-1.44-6.237-2.881-12.474-4.321-18.709c-0.427-1.852-0.81-3.712-1.282-5.553
	c-0.01-0.04-0.024-0.076-0.041-0.112c-0.084-0.172-0.194-0.262-0.378-0.312c-0.178-0.047-0.314-0.026-0.47,0.073
	c-0.074,0.048-0.13,0.104-0.178,0.178c-0.021,0.034-0.04,0.07-0.054,0.107c-0.482,1.251-0.847,2.539-1.271,3.809
	c-2.499,7.499-4.997,14.998-7.495,22.497c-0.307,0.922-0.615,1.845-0.922,2.767c-0.056,0.167-0.057,0.352-0.3,0.352
	c-1.071,0-2.143,0-3.214,0c-2.472,0-4.944,0-7.416,0c-0.955,0-1.894-0.149-2.86,0.09c-1.31,0.326-2.256,1.475-2.329,2.821
	c-0.074,1.354,0.743,2.599,2.019,3.064c0.91,0.332,1.789,0.185,2.692,0.185c3.183,0,6.366,0,9.55,0c1.516,0,3.031,0,4.546,0
	c0.432,0,0.865,0,1.297,0c0.117,0,0.28,0.181,0.349-0.023c0.696-2.09,1.393-4.181,2.09-6.271c0.877-2.633,1.754-5.266,2.632-7.898
	c0.068-0.206,0.137-0.411,0.205-0.616c0.028-0.084,0.027,0.085,0.037,0.129c0.055,0.238,0.11,0.474,0.165,0.711
	c0.578,2.502,1.156,5.004,1.733,7.505c1.292,5.597,2.584,11.192,3.876,16.788c0.578,2.501,1.155,5,1.732,7.501
	c0.302,1.309,0.541,2.629,0.907,3.925c0.049,0.176,0.136,0.281,0.298,0.365C54.038,79.317,54.278,79.232,54.458,78.839z"/>
</svg>
