<?xml version="1.0" encoding="utf-8"?>
<!-- Generator: Adobe Illustrator 16.0.4, SVG Export Plug-In . SVG Version: 6.00 Build 0)  -->
<!DOCTYPE svg PUBLIC "-//W3C//DTD SVG 1.1//EN" "http://www.w3.org/Graphics/SVG/1.1/DTD/svg11.dtd">
<svg version="1.1" id="Layer_1" xmlns="http://www.w3.org/2000/svg" xmlns:xlink="http://www.w3.org/1999/xlink" x="0px" y="0px"
	 width="500px" height="500px" viewBox="0 0 500 500" enable-background="new 0 0 500 500" xml:space="preserve">
<g>
	<path fill="#353558" d="M250.302,499.825c-130.873,0-237.351-106.466-237.351-237.344c0-65.407,27.391-128.552,75.158-173.274
		c12.142-11.319,31.114-10.687,42.463,1.394c11.321,12.112,10.704,31.115-1.409,42.448c-36.218,33.9-56.155,79.864-56.155,129.441
		c0,97.764,79.526,177.29,177.294,177.29c97.766,0,177.292-79.526,177.292-177.29c0-48.463-19.208-93.735-54.076-127.457
		c-11.907-11.527-12.226-30.544-0.695-42.465c11.524-11.875,30.526-12.257,42.463-0.703
		c46.647,45.143,72.372,105.746,72.372,170.625C487.648,393.359,381.172,499.825,250.302,499.825z"/>
</g>
<path fill="#353558" d="M250.302,256.67c-16.599,0-30.032-13.445-30.032-30.026V29.854c0-16.582,13.433-30.029,30.032-30.029
	c16.593,0,30.03,13.448,30.03,30.029v196.794C280.326,243.23,266.896,256.67,250.302,256.67z"/>
</svg>
