<?xml version="1.0" encoding="UTF-8" standalone="no"?>
<svg width="25px" height="25px" viewBox="0 0 25 25" version="1.1" xmlns="http://www.w3.org/2000/svg" xmlns:xlink="http://www.w3.org/1999/xlink" xmlns:sketch="http://www.bohemiancoding.com/sketch/ns">
    <!-- Generator: Sketch 3.1 (8751) - http://www.bohemiancoding.com/sketch -->
    <title>Slice 2</title>
    <desc>Created with Sketch.</desc>
    <defs></defs>
    <g id="Page-1" stroke="none" stroke-width="1" fill="none" fill-rule="evenodd" sketch:type="MSPage">
        <path d="M12.4981,1.4151 C6.3868,1.4151 1.4151,6.387 1.4151,12.4981 C1.4151,18.6094 6.3868,23.5813 12.4981,23.5813 C18.6095,23.5813 23.5814,18.6094 23.5814,12.4981 C23.5814,11.2339 23.3661,9.9957 22.9396,8.8045 L12.6307,19.1132 C12.3653,19.3785 11.8946,19.3785 11.6293,19.1132 L4.7408,12.2247 C4.608,12.0922 4.5335,11.9122 4.5335,11.7245 C4.5335,11.537 4.608,11.3568 4.7408,11.2243 L7.8804,8.0846 C8.1455,7.8191 8.6156,7.8188 8.8809,8.0846 L12.1297,11.3332 L19.5229,3.9398 C17.5399,2.3066 15.0724,1.4151 12.4981,1.4151 M12.4981,24.9964 C5.6066,24.9964 0,19.3896 0,12.4981 C0,5.6066 5.6066,0 12.4981,0 C15.6769,0 18.7106,1.2042 21.0406,3.391 C21.1804,3.5221 21.2606,3.7045 21.2639,3.896 C21.267,4.0875 21.192,4.2719 21.0566,4.4073 L12.6302,12.8342 C12.3646,13.0995 11.8948,13.0997 11.6295,12.8342 L8.3807,9.5856 L6.2418,11.7245 L12.13,17.6127 L22.6906,7.0523 C22.8538,6.8889 23.0873,6.8155 23.3144,6.8561 C23.542,6.8967 23.7354,7.0457 23.8328,7.2554 C24.605,8.9221 24.9965,10.6861 24.9965,12.4981 C24.9965,19.3896 19.3899,24.9964 12.4981,24.9964" id="Fill-153" fill="#00C7C4" sketch:type="MSShapeGroup"></path>
    </g>
</svg>