<?xml version="1.0" encoding="utf-8"?>
<!-- Generator: Adobe Illustrator 16.0.4, SVG Export Plug-In . SVG Version: 6.00 Build 0)  -->
<!DOCTYPE svg PUBLIC "-//W3C//DTD SVG 1.1//EN" "http://www.w3.org/Graphics/SVG/1.1/DTD/svg11.dtd">
<svg version="1.1" id="Layer_1" xmlns="http://www.w3.org/2000/svg" xmlns:xlink="http://www.w3.org/1999/xlink" x="0px" y="0px"
	 width="100.443px" height="24.002px" viewBox="0 0 100.443 24.002" enable-background="new 0 0 100.443 24.002"
	 xml:space="preserve">
<path fill="#353558" d="M99.265,1.778h-1.532c-0.981,0-1.71,0.648-2.272,1.442l-1.52,2.132c0,0-0.001,0.001-0.001,0.002l0,0
	l-3.284,4.615l-2.849-3.998c-0.014-0.021-0.021-0.04-0.034-0.061l-1.919-2.687c-0.564-0.791-1.301-1.44-2.281-1.44H82.15
	c-0.979,0-1.616,0.649-1.048,1.438l1.93,2.692c0.006,0.004,0.01,0.011,0.016,0.016l5.49,7.648v5.338v1.951v1.371
	c0,0.969,0.805,1.762,1.786,1.76h0.662c0.98-0.002,1.784-0.797,1.784-1.768v-1.363v-1.951v-5.348l5.854-8.146
	c0.02-0.023,0.041-0.046,0.061-0.07l1.527-2.139C100.779,2.426,100.244,1.778,99.265,1.778z M35.235,12.189l5.511-5.232
	c0.025-0.022,3.896-3.698,3.896-3.698c0.694-0.661-0.055-1.48-1.009-1.48h-2.096c-0.955,0-1.437,0.543-2.132,1.208l-4.079,3.901
	c-0.005,0.003-0.007,0.006-0.01,0.012l-2.625,2.51V6.563h-0.011c0.002-0.037,0.011-0.074,0.011-0.114V3.542
	c0-0.968-0.781-1.763-1.734-1.763h-0.778c-0.953,0-1.735,0.795-1.735,1.763v2.907c0,0.04,0.009,0.077,0.011,0.114h-0.011v12.333
	v0.117v3.225c0,0.971,0.782,1.766,1.735,1.766h0.778c0.953,0,1.734-0.795,1.734-1.766v-3.225v-0.117v-3.677l3.74,3.794h0.004
	l3.683,3.742C40.794,23.44,41.26,24,42.214,24h2.1c0.955,0,1.36-1.146,0.687-1.832L35.235,12.189z M84.979,21.8h0.01l-7.16-17.559
	h-0.003l-0.335-0.824c-0.368-0.901-1.475-1.639-2.459-1.639H74.32c-0.986,0-2.094,0.738-2.457,1.64l-0.331,0.823H71.52
	l-7.133,17.465h0.004l-0.271,0.656c-0.37,0.9,0.137,1.637,1.125,1.637h1.596c0.986,0,1.448-0.744,1.792-1.652l0.24-0.641h0.01
	l1.441-3.78h8.719l0.118,0.306l0.088,0.182l1.285,3.39h0.005l0.206,0.548c0.344,0.906,0.945,1.652,1.935,1.652h1.411
	c0.986,0,1.49-0.734,1.119-1.637L84.979,21.8z M76.729,14.367h-4.106c-0.493,0-0.743-0.369-0.561-0.818l2.27-5.483
	c0.188-0.448,0.491-0.448,0.677,0l2.278,5.483C77.474,13.998,77.223,14.367,76.729,14.367z M67.01,11.624
	c0.364-0.866,0.547-1.859,0.547-2.967c0-1.102-0.183-2.087-0.547-2.949c-0.361-0.86-0.908-1.597-1.638-2.188
	c-1.441-1.172-3.543-1.742-6.216-1.742h-1.149h-0.805h-3.826c-1.002,0-1.82,0.795-1.82,1.763v2.407v1.5v11.586v0.35v2.854
	c0,0.971,0.818,1.766,1.82,1.766h0.712c1,0,1.82-0.795,1.82-1.766v-2.854v-0.35v-3.486h3.25c2.672,0,4.771-0.566,6.214-1.734
	C66.096,13.228,66.647,12.489,67.01,11.624z M62.787,10.113c-0.165,0.412-0.406,0.754-0.727,1.038l0.002-0.005l-0.002,0.005
	c-0.646,0.56-1.606,0.868-2.902,0.868h-1.68H57.38h-0.562c-0.5,0-0.91-0.397-0.91-0.884V6.189c0-0.483,0.41-0.881,0.91-0.881h0.562
	h0.1h1.68c1.296,0,2.258,0.306,2.902,0.869c0.32,0.281,0.562,0.621,0.728,1.033c0.163,0.411,0.247,0.894,0.247,1.446
	C63.035,9.214,62.951,9.699,62.787,10.113z M23.653,3.3c-2.017-2.193-4.76-3.305-8.082-3.3c-3.338-0.005-6.088,1.106-8.107,3.3
	C5.977,4.904,5.038,6.938,4.65,9.34v0.007l-0.18,1.892v0.012c-0.015,0.239-0.027,0.487-0.027,0.755c0,0.398,0.019,0.787,0.042,1.162
	v0.011l0.245,1.896v0.006c0.425,2.221,1.329,4.119,2.732,5.639c2.021,2.181,4.771,3.291,8.107,3.285
	c3.321,0.006,6.062-1.104,8.082-3.299c2.005-2.174,3.014-5.115,3.014-8.696C26.667,8.419,25.662,5.473,23.653,3.3z M20.364,18.187
	c-0.597,0.738-1.282,1.277-2.07,1.639c-0.788,0.354-1.688,0.537-2.722,0.537c-1.036,0-1.938-0.184-2.729-0.537
	c-0.795-0.359-1.479-0.904-2.084-1.643c-0.704-0.863-1.204-1.939-1.508-3.211l-0.275-1.854c-0.011-0.111-0.018-0.348-0.021-0.6
	c-0.005-0.265-0.009-0.558-0.009-0.797c0-0.204,0.004-0.375,0.007-0.445l0.215-1.852c0.28-1.446,0.813-2.658,1.591-3.614
	l-0.003,0.005h0.003c0.604-0.743,1.289-1.282,2.084-1.641c0.792-0.356,1.693-0.539,2.729-0.539c1.032,0,1.934,0.183,2.722,0.539
	c0.789,0.358,1.475,0.897,2.07,1.636c1.195,1.477,1.812,3.551,1.812,6.192C22.177,14.644,21.559,16.71,20.364,18.187z
	 M15.513,10.666H0.889l1.375-2.665h14.624L15.513,10.666z M12.773,16H0l1.45-2.667h12.772L12.773,16z"/>
</svg>
