<?xml version="1.0" encoding="UTF-8" standalone="no"?>
<svg width="247px" height="76px" viewBox="0 0 247 76" version="1.1" xmlns="http://www.w3.org/2000/svg" xmlns:xlink="http://www.w3.org/1999/xlink" xmlns:sketch="http://www.bohemiancoding.com/sketch/ns">
    <!-- Generator: Sketch 3.1.1 (8761) - http://www.bohemiancoding.com/sketch -->
    <title>Slice 2</title>
    <desc>Created with Sketch.</desc>
    <defs></defs>
    <g id="Page-1" stroke="none" stroke-width="1" fill="none" fill-rule="evenodd" sketch:type="MSPage">
        <g id="Group-159" sketch:type="MSLayerGroup" transform="translate(3.000000, 10.000000)">
            <path d="M140.2102,37.7563 L139.8382,37.7563 C137.9267,37.7563 137.6614,37.2783 137.6614,34.8362 L137.6614,23.3149 L140.2102,23.3149 C145.7318,23.3149 146.7405,27.3492 146.7405,30.482 C146.7405,33.7208 145.7318,37.7563 140.2102,37.7563 L140.2102,37.7563 Z M117.8044,30.3753 L117.8044,23.3149 L119.9811,23.3149 C122.3706,23.3149 123.4326,24.9603 123.4326,26.8711 C123.4326,28.7299 122.3706,30.3753 119.9811,30.3753 L117.8044,30.3753 Z M140.0508,21.7215 L130.547,21.7215 L130.547,22.7302 C133.5199,22.7302 133.9979,23.367 133.9979,27.1371 L133.9979,33.9334 C133.9979,37.703 133.5199,38.3937 130.547,38.3937 C128.2642,38.075 126.7242,36.8536 124.6001,34.5175 L122.1586,31.8627 C125.4501,31.2787 127.2022,29.2079 127.2022,26.8711 C127.2022,23.9516 124.7067,21.7215 120.0345,21.7215 L110.6894,21.7215 L110.6894,22.7302 C113.6628,22.7302 114.1402,23.367 114.1402,27.1371 L114.1402,33.9334 C114.1402,37.703 113.6628,38.3937 110.6894,38.3937 L110.6894,39.4018 L121.2552,39.4018 L121.2552,38.3937 C118.2824,38.3937 117.8044,37.703 117.8044,33.9334 L117.8044,32.022 L118.7071,32.022 L124.6001,39.4018 L140.0508,39.4018 C147.6438,39.4018 150.9354,35.3669 150.9354,30.5347 C150.9354,25.7037 147.6438,21.7215 140.0508,21.7215 L140.0508,21.7215 Z" id="Fill-146" fill="#006B8A" sketch:type="MSShapeGroup"></path>
            <path d="M81.117,32.3408 L84.7805,21.5083 C85.8426,18.3761 85.3645,17.474 81.9664,17.474 L81.9664,16.4114 L91.9488,16.4114 L91.9488,17.474 C88.604,17.474 87.8073,18.2701 86.4799,22.1463 L80.4263,40.3045 L79.7369,40.3045 L74.3207,23.6857 L68.799,40.3045 L68.109,40.3045 L62.2154,22.1463 C60.9413,18.2701 60.0913,17.474 57.0118,17.474 L57.0118,16.4114 L68.799,16.4114 L68.799,17.474 C65.6662,17.474 64.8168,18.2168 65.9322,21.5083 L69.4891,32.3408 L74.852,16.4114 L75.8607,16.4114 L81.117,32.3408 Z" id="Fill-148" fill="#006B8A" sketch:type="MSShapeGroup"></path>
            <path d="M99.1682,22.6774 C94.2839,22.6774 92.5846,27.0837 92.5846,30.5345 C92.5846,34.0393 94.2839,38.3935 99.1682,38.3935 C104.1064,38.3935 105.8052,34.0393 105.8052,30.5345 C105.8052,27.0837 104.1064,22.6774 99.1682,22.6774 M99.1682,40.0923 C93.3279,40.0923 88.549,35.7914 88.549,30.5345 C88.549,25.3316 93.3279,21.0307 99.1682,21.0307 C105.0092,21.0307 109.7874,25.3316 109.7874,30.5345 C109.7874,35.7914 105.0092,40.0923 99.1682,40.0923" id="Fill-149" fill="#006B8A" sketch:type="MSShapeGroup"></path>
            <path d="M162.8805,18.323 L159.8543,18.323 L159.8543,27.5621 L162.8805,27.5621 C165.854,27.5621 167.2341,25.4913 167.2341,22.9958 C167.2341,20.4477 165.854,18.323 162.8805,18.323 M164.0486,38.34 L164.0486,39.402 L151.89,39.402 L151.89,38.34 C155.4475,38.34 156.0848,37.4379 156.0848,32.1277 L156.0848,23.6332 C156.0848,18.323 155.4475,17.4736 151.89,17.4736 L151.89,16.4115 L162.8805,16.4115 C168.3494,16.4115 171.3762,19.2257 171.3762,22.9958 C171.3762,26.6594 168.3494,29.5262 162.8805,29.5262 L159.8543,29.5262 L159.8543,32.1277 C159.8543,37.4379 160.4911,38.34 164.0486,38.34" id="Fill-150" fill="#3E3D3A" sketch:type="MSShapeGroup"></path>
            <path d="M179.712,30.3755 L179.712,23.3145 L181.8888,23.3145 C184.2776,23.3145 185.3403,24.9599 185.3403,26.8713 C185.3403,28.7301 184.2776,30.3755 181.8888,30.3755 L179.712,30.3755 Z M207.8508,34.4117 L207.5861,35.3671 C207.1081,37.1191 206.5234,37.7565 202.7539,37.7565 L202.0105,37.7565 C199.2503,37.7565 198.7723,37.1191 198.7723,33.349 L198.7723,30.9075 C202.9132,30.9075 203.2319,31.2782 203.2319,34.0397 L204.2413,34.0397 L204.2413,26.128 L203.2319,26.128 C203.2319,28.8894 202.9132,29.2608 198.7723,29.2608 L198.7723,23.3145 L201.6919,23.3145 C205.462,23.3145 206.046,23.9518 206.5234,25.7039 L206.7894,26.712 L207.6388,26.712 L207.2674,21.7217 L191.6573,21.7217 L191.6573,22.7298 C194.6302,22.7298 195.1082,23.3671 195.1082,27.1373 L195.1082,33.9336 C195.1082,37.382 194.7023,38.2508 192.358,38.3744 C190.1298,38.0344 188.6004,36.8187 186.5077,34.5177 L184.0649,31.8629 C187.3577,31.2782 189.1092,29.2081 189.1092,26.8713 C189.1092,23.9518 186.6143,21.7217 181.9421,21.7217 L172.597,21.7217 L172.597,22.7298 C175.5698,22.7298 176.0478,23.3671 176.0478,27.1373 L176.0478,33.9336 C176.0478,37.7032 175.5698,38.3932 172.597,38.3932 L172.597,39.4019 L183.1629,39.4019 L183.1629,38.3932 C180.19,38.3932 179.712,37.7032 179.712,33.9336 L179.712,32.0222 L180.6141,32.0222 L186.5077,39.4019 L208.3288,39.4019 L208.6475,34.4117 L207.8508,34.4117 Z" id="Fill-151" fill="#3E3D3A" sketch:type="MSShapeGroup"></path>
            <path d="M218.6294,40.0922 C216.5053,40.0922 214.6466,38.9774 213.8505,38.2868 C213.5852,38.5527 213.1072,39.3488 213.0011,40.0922 L211.9924,40.0922 L211.9924,32.7651 L213.0538,32.7651 C213.4792,36.2693 215.9213,38.3401 219.0541,38.3401 C220.7529,38.3401 222.1336,37.3847 222.1336,35.7919 C222.1336,34.4112 220.9122,33.3492 218.7354,32.3411 L215.7093,30.907 C213.5852,29.8977 211.9924,28.1456 211.9924,25.8095 C211.9924,23.2613 214.3819,21.0845 217.674,21.0845 C219.4261,21.0845 220.9122,21.7219 221.8149,22.4646 C222.0803,22.2526 222.3456,21.6679 222.5056,21.0306 L223.5137,21.0306 L223.5137,27.2968 L222.3989,27.2968 C222.027,24.8007 220.6469,22.73 217.8327,22.73 C216.346,22.73 214.9653,23.58 214.9653,24.9074 C214.9653,26.2875 216.0806,27.0309 218.6294,28.1989 L221.5489,29.6323 C224.0983,30.8531 225.1064,32.8185 225.1064,34.4112 C225.1064,37.7561 222.1863,40.0922 218.6294,40.0922" id="Fill-152" fill="#3E3D3A" sketch:type="MSShapeGroup"></path>
            <path d="M234.9819,40.0922 C232.8578,40.0922 230.9991,38.9774 230.203,38.2868 C229.9376,38.5527 229.4596,39.3488 229.3536,40.0922 L228.3449,40.0922 L228.3449,32.7651 L229.4063,32.7651 C229.8316,36.2693 232.2738,38.3401 235.4066,38.3401 C237.1053,38.3401 238.4861,37.3847 238.4861,35.7919 C238.4861,34.4112 237.2647,33.3492 235.0879,32.3411 L232.0617,30.907 C229.9376,29.8977 228.3449,28.1456 228.3449,25.8095 C228.3449,23.2613 230.7343,21.0845 234.0265,21.0845 C235.7786,21.0845 237.2647,21.7219 238.1674,22.4646 C238.4327,22.2526 238.6981,21.6679 238.8574,21.0306 L239.8662,21.0306 L239.8662,27.2968 L238.7514,27.2968 C238.3794,24.8007 236.9993,22.73 234.1852,22.73 C232.6985,22.73 231.3177,23.58 231.3177,24.9074 C231.3177,26.2875 232.4331,27.0309 234.9819,28.1989 L237.9014,29.6323 C240.4508,30.8531 241.4589,32.8185 241.4589,34.4112 C241.4589,37.7561 238.5388,40.0922 234.9819,40.0922" id="Fill-153" fill="#3E3D3A" sketch:type="MSShapeGroup"></path>
            <path d="M3.9147,27.549 C3.9147,36.8495 9.3197,44.8873 17.1573,48.6964 L5.9491,17.9862 C4.6456,20.9082 3.9147,24.142 3.9147,27.549" id="Fill-154" fill="#3E3D3A" sketch:type="MSShapeGroup"></path>
            <path d="M43.2744,26.3629 C43.2744,23.459 42.2312,21.4479 41.3366,19.8827 C40.146,17.9475 39.0287,16.3083 39.0287,14.373 C39.0287,12.2125 40.6673,10.202 42.9746,10.202 C43.0787,10.202 43.1778,10.2152 43.2794,10.2208 C39.099,6.3904 33.5297,4.0524 27.4121,4.0524 C19.2031,4.0524 11.9808,8.2636 7.7797,14.6428 C8.3311,14.6597 8.8505,14.671 9.2915,14.671 C11.7493,14.671 15.554,14.373 15.554,14.373 C16.8205,14.2984 16.9698,16.1584 15.7046,16.3083 C15.7046,16.3083 14.4311,16.4582 13.0153,16.5322 L21.5718,41.9843 L26.7146,26.5624 L23.0535,16.5322 C21.7883,16.4582 20.5895,16.3083 20.5895,16.3083 C19.3229,16.2343 19.4716,14.2984 20.7375,14.373 C20.7375,14.373 24.6181,14.671 26.9266,14.671 C29.3838,14.671 33.1891,14.373 33.1891,14.373 C34.4562,14.2984 34.6055,16.1584 33.3396,16.3083 C33.3396,16.3083 32.0643,16.4582 30.6503,16.5322 L39.1417,41.7911 L41.4853,33.959 C42.5016,30.7089 43.2744,28.3747 43.2744,26.3629" id="Fill-155" fill="#3E3D3A" sketch:type="MSShapeGroup"></path>
            <path d="M27.8243,29.6042 L20.7746,50.0904 C22.8792,50.7096 25.1056,51.0477 27.4122,51.0477 C30.1479,51.0477 32.7726,50.5747 35.2147,49.7159 C35.152,49.6149 35.0949,49.5083 35.0479,49.3922 L27.8243,29.6042 Z" id="Fill-156" fill="#3E3D3A" sketch:type="MSShapeGroup"></path>
            <path d="M48.0301,16.2757 C48.1311,17.0241 48.1882,17.8276 48.1882,18.6921 C48.1882,21.0759 47.7428,23.7564 46.4016,27.1081 L39.2245,47.8597 C46.2103,43.7859 50.9089,36.2174 50.9089,27.5491 C50.9089,23.4641 49.8657,19.6224 48.0301,16.2757" id="Fill-157" fill="#3E3D3A" sketch:type="MSShapeGroup"></path>
            <path d="M27.4121,53.6842 C13.0014,53.6842 1.2775,41.9603 1.2775,27.549 C1.2775,13.1383 13.0014,1.4151 27.4121,1.4151 C41.8221,1.4151 53.5454,13.1383 53.5454,27.549 C53.5454,41.9603 41.8221,53.6842 27.4121,53.6842 M27.4121,0.1592 C12.3095,0.1592 0.0216,12.4464 0.0216,27.549 C0.0216,42.6535 12.3095,54.9401 27.4121,54.9401 C42.514,54.9401 54.8038,42.6535 54.8038,27.549 C54.8038,12.4464 42.514,0.1592 27.4121,0.1592" id="Fill-158" fill="#3E3D3A" sketch:type="MSShapeGroup"></path>
        </g>
    </g>
</svg>