<?xml version="1.0" encoding="UTF-8" standalone="no"?>
<svg width="29px" height="22px" viewBox="0 0 29 22" version="1.1" xmlns="http://www.w3.org/2000/svg" xmlns:xlink="http://www.w3.org/1999/xlink" xmlns:sketch="http://www.bohemiancoding.com/sketch/ns">
    <!-- Generator: Sketch 3.1.1 (8761) - http://www.bohemiancoding.com/sketch -->
    <title>Slice 2</title>
    <desc>Created with Sketch.</desc>
    <defs></defs>
    <g id="Page-1" stroke="none" stroke-width="1" fill="none" fill-rule="evenodd" sketch:type="MSPage">
        <path d="M7.121,15.2421 L11.242,15.2421 C11.179,13.666 10.82,12.63 9.338,12.2221 C8.004,11.858 7.915,11.7101 7.797,11.2591 C8.371,10.7801 8.835,9.8421 8.835,9.0611 C8.835,7.9561 7.975,7 7.121,7 C6.266,7 5.407,7.9561 5.407,9.0611 C5.407,9.8421 5.871,10.7801 6.446,11.2591 C6.328,11.7101 6.239,11.858 4.904,12.2221 C3.422,12.63 3.064,13.666 3,15.2421 L7.121,15.2421 Z" id="Fill-163" fill="#FF3131" sketch:type="MSShapeGroup"></path>
        <path d="M2.214,1.559 C1.301,1.559 0.559,2.3011 0.559,3.214 L0.559,18.042 C0.559,18.9551 1.301,19.696 2.214,19.696 L26.35,19.696 C27.262,19.696 28.005,18.9551 28.005,18.042 L28.005,3.214 C28.005,2.3011 27.262,1.559 26.35,1.559 L2.214,1.559 Z M26.35,20.256 L2.214,20.256 C0.993,20.256 0,19.2631 0,18.042 L0,3.214 C0,1.9931 0.993,1 2.214,1 L26.35,1 C27.57,1 28.564,1.9931 28.564,3.214 L28.564,18.042 C28.564,19.2631 27.57,20.256 26.35,20.256 L26.35,20.256 Z" id="Fill-164" fill="#FF3131" sketch:type="MSShapeGroup"></path>
        <path d="M2.28,15.707 L11.709,15.707 L11.709,6.279 L2.28,6.279 L2.28,15.707 Z M11.849,15.987 L2.14,15.987 C2.062,15.987 2,15.925 2,15.8471 L2,6.139 C2,6.062 2.062,6 2.14,6 L11.849,6 C11.926,6 11.988,6.062 11.988,6.139 L11.988,15.8471 C11.988,15.925 11.926,15.987 11.849,15.987 L11.849,15.987 Z" id="Fill-165" fill="#FF3131" sketch:type="MSShapeGroup"></path>
        <path d="M25.75,8.838 L15.419,8.838 C15.187,8.838 15,8.65 15,8.419 C15,8.187 15.187,8 15.419,8 L25.75,8 C25.981,8 26.169,8.187 26.169,8.419 C26.169,8.65 25.981,8.838 25.75,8.838" id="Fill-166" fill="#FF3131" sketch:type="MSShapeGroup"></path>
        <path d="M25.75,10.8381 L15.419,10.8381 C15.187,10.8381 15,10.651 15,10.4191 C15,10.1881 15.187,10 15.419,10 L25.75,10 C25.981,10 26.169,10.1881 26.169,10.4191 C26.169,10.651 25.981,10.8381 25.75,10.8381" id="Fill-167" fill="#FF3131" sketch:type="MSShapeGroup"></path>
        <path d="M25.75,13.8381 L15.419,13.8381 C15.187,13.8381 15,13.6511 15,13.4191 C15,13.1881 15.187,13 15.419,13 L25.75,13 C25.981,13 26.169,13.1881 26.169,13.4191 C26.169,13.6511 25.981,13.8381 25.75,13.8381" id="Fill-168" fill="#FF3131" sketch:type="MSShapeGroup"></path>
        <path d="M15.854,3.885 L11.442,3.885 C11.198,3.885 11,3.687 11,3.443 C11,3.198 11.198,3 11.442,3 L15.854,3 C16.097,3 16.295,3.198 16.295,3.443 C16.295,3.687 16.097,3.885 15.854,3.885" id="Fill-169" fill="#FF3131" sketch:type="MSShapeGroup"></path>
    </g>
</svg>