<?xml version="1.0" encoding="utf-8"?>
<!-- Generator: Adobe Illustrator 16.0.4, SVG Export Plug-In . SVG Version: 6.00 Build 0)  -->
<!DOCTYPE svg PUBLIC "-//W3C//DTD SVG 1.1//EN" "http://www.w3.org/Graphics/SVG/1.1/DTD/svg11.dtd">
<svg version="1.1" id="Layer_1" xmlns="http://www.w3.org/2000/svg" xmlns:xlink="http://www.w3.org/1999/xlink" x="0px" y="0px"
	 width="500px" height="500px" viewBox="0 0 500 500" enable-background="new 0 0 500 500" xml:space="preserve">
<path fill="#353558" d="M156.25,31.25h-125v125h125V31.25z M187.5,0L187.5,0v187.5H0V0H187.5z M62.5,62.5H125V125H62.5V62.5z
	 M468.75,31.25h-125v125h125V31.25z M500,0L500,0v187.5H312.5V0H500z M375,62.5h62.5V125H375V62.5z M156.25,343.75h-125v125h125
	V343.75z M187.5,312.5L187.5,312.5V500H0V312.5H187.5z M62.5,375H125v62.5H62.5V375z M218.75,0H250v31.25h-31.25V0z M250,31.25
	h31.25V62.5H250V31.25z M218.75,62.5H250v31.25h-31.25V62.5z M250,93.75h31.25V125H250V93.75z M218.75,125H250v31.25h-31.25V125z
	 M250,156.25h31.25v31.25H250V156.25z M218.75,187.5H250v31.25h-31.25V187.5z M218.75,250H250v31.25h-31.25V250z M250,281.25h31.25
	v31.25H250V281.25z M218.75,312.5H250v31.25h-31.25V312.5z M250,343.75h31.25V375H250V343.75z M218.75,375H250v31.25h-31.25V375z
	 M250,406.25h31.25v31.25H250V406.25z M218.75,437.5H250v31.25h-31.25V437.5z M250,468.75h31.25V500H250V468.75z M468.75,250H500
	v31.25h-31.25V250z M31.25,250H62.5v31.25H31.25V250z M62.5,218.75h31.25V250H62.5V218.75z M0,218.75h31.25V250H0V218.75z
	 M125,218.75h31.25V250H125V218.75z M156.25,250h31.25v31.25h-31.25V250z M187.5,218.75h31.25V250H187.5V218.75z M281.25,250h31.25
	v31.25h-31.25V250z M312.5,218.75h31.25V250H312.5V218.75z M343.75,250H375v31.25h-31.25V250z M375,218.75h31.25V250H375V218.75z
	 M406.25,250h31.25v31.25h-31.25V250z M437.5,218.75h31.25V250H437.5V218.75z M468.75,312.5H500v31.25h-31.25V312.5z M281.25,312.5
	h31.25v31.25h-31.25V312.5z M312.5,281.25h31.25v31.25H312.5V281.25z M343.75,312.5H375v31.25h-31.25V312.5z M406.25,312.5h31.25
	v31.25h-31.25V312.5z M437.5,281.25h31.25v31.25H437.5V281.25z M468.75,375H500v31.25h-31.25V375z M281.25,375h31.25v31.25h-31.25
	V375z M312.5,343.75h31.25V375H312.5V343.75z M375,343.75h31.25V375H375V343.75z M406.25,375h31.25v31.25h-31.25V375z M437.5,343.75
	h31.25V375H437.5V343.75z M468.75,437.5H500v31.25h-31.25V437.5z M312.5,406.25h31.25v31.25H312.5V406.25z M343.75,437.5H375v31.25
	h-31.25V437.5z M375,406.25h31.25v31.25H375V406.25z M406.25,437.5h31.25v31.25h-31.25V437.5z M312.5,468.75h31.25V500H312.5V468.75
	z M375,468.75h31.25V500H375V468.75z M437.5,468.75h31.25V500H437.5V468.75z"/>
</svg>
