<?xml version="1.0" encoding="utf-8"?>
<!-- Generator: Adobe Illustrator 16.0.4, SVG Export Plug-In . SVG Version: 6.00 Build 0)  -->
<!DOCTYPE svg PUBLIC "-//W3C//DTD SVG 1.1//EN" "http://www.w3.org/Graphics/SVG/1.1/DTD/svg11.dtd">
<svg version="1.1" id="Layer_1" xmlns="http://www.w3.org/2000/svg" xmlns:xlink="http://www.w3.org/1999/xlink" x="0px" y="0px"
	 width="500px" height="500px" viewBox="0 0 500 500" enable-background="new 0 0 500 500" xml:space="preserve">
<path fill="#353558" d="M249.99,0C113.276-0.095,2.422,111.88,2.285,249.891C2.422,388.105,113.276,500.049,249.99,500
	c136.768,0.054,247.617-111.895,247.725-250.105C497.607,111.88,386.758-0.095,249.99,0z M249.972,468.778
	c-119.605,0-216.581-97.958-216.486-218.943c-0.116-120.69,96.881-218.634,216.486-218.601
	c119.666-0.033,216.658,97.911,216.792,218.641C466.63,370.814,369.638,468.778,249.972,468.778z M237,265.981
	c0-12.528,4.133-19.836,15.108-26.955l22.302-15.173c7.707-5.253,12.624-13.649,13.486-23.036
	c0.807-8.786-1.972-17.267-7.437-22.689c-7.561-7.294-18.486-11.45-30.028-11.45c-3.135,0-6.524,0.31-9.642,0.92
	c-31.707,6.51-31.791,32.83-31.791,46.969V217h-29.08c0.466-30,4.949-43.063,20.034-59.468c12.29-13.55,28.706-20.309,48.813-20.309
	c6.223,0,12.732,0.732,19.347,2.078c21.551,4.541,51.966,26.695,52.007,61.65c-0.034,29.945-21.733,43.296-33.391,50.461
	c-1.397,0.859-2.461,1.639-3.527,2.34C272.193,260.957,266,270.11,267,280.941v25.561l-30,0.135V265.981z M237,363v-31h30v31H237z"
	/>
</svg>
