<?xml version="1.0" encoding="UTF-8" standalone="no"?>
<svg width="27px" height="21px" viewBox="0 0 27 21" version="1.1" xmlns="http://www.w3.org/2000/svg" xmlns:xlink="http://www.w3.org/1999/xlink" xmlns:sketch="http://www.bohemiancoding.com/sketch/ns">
    <!-- Generator: Sketch 3.1.1 (8761) - http://www.bohemiancoding.com/sketch -->
    <title>Slice 2</title>
    <desc>Created with Sketch.</desc>
    <defs></defs>
    <g id="Page-1" stroke="none" stroke-width="1" fill="none" fill-rule="evenodd" sketch:type="MSPage">
        <path d="M24.375,15.274 C24.375,15.2989 24.315,15.3659 24.287,15.3659 L1.921,15.3659 C1.894,15.3659 1.833,15.2989 1.833,15.274 L1.833,1.5869 C1.833,1.5559 1.899,1.526 1.921,1.526 L24.287,1.526 C24.309,1.526 24.375,1.5559 24.375,1.5869 L24.375,15.274 Z M25.521,0 L0.69,0 C0.325,0 0,0.2629 0,0.6279 L0,16.199 C0,16.564 0.325,16.892 0.69,16.892 L10.992,16.892 L10.992,19.576 L7.495,19.7919 L7.495,20.22 C7.495,20.237 7.522,20.255 7.542,20.255 L7.647,20.255 L18.591,20.255 C18.611,20.255 18.639,20.2359 18.639,20.219 L18.639,19.7919 L15.168,19.576 L15.168,16.892 L25.521,16.892 C25.886,16.892 26.152,16.564 26.152,16.199 L26.152,0.6279 C26.152,0.2629 25.886,0 25.521,0 L25.521,0 Z" id="Fill-161" fill="#D21C1C" sketch:type="MSShapeGroup"></path>
    </g>
</svg>