<?xml version="1.0" encoding="utf-8"?>
<!-- Generator: Adobe Illustrator 16.0.4, SVG Export Plug-In . SVG Version: 6.00 Build 0)  -->
<!DOCTYPE svg PUBLIC "-//W3C//DTD SVG 1.1//EN" "http://www.w3.org/Graphics/SVG/1.1/DTD/svg11.dtd">
<svg version="1.1" id="Layer_1" xmlns="http://www.w3.org/2000/svg" xmlns:xlink="http://www.w3.org/1999/xlink" x="0px" y="0px"
	 width="88.514px" height="24.002px" viewBox="0 0 88.514 24.002" enable-background="new 0 0 88.514 24.002" xml:space="preserve">
<path fill="#353558" d="M20.203,7.657h-6.012c0-0.986-0.114-1.646-0.345-1.984c-0.359-0.5-1.345-0.748-2.961-0.748
	c-1.569,0-2.608,0.143-3.117,0.432c-0.506,0.289-0.76,0.914-0.76,1.878c0,0.875,0.224,1.449,0.676,1.726
	c0.321,0.195,0.75,0.312,1.281,0.347l1.213,0.086c2.596,0.172,4.219,0.293,4.866,0.36c2.054,0.209,3.542,0.754,4.467,1.642
	c0.727,0.688,1.16,1.591,1.299,2.707c0.081,0.666,0.121,1.42,0.121,2.26c0,1.934-0.184,3.35-0.554,4.244
	c-0.668,1.646-2.171,2.686-4.511,3.119c-0.979,0.188-2.479,0.276-4.494,0.276c-3.367,0-5.712-0.198-7.036-0.603
	c-1.624-0.493-2.696-1.493-3.214-2.998c-0.29-0.838-0.435-2.231-0.435-4.186H6.7c0,0.219,0.001,0.383,0.001,0.496
	c0,1.043,0.298,1.713,0.896,2.014c0.416,0.205,0.917,0.312,1.504,0.327h2.208c1.126,0,1.849-0.06,2.157-0.175
	c0.552-0.219,0.915-0.566,1.088-1.053c0.092-0.299,0.138-0.684,0.138-1.152c0-1.059-0.386-1.699-1.155-1.932
	c-0.287-0.094-1.628-0.221-4.021-0.381c-1.921-0.137-3.255-0.27-4.001-0.396c-1.968-0.368-3.279-1.125-3.933-2.273
	c-0.575-0.979-0.864-2.454-0.864-4.43c0-1.506,0.157-2.713,0.467-3.619C1.496,2.74,1.997,2.05,2.689,1.576
	c1.014-0.722,2.311-1.147,3.888-1.272c1.312-0.115,2.771-0.175,4.369-0.175c2.524,0,4.32,0.146,5.393,0.435
	c2.615,0.703,3.923,2.67,3.923,5.903C20.261,6.729,20.241,7.128,20.203,7.657z M46.628,24.001v-24h9.414h1.478h1.146
	c1.649,0,2.91,0.137,3.772,0.404c1.979,0.619,3.31,1.891,3.987,3.811c0.351,1.008,0.527,2.523,0.527,4.549
	c0,2.433-0.194,4.185-0.579,5.248c-0.771,2.105-2.361,3.32-4.762,3.635c-0.279,0.047-1.481,0.088-3.602,0.121l-1.072,0.037h-3.852
	v6.195H46.628z M53.087,12.237h4.024c1.277-0.045,2.056-0.143,2.334-0.297c0.383-0.209,0.639-0.631,0.767-1.262
	c0.082-0.421,0.124-1.043,0.124-1.869c0-1.019-0.081-1.771-0.244-2.261C59.86,5.86,59.303,5.44,58.421,5.286
	c-0.172-0.022-0.59-0.035-1.25-0.035h-4.083L53.087,12.237L53.087,12.237z M80.74,19.854h-8.639L70.943,24h-6.682L71.47,0h9.745
	l7.298,24h-6.541L80.74,19.854z M79.459,15.179L76.432,4.774l-2.937,10.405H79.459L79.459,15.179z M37.712,3.378
	c2.666,0,5.043,1.229,6.604,3.15l1.395-2.986c-2.179-2.059-5.144-3.326-8.411-3.326c-5.089,0-9.444,3.074-11.229,7.426h-2.716
	l-1.604,3.437h3.493c-0.025,0.317-0.042,0.639-0.042,0.963c0,0.396,0.02,0.783,0.06,1.168h-1.755l-1.604,3.438h4.251
	c1.84,4.242,6.138,7.221,11.146,7.221c2.524,0,4.867-0.758,6.808-2.049v-4.215c-1.562,1.778-3.847,2.903-6.395,2.903
	c-2.979,0-5.595-1.534-7.121-3.86h8.9l1.604-3.438H29.284c-0.062-0.412-0.096-0.836-0.096-1.267c0-0.293,0.017-0.582,0.044-0.864
	H42.09l1.601-3.437H30.343C31.819,5.093,34.567,3.378,37.712,3.378z"/>
</svg>
