<?xml version="1.0" encoding="utf-8"?>
<!-- Generator: Adobe Illustrator 16.0.4, SVG Export Plug-In . SVG Version: 6.00 Build 0)  -->
<!DOCTYPE svg PUBLIC "-//W3C//DTD SVG 1.1//EN" "http://www.w3.org/Graphics/SVG/1.1/DTD/svg11.dtd">
<svg version="1.1" id="Layer_1" xmlns="http://www.w3.org/2000/svg" xmlns:xlink="http://www.w3.org/1999/xlink" x="0px" y="0px"
	 width="226.771px" height="77.457px" viewBox="0 0 226.771 77.457" enable-background="new 0 0 226.771 77.457"
	 xml:space="preserve">
<g id="Guides" display="none">
	<path display="inline" fill="#862165" d="M-9.464,0.137c5.141,0,9.308-4.165,9.308-9.302c0-5.139-4.167-9.308-9.308-9.308
		c-5.136,0-9.301,4.169-9.301,9.308C-18.764-4.028-14.599,0.137-9.464,0.137z"/>
	<path display="inline" fill="#862165" d="M236.228,0.137c5.142,0,9.31-4.164,9.31-9.301c0-5.139-4.168-9.309-9.31-9.309
		c-5.135,0-9.299,4.17-9.299,9.309C226.929-4.027,231.093,0.137,236.228,0.137z"/>
	<path display="inline" fill="#862165" d="M-9.465,96.156c5.141,0,9.309-4.164,9.309-9.302c0-5.14-4.168-9.308-9.309-9.308
		c-5.136,0-9.3,4.168-9.3,9.308C-18.764,91.992-14.6,96.156-9.465,96.156z"/>
	<path display="inline" fill="#862165" d="M236.228,96.156c5.142,0,9.31-4.166,9.31-9.303c0-5.139-4.168-9.307-9.31-9.307
		c-5.135,0-9.299,4.168-9.299,9.307C226.929,91.99,231.093,96.156,236.228,96.156z"/>
</g>
<g id="primary_logo">
	<path fill="#353558" d="M180.334,7.612L199.2,4.234v72.441h-18.865L180.334,7.612L180.334,7.612z M207.888,7.612v69.063h18.884
		V4.234L207.888,7.612z M153.455,76.675h18.882V23.691h-18.882V76.675z M28.7,31.184c-2.387-0.157-7.911-0.513-7.911-5.486
		c0-6.001,7.953-6.001,10.936-6.001c5.246,0,12.038,1.549,16.889,3c0,0,2.706,0.954,5.01,1.932l0.215,0.058v-0.218V8.251
		l-0.294-0.086C47.819,6.162,41.162,4.234,28.82,4.234C7.54,4.234,0,16.631,0,27.251c0,6.122,2.624,20.53,26.995,22.192
		c2.065,0.127,7.549,0.441,7.549,5.582c0,4.243-4.489,6.745-12.038,6.745c-8.274,0-16.301-2.11-21.175-4.11v16.926
		c7.298,1.914,15.524,2.869,25.167,2.869c20.807,0,30.126-11.729,30.126-23.354C56.623,40.919,46.195,32.356,28.7,31.184z
		 M142.816,22.916c-17.447,0.56-26.305,8.388-26.305,23.949v29.811h19.035V52.367c0-9.318,1.22-13.312,12.275-13.694V23.189
		C145.962,22.793,142.816,22.916,142.816,22.916z M91.604,23.631c-0.419,1.056-3.441,9.594-10.753,18.445V4.234L61.37,8.085v68.59
		H80.85V55.473c5.643,8.462,8.428,21.202,8.428,21.202h23.333c-2.308-9.596-12.403-27.287-12.403-27.287
		c9.062-11.488,13.041-23.729,13.674-25.757H91.604z M162.891,18.609c5.142,0,9.309-4.165,9.309-9.302
		c0-5.139-4.167-9.307-9.309-9.307c-5.135,0-9.3,4.168-9.3,9.307C153.591,14.444,157.756,18.609,162.891,18.609z"/>
</g>
</svg>
