<?xml version="1.0" encoding="utf-8"?>
<!-- Generator: Adobe Illustrator 16.0.4, SVG Export Plug-In . SVG Version: 6.00 Build 0)  -->
<!DOCTYPE svg PUBLIC "-//W3C//DTD SVG 1.1//EN" "http://www.w3.org/Graphics/SVG/1.1/DTD/svg11.dtd">
<svg version="1.1" id="Layer_1" xmlns="http://www.w3.org/2000/svg" xmlns:xlink="http://www.w3.org/1999/xlink" x="0px" y="0px"
	 width="76.646px" height="13.818px" viewBox="0 0 76.646 13.818" enable-background="new 0 0 76.646 13.818" xml:space="preserve">
<path fill="#353558" d="M63.229,0c0.263,0.211,0.487,0.449,0.68,0.729c0.484,0.702,0.669,1.543,0.561,2.502h2.479l-3.739,10.376
	h3.736L70.683,3.23h4.8L76.646,0H63.229z M59.416,4.338c-0.398,1.088-1.118,1.761-2.482,1.761h-0.007h-0.704l1.207-3.291h0.688
	C59.373,2.809,59.843,3.18,59.416,4.338 M63.041,1.334C62.427,0.439,61.177,0.002,59.219,0h-4.532l-4.903,13.604h4.166l1.782-4.787
	c0.086,0.193,1.139,4.787,1.139,4.787h4.379c0,0-0.797-3.373-1.382-4.735c-0.151-0.35-0.308-0.741-0.519-1.069
	c1.234-0.465,3.027-1.461,3.771-3.479C63.573,3.072,63.547,2.07,63.041,1.334 M21.188-0.01h-7.723c-1.217,0-2.397,0-3.46,0.545
	c-1.06,0.543-1.993,1.629-2.715,3.803c-0.154,0.471-0.24,0.871-0.25,1.221C7.032,5.91,7.091,6.207,7.223,6.465
	C7.385,6.781,7.646,7.08,7.975,7.33s0.723,0.453,1.146,0.586c0.018,0.004,0.24,0.068,0.51,0.146
	c0.271,0.078,0.583,0.172,0.783,0.229c0.116,0.037,0.245,0.084,0.362,0.153c0.115,0.07,0.22,0.164,0.285,0.293
	c0.043,0.086,0.064,0.181,0.067,0.281c0.003,0.103-0.014,0.211-0.053,0.324c-0.1,0.297-0.249,0.484-0.535,0.604
	c-0.284,0.115-0.705,0.154-1.339,0.158H1.256L0,13.592h8.506c0.803,0,2.266,0,3.669-0.604c1.406-0.604,2.757-1.812,3.325-4.223
	c0.215-0.908,0.149-1.646-0.202-2.228c-0.353-0.58-0.99-1.003-1.92-1.271c0,0-0.208-0.062-0.454-0.135
	c-0.241-0.07-0.522-0.15-0.669-0.191c-0.235-0.067-0.42-0.209-0.526-0.387c-0.107-0.176-0.142-0.393-0.079-0.609
	c0.062-0.229,0.218-0.409,0.438-0.534c0.227-0.125,0.521-0.193,0.861-0.193h4.944c0.035-0.051,0.063-0.104,0.101-0.155
	C18.897,1.773,19.991,0.729,21.188-0.01 M24.815,6.729c-1.154,3.19-1.992,3.996-3.252,3.996h-0.002
	c-1.229-0.002-1.659-0.787-0.511-3.963c0.857-2.371,1.971-3.888,3.313-3.888h0.001C25.645,2.877,25.938,3.625,24.815,6.729
	 M28.775,1.266c-0.673-0.974-1.825-1.468-3.427-1.47c-1.051,0-2.065,0.244-3.021,0.696c-1.365,0.652-2.602,1.742-3.611,3.188
	C18.061,4.617,17.5,5.7,17.059,6.916c-0.828,2.295-0.819,4.153,0.027,5.381c0.48,0.692,1.479,1.521,3.511,1.521h0.008
	c3.699,0,6.462-2.449,8.21-7.278C29.279,5.26,29.89,2.875,28.775,1.266 M43.561-0.01h-7.872c-2.2,0-3.836,1.125-4.61,3.229
	l-3.738,10.372h4.097l1.92-5.334l3.619,0.005l1.027-2.855l-3.605-0.004l0.58-1.652c0.122-0.297,0.411-0.533,0.835-0.533
	c0.233,0,2.891,0.003,4.267,0.003c0.035-0.052,0.067-0.104,0.104-0.155C41.083,1.773,42.361,0.729,43.561-0.01 M47.139,6.729
	c-1.152,3.19-1.99,3.996-3.25,3.996h-0.006c-1.229-0.002-1.656-0.787-0.509-3.963c0.856-2.371,1.972-3.888,3.313-3.888h0.002
	C47.971,2.877,48.264,3.625,47.139,6.729 M51.1,1.266c-0.676-0.974-1.824-1.468-3.43-1.47c-1.048,0-2.064,0.244-3.018,0.696
	c-1.366,0.652-2.604,1.742-3.612,3.188c-0.654,0.938-1.216,2.021-1.657,3.235c-0.827,2.295-0.817,4.153,0.03,5.381
	c0.479,0.692,1.479,1.521,3.51,1.521h0.009c3.697,0,6.463-2.448,8.209-7.277C51.604,5.26,52.213,2.875,51.1,1.266"/>
</svg>
