<?xml version="1.0" encoding="utf-8"?>
<!-- Generator: Adobe Illustrator 16.0.4, SVG Export Plug-In . SVG Version: 6.00 Build 0)  -->
<!DOCTYPE svg PUBLIC "-//W3C//DTD SVG 1.1//EN" "http://www.w3.org/Graphics/SVG/1.1/DTD/svg11.dtd">
<svg version="1.1" id="Your_Icon" xmlns="http://www.w3.org/2000/svg" xmlns:xlink="http://www.w3.org/1999/xlink" x="0px" y="0px"
	 width="99.996px" height="100px" viewBox="0 0 99.996 100" enable-background="new 0 0 99.996 100" xml:space="preserve">
<path fill="#353558" d="M39.999,0h20c1.838,0,3.336,1.492,3.336,3.331v20.001c0,1.838-1.498,3.331-3.336,3.331h-20
	c-1.842,0-3.333-1.492-3.333-3.331V3.331C36.666,1.492,38.156,0,39.999,0z"/>
<path fill="#353558" d="M76.664,0h20.004c1.838,0,3.328,1.492,3.328,3.331v20.001c0,1.838-1.49,3.331-3.328,3.331H76.664
	c-1.838,0-3.336-1.492-3.336-3.331V3.331C73.328,1.492,74.826,0,76.664,0z"/>
<path fill="#353558" d="M3.336,0h19.996c1.842,0,3.336,1.492,3.336,3.331v20.001c0,1.838-1.494,3.331-3.336,3.331H3.336
	C1.49,26.663,0,25.17,0,23.332V3.331C0,1.492,1.49,0,3.336,0z"/>
<path fill="#353558" d="M39.999,36.662h20c1.838,0,3.336,1.491,3.336,3.334v20c0,1.84-1.498,3.331-3.336,3.331h-20
	c-1.842,0-3.333-1.491-3.333-3.331v-20C36.666,38.153,38.156,36.662,39.999,36.662z"/>
<path fill="#353558" d="M76.664,36.662h20.004c1.838,0,3.328,1.491,3.328,3.334v20c0,1.84-1.49,3.331-3.328,3.331H76.664
	c-1.838,0-3.336-1.491-3.336-3.331v-20C73.328,38.153,74.826,36.662,76.664,36.662z"/>
<path fill="#353558" d="M3.336,36.662h19.996c1.842,0,3.336,1.491,3.336,3.334v20c0,1.84-1.494,3.331-3.336,3.331H3.336
	C1.49,63.327,0,61.836,0,59.996v-20C0,38.153,1.49,36.662,3.336,36.662z"/>
<path fill="#353558" d="M39.999,73.332h20c1.838,0,3.336,1.49,3.336,3.329v20.003c0,1.842-1.498,3.336-3.336,3.336h-20
	c-1.842,0-3.333-1.494-3.333-3.336V76.661C36.666,74.822,38.156,73.332,39.999,73.332z"/>
<path fill="#353558" d="M76.664,73.332h20.004c1.838,0,3.328,1.49,3.328,3.329v20.003c0,1.842-1.49,3.336-3.328,3.336H76.664
	c-1.838,0-3.336-1.494-3.336-3.336V76.661C73.328,74.822,74.826,73.332,76.664,73.332z"/>
<path fill="#353558" d="M3.336,73.332h19.996c1.842,0,3.336,1.49,3.336,3.329v20.003c0,1.842-1.494,3.336-3.336,3.336H3.336
	C1.49,100,0,98.506,0,96.664V76.661C0,74.822,1.49,73.332,3.336,73.332z"/>
</svg>
