<?xml version="1.0" encoding="utf-8"?>
<!-- Generator: Adobe Illustrator 16.0.4, SVG Export Plug-In . SVG Version: 6.00 Build 0)  -->
<!DOCTYPE svg PUBLIC "-//W3C//DTD SVG 1.1//EN" "http://www.w3.org/Graphics/SVG/1.1/DTD/svg11.dtd">
<svg version="1.1" id="Layer_1" xmlns="http://www.w3.org/2000/svg" xmlns:xlink="http://www.w3.org/1999/xlink" x="0px" y="0px"
	 width="42.058px" height="10.321px" viewBox="3.143 18.81 42.058 10.321" enable-background="new 3.143 18.81 42.058 10.321"
	 xml:space="preserve">
<path fill="#353558" d="M28.611,19.111c-0.49,0.161-0.625,0.771-0.941,1.82l-1.75,6.064c-0.336,1.209-0.33,1.567-0.133,1.828
	l0.002,0.118h-2.926l-0.001-0.118c0.46-0.229,0.555-0.556,0.915-1.746l1.749-6.04c0.332-1.182,0.414-1.613,0.162-1.924v-0.117
	l2.922-0.002L28.611,19.111z"/>
<path fill="#353558" d="M3.755,26.41c0.178,1.417,0.932,2.122,2.558,2.023c1.137-0.067,1.713-0.879,1.717-1.74
	c0.005-0.711-0.435-1.312-1.235-1.881L6.321,24.5c-0.993-0.697-1.881-1.435-1.873-2.69c0.011-1.784,1.47-2.909,3.415-2.995
	c0.566-0.026,1.279,0.051,1.827,0.193c0.284,0.074,0.67,0.201,0.827,0.254l-0.457,1.742l-0.131,0.002
	c-0.248-1.066-0.707-1.664-2.178-1.545c-1.035,0.084-1.525,0.914-1.529,1.625c-0.004,0.741,0.436,1.206,1.271,1.744l0.472,0.297
	c1.088,0.707,2.019,1.455,2.01,2.777c-0.014,1.979-1.564,3.225-3.846,3.227c-1.314,0-2.529-0.441-2.986-0.846
	c0.021-0.182,0.272-1.025,0.488-1.869L3.755,26.41z"/>
<path fill="#353558" d="M37.186,18.995c-0.134,0.394-0.375,1.15-0.567,1.749H36.5c-0.467-1.211-1.59-1.053-2.387-1.053l-0.084-0.002
	c-0.553,0-0.703,0.127-0.844,0.641l-0.888,3.224h0.298c1.354,0,2.295,0.124,2.684-0.403h0.117L34.88,24.97h-0.116
	c-0.254-0.809-1.207-0.722-2.396-0.724h-0.281l-0.797,2.745c-0.293,1.021-0.392,1.549-0.138,1.821l0.002,0.131l-2.926,0.005v-0.122
	c0.508-0.199,0.612-0.656,0.951-1.803l1.758-6.096c0.321-1.107,0.383-1.5,0.136-1.816l-0.003-0.118L37.186,18.995L37.186,18.995z"/>
<path fill="#353558" d="M45.201,18.997c-0.195,0.565-0.365,1.123-0.58,1.748h-0.119c-0.45-1.197-1.661-1.054-2.188-1.054h-0.129
	l-2.108,7.313c-0.281,1.084-0.396,1.541-0.129,1.814l-0.003,0.125h-2.858l-0.002-0.125c0.498-0.232,0.61-0.73,0.935-1.832
	l2.115-7.297h-0.208c-0.688,0-1.776-0.105-2.575,1.054h-0.133c0.18-0.507,0.377-1.124,0.596-1.748L45.201,18.997L45.201,18.997z"/>
<path fill="#353558" d="M24.281,19.118c-0.424,0.3-0.669,0.799-1.183,1.756c-0.865,1.613-3.904,7.631-4.135,8.073h-1.096
	l-0.607-6.271h-0.047l-3.4,6.271h-0.908l-0.835-8.009c-0.104-0.939-0.157-1.554-0.469-1.829l0.003-0.114h2.83l-0.001,0.114
	c-0.345,0.37-0.429,0.772-0.349,1.708l0.474,4.764h0.03l3.547-6.498h0.799l0.613,6.511h0.041c0.766-1.47,1.851-3.572,2.524-4.899
	c0.593-1.162,0.361-1.426,0.283-1.576v-0.125l1.886,0.004V19.118z"/>
</svg>
