<?xml version="1.0" encoding="utf-8"?>
<!-- Generator: Adobe Illustrator 16.0.4, SVG Export Plug-In . SVG Version: 6.00 Build 0)  -->
<!DOCTYPE svg PUBLIC "-//W3C//DTD SVG 1.1//EN" "http://www.w3.org/Graphics/SVG/1.1/DTD/svg11.dtd">
<svg version="1.1" id="Layer_1" xmlns="http://www.w3.org/2000/svg" xmlns:xlink="http://www.w3.org/1999/xlink" x="0px" y="0px"
	 width="95px" height="95px" viewBox="2.5 -6.949 95 95" enable-background="new 2.5 -6.949 95 95" xml:space="preserve">
<g>
	<path fill="#353558" d="M14.092,24.837c2.524-2.657,0.664-7.705,2.391-9.564l7.04-7.041C26.844,5.044,36.01-5.583,60.319,0.793
		l-0.133,3.189c0,0-11.957-0.267-20.458,8.236c0,0-3.455,3.32-0.398,6.508l2.79,2.657l-9.697,9.962l-2.656-2.79
		c-1.86-1.727-5.713-1.594-9.034,1.728c-1.594,1.595-2.391,3.322-2.125,4.252c1.596,1.594,1.596,4.118,0,5.711l-1.461,1.461
		c-1.594,1.595-3.984,1.462-5.579-0.132l-7.97-7.971c-1.46-1.461-1.727-3.853-0.133-5.446l1.462-1.461
		c1.46-1.461,4.117-1.727,5.711-0.133C11.701,26.432,13.029,26.032,14.092,24.837z"/>
	<g>
		<path fill="#353558" d="M79.807-1.021L77.42,1.366L16.623,62.162l-2.388,2.388l2.388,2.387l13.036,13.037l2.388,2.386l2.388-2.386
			l60.797-60.798l2.388-2.388l-2.388-2.387L82.195,1.366L79.807-1.021z M79.808,3.754l13.036,13.033L78.366,31.265l-5.473-5.473
			l-1.492,1.493l5.473,5.473l-5.351,5.349l-5.472-5.473l-1.493,1.493l5.473,5.472l-5.348,5.349l-5.473-5.473l-1.492,1.491
			l5.473,5.473l-5.348,5.35l-5.473-5.474l-1.494,1.493l5.475,5.473l-5.35,5.35l-5.471-5.475l-1.494,1.494l5.474,5.473l-5.35,5.348
			l-5.473-5.473l-1.493,1.492l5.475,5.474l-5.35,5.348l-5.472-5.472l-1.495,1.491l5.474,5.472l-3.78,3.781L19.011,64.549
			L79.808,3.754z"/>
		<path fill="#353558" d="M83.688,20.146c1.872-1.872,1.872-4.918,0-6.79c-1.872-1.873-4.917-1.873-6.79,0
			c-1.872,1.871-1.873,4.918,0,6.79C78.771,22.019,81.817,22.019,83.688,20.146z M81.897,18.356c-0.887,0.887-2.324,0.887-3.21,0
			c-0.887-0.887-0.886-2.323,0-3.208c0.886-0.887,2.323-0.887,3.21,0C82.782,16.033,82.782,17.47,81.897,18.356z"/>
	</g>
	<path fill="#353558" d="M47.567,46.356l-13.02-12.885l9.831-9.83l13.019,13.417l9.564,9.83l22.98,21.386
		c1.992,1.994,1.992,5.313-0.133,7.307l-5.048,5.181c-1.86,2.125-5.313,1.993-7.173,0L57.663,56.717L47.567,46.356z"/>
</g>
</svg>
