<?xml version="1.0" encoding="utf-8"?>
<!-- Generator: Adobe Illustrator 16.0.4, SVG Export Plug-In . SVG Version: 6.00 Build 0)  -->
<!DOCTYPE svg PUBLIC "-//W3C//DTD SVG 1.1//EN" "http://www.w3.org/Graphics/SVG/1.1/DTD/svg11.dtd">
<svg version="1.1" xmlns="http://www.w3.org/2000/svg" xmlns:xlink="http://www.w3.org/1999/xlink" x="0px" y="0px" width="500px"
	 height="500px" viewBox="0 0 500 500" enable-background="new 0 0 500 500" xml:space="preserve">
<g id="google" display="none">
	<path display="inline" fill="#FFFFFF" d="M271.979,38.291c0,0-98.114,0-130.829,0c-58.655,0-113.861,44.434-113.861,95.901
		c0,52.597,39.993,95.047,99.67,95.047c4.15,0,8.179-0.076,12.116-0.366c-3.875,7.416-6.638,15.763-6.638,24.43
		c0,14.633,7.858,26.474,17.807,36.148c-7.507,0-14.771,0.213-22.675,0.213C54.923,289.68-1,335.944-1,383.934
		c0,47.24,61.294,76.812,133.957,76.812c82.825,0,128.555-46.997,128.555-94.254c0-37.888-11.184-60.577-45.745-85.037
		c-11.826-8.361-34.439-28.732-34.439-40.68c0-14.008,3.998-20.936,25.101-37.415c21.652-16.906,36.957-40.68,36.957-68.313
		c0-32.913-14.648-64.987-42.175-75.577h41.504L271.979,38.291z M226.28,358.344c1.022,4.364,1.602,8.881,1.602,13.474
		c0,38.192-24.597,68.024-95.185,68.024c-50.231,0-86.486-31.785-86.486-69.978c0-37.414,44.982-68.573,95.184-68.023
		c11.719,0.122,22.644,2.015,32.562,5.219C201.209,326.025,220.771,336.738,226.28,358.344z M145.881,215.918
		c-33.691-1.022-65.734-37.705-71.563-81.97c-5.798-44.266,16.785-78.14,50.491-77.133c33.707,1.007,65.735,36.529,71.564,80.795
		C202.186,181.876,179.572,216.926,145.881,215.918z M405.25,132.041v-93.75H374v93.75h-93.75v31.25H374v93.75h31.25v-93.75H499
		v-31.25H405.25z"/>
</g>
<g id="facebook" display="none">
	<path display="inline" fill="#FFFFFF" d="M289.353,500h-93.689V250h-62.5v-86.151l62.5-0.03l-0.092-50.751
		C195.557,42.771,214.614,0,297.409,0h68.939v86.167h-43.076c-32.242,0-33.798,12.039-33.798,34.515l-0.122,43.137h77.484
		l-9.141,86.151L289.413,250L289.353,500z"/>
</g>
<g id="twitter">
	<path fill="#353558" d="M500,94.93c-18.387,8.148-38.177,13.671-58.928,16.158c21.178-12.71,37.443-32.805,45.118-56.745
		c-19.836,11.749-41.777,20.293-65.138,24.886c-18.723-19.942-45.379-32.393-74.873-32.393
		c-56.654,0-102.581,45.927-102.581,102.582c0,8.041,0.915,15.869,2.655,23.36c-85.249-4.272-160.838-45.119-211.42-107.174
		c-8.834,15.152-13.9,32.76-13.9,51.573c0,35.598,18.112,66.984,45.638,85.385c-16.814-0.534-32.622-5.142-46.461-12.816
		c-0.015,0.412-0.015,0.854-0.015,1.281c0,49.712,35.354,91.153,82.272,100.599c-8.605,2.35-17.669,3.585-27.022,3.585
		c-6.606,0-13.03-0.641-19.302-1.831c13.062,40.74,50.933,70.402,95.822,71.227c-35.109,27.511-79.343,43.913-127.392,43.913
		c-8.285,0-16.448-0.488-24.474-1.449c45.394,29.112,99.316,46.095,157.252,46.095c188.669,0,291.846-156.306,291.846-291.861
		c0-4.456-0.092-8.88-0.29-13.275C468.857,133.548,486.252,115.482,500,94.93z"/>
</g>
</svg>
