<?xml version="1.0" encoding="utf-8"?>
<!-- Generator: Adobe Illustrator 16.0.4, SVG Export Plug-In . SVG Version: 6.00 Build 0)  -->
<!DOCTYPE svg PUBLIC "-//W3C//DTD SVG 1.1//EN" "http://www.w3.org/Graphics/SVG/1.1/DTD/svg11.dtd">
<svg version="1.1" id="Your_Icon" xmlns="http://www.w3.org/2000/svg" xmlns:xlink="http://www.w3.org/1999/xlink" x="0px" y="0px"
	 width="100px" height="100px" viewBox="0 0 100 100" enable-background="new 0 0 100 100" xml:space="preserve">
<g id="XMLID_1_">
	<g>
		<g id="XMLID_2_">
			<g>
				<path fill="#353558" d="M41.059,52.121h0.844c-0.228-0.195-0.457-0.377-0.661-0.594c-6.68-6.03-11.776-17.761-11.776-27.245
					C29.465,10.875,40.443,0,50.829,0c10.373,0,20.804,11.593,20.804,25c0,9.485-5.631,20.85-12.607,26.674
					c1.437,5.475,2.509,7.264,18.697,11.699c17.99,4.936,22.332,17.498,22.276,36.627H0c-0.057-19.129,4.297-31.691,22.288-36.627
					C38.031,59.053,39.315,57.24,41.059,52.121z"/>
				<path fill="#353558" d="M41.903,52.121h-0.844c0.069-0.195,0.125-0.387,0.183-0.594C41.446,51.744,41.675,51.926,41.903,52.121z
					"/>
			</g>
		</g>
	</g>
</g>
</svg>
