<?xml version="1.0" encoding="utf-8"?>
<!-- Generator: Adobe Illustrator 16.0.4, SVG Export Plug-In . SVG Version: 6.00 Build 0)  -->
<!DOCTYPE svg PUBLIC "-//W3C//DTD SVG 1.1//EN" "http://www.w3.org/Graphics/SVG/1.1/DTD/svg11.dtd">
<svg version="1.1" id="Layer_1" xmlns="http://www.w3.org/2000/svg" xmlns:xlink="http://www.w3.org/1999/xlink" x="0px" y="0px"
	 width="100px" height="100px" viewBox="0 0 100 100" enable-background="new 0 0 100 100" xml:space="preserve">
<g id="Captions">
</g>
<path fill="#353558" d="M53.709,1.536c-0.106-0.107-0.214-0.204-0.317-0.292c-0.058-0.048-0.12-0.094-0.179-0.139
	c-0.03-0.024-0.058-0.044-0.088-0.067C52.251,0.39,51.171,0.003,49.999,0c-1.171,0.003-2.25,0.39-3.123,1.036
	c-0.041,0.029-0.08,0.058-0.119,0.089c-0.047,0.038-0.097,0.074-0.144,0.116c-0.112,0.091-0.224,0.188-0.334,0.299L22.917,24.905
	c-2.053,2.051-2.053,5.381,0,7.437c2.054,2.055,5.384,2.055,7.437,0L44.74,17.958l0.001,55.363c0,2.907,2.354,5.261,5.257,5.261
	c2.904,0,5.257-2.354,5.257-5.261V17.958l14.385,14.384c2.057,2.055,5.386,2.055,7.44,0c2.056-2.053,2.054-5.382,0-7.437
	L53.721,1.544C53.718,1.544,53.715,1.538,53.709,1.536z"/>
<path fill="#353558" d="M89.185,100.002h-78.37c-2.99,0-5.414-2.425-5.414-5.414s2.424-5.414,5.414-5.414h78.37
	c2.99,0,5.414,2.425,5.414,5.414S92.175,100.002,89.185,100.002z"/>
</svg>
