<?xml version="1.0" standalone="no"?>
<!DOCTYPE svg PUBLIC "-//W3C//DTD SVG 1.1//EN" "http://www.w3.org/Graphics/SVG/1.1/DTD/svg11.dtd">
<svg xmlns="http://www.w3.org/2000/svg">
<metadata>Generated by Fontastic.me</metadata>
<defs>
<font id="untitled-font-2" horiz-adv-x="512">
<font-face font-family="untitled-font-2" units-per-em="512" ascent="480" descent="-32"/>
<missing-glyph horiz-adv-x="512" />

<glyph unicode="&#114;" d="M255 160c-53 0-95 43-95 96 0 53 42 96 95 96 53 0 97-43 97-96 0-53-44-96-97-96z m257 64l0 64-76 32c-3 6-5 12-8 18l31 77-45 45-76-31c-6 2-12 5-18 7l-32 76-64 0-32-76c-7-2-13-4-19-7l-76 30-45-45 31-75c-3-7-5-13-8-19l-75-32 0-64 75-32c3-6 5-13 8-19l-30-76 45-45 76 31c6-3 12-5 18-7l32-76 64 0 32 76c6 2 12 5 18 7l77-30 45 45-31 76c2 6 4 12 7 18z"/>
<glyph unicode="&#75;" d="M275 504c-1 1-1 1-2 2 0 0 0 0-1 0 0 0 0 1 0 1-4 3-10 5-16 5-6 0-12-2-16-5 0 0 0-1-1-1 0 0 0 0 0 0-1-1-1-1-2-2l-120-120c-10-10-10-27 0-38 11-10 28-10 38 0l74 74 0-283c0-15 12-27 27-27 15 0 27 12 27 27l0 283 74-74c10-10 27-10 38 0 10 11 10 28 0 38l-120 120c0 0 0 0 0 0z m182-504l-402 0c-15 0-27 12-27 28 0 15 12 27 27 27l402 0c15 0 27-12 27-27 0-16-12-28-27-28z"/>
<glyph unicode="&#76;" d="M294 14c25 56 51 112 76 168 3 5 5 10 7 15 1 1 2 0 2 0 2 0 4 0 6 0 15 0 31 0 46 0 18 0 35 0 53 0 5 0 10 1 15 3 10 6 15 17 13 28-2 11-11 20-22 21-13 1-27 0-40 0-27 0-55 0-82 0-8 0-15 0-23 0-1 0-1 0-1-1-1-1-2-3-3-5-7-16-14-32-22-48-5-11-10-23-15-34-1-1 0 2-1 2 0 3-1 5-1 8-3 9-5 19-7 28-7 31-14 62-21 93-12 52-25 105-37 157-3 16-6 32-10 47-1 0-1 1-1 1-1 1-1 2-3 3-1 0-3 0-4-1-1 0-1-1-1-2-1 0-1 0-1 0-4-11-7-22-11-32-21-64-42-127-63-190-2-7-5-15-7-23-1-1-1-3-3-3-9 0-18 0-27 0-21 0-42 0-62 0-8 0-16 1-24-1-11-2-19-12-20-23-1-12 6-22 17-26 8-3 15-2 23-2 26 0 53 0 80 0 13 0 25 0 38 0 4 0 8 0 11 0 1 0 2-1 3 0 6 18 12 36 18 53 7 22 14 45 22 67 0 1 1 3 2 5 0 1 0-1 0-1 0-2 1-4 1-6 5-21 10-42 15-63 11-47 22-95 32-142 5-21 10-42 15-63 3-11 5-22 8-33 0-1 1-2 2-3 3-1 5-1 7 3z"/>
<glyph unicode="&#77;" d="M280 136l-48 0 0 96-96 0 0 48 96 0 0 96 48 0 0-96 96 0 0-48-96 0z m-24-135c-141 0-255 114-255 255 0 141 114 255 255 255 141 0 255-114 255-255 0-141-114-255-255-255z m0 478c-123 0-223-100-223-223 0-123 100-223 223-223 123 0 223 100 223 223 0 123-100 223-223 223z"/>
<glyph unicode="&#78;" d="M478 384l-94 94-128 34-128-34-94-94-34-128 34-128 94-94 128-34 128 34 94 94 34 128z m-222-351c-123 0-223 100-223 223 0 123 100 223 223 223 123 0 223-100 223-223 0-123-100-223-223-223z m0 424c-110 0-198-89-198-198 0-110 88-199 198-199 110 0 198 89 198 199 0 109-88 198-198 198z m26-303l0 0 0-25c0-1-1-1-2-1l-22 0c-1 0-1 0-1 1l0 25-10 0 0-25c0-1 0-1-1-1l-22 0c-1 0-2 0-2 1l0 25-50 0c-1 0-2 1-2 2l0 22c0 1 1 1 2 1l18 0 0 153-18 0c-1 0-2 1-2 2l0 22c0 1 1 1 2 1l50 0 0 26c0 1 1 1 2 1l22 0c1 0 1 0 1-1l0-26 10 0 0 26c0 0 0 1 1 1l22 0c1 0 2-1 2-1l0-26c34 0 56-21 56-52 0-25-15-40-31-46 20-6 35-27 35-49 0-34-24-56-60-56z m29 147c0 18-12 33-35 33l-60 0 0-65 60 0c23 0 35 14 35 32z m-33-54l-62 0 0-69 62 0c23 0 36 13 36 34 0 19-12 35-36 35z"/>
<glyph unicode="&#79;" d="M0 473l512 0 0-434-512 0z m39-79l0-315 434 0 0 315z m40-59l59 0 59-79-59-79-59 0 59 79z"/>
<glyph unicode="&#80;" d="M256 256l0-246-213 123z m213 123l-213-123-213 123 213 123z m0-246l-213-123 0 246z m-461 305l42 24m0-48l0 48m-42 24l42-24m206-462c-2 0-3 0-5 1l-213 123c-3 2-5 5-5 8 0 1 0 1 0 1l0 246c0 4 2 7 5 9l213 123c3 1 7 1 10 0l213-123c3-2 5-5 5-9 0-3-2-7-5-8l-199-115 199-115c3-1 5-5 5-8 0-4-2-7-5-9l-213-123c-2-1-3-1-5-1z m-204 139l204-118 194 112-199 115c-3 1-5 5-5 8 0 3 2 7 5 8l199 115-194 112-204-118z"/>
<glyph unicode="&#81;" d="M256 256l0-246-213 123z m213 123l-213-123-213 123 213 123z m0-246l-213-123 0 246z m-461 305l42 24m0-48l0 48m-42 24l42-24m206-462c-2 0-3 0-5 1l-213 123c-3 2-5 5-5 8 0 1 0 1 0 1l0 246c0 4 2 7 5 9l213 123c3 1 7 1 10 0l213-123c3-2 5-5 5-9 0-3-2-7-5-8l-199-115 199-115c3-1 5-5 5-8 0-4-2-7-5-9l-213-123c-2-1-3-1-5-1z m-204 139l204-118 194 112-199 115c-3 1-5 5-5 8 0 3 2 7 5 8l199 115-194 112-204-118z"/>
<glyph unicode="&#82;" d="M237 118c1-1 1-2 2-2 0 0 0 0 1-1 0 0 0 0 0 0 4-3 10-5 16-5 6 0 12 2 16 5 0 0 0 0 1 0 0 1 0 1 0 1 1 0 1 1 2 2l120 119c10 11 10 28 0 38-11 11-28 11-38 0l-74-73 0 283c0 15-12 27-27 27-15 0-27-12-27-27l0-283-74 73c-10 11-27 11-38 0-10-10-10-27 0-38l120-119c0 0 0 0 0 0z m220-118l-402 0c-15 0-27 12-27 28 0 15 12 27 27 27l402 0c15 0 27-12 27-27 0-16-12-28-27-28z"/>
<glyph unicode="&#83;" d="M296 0l-96 0 0 256-64 0 0 88 64 0 0 52c0 72 20 116 105 116l70 0 0-88-44 0c-33 0-35-13-35-36l0-44 80 0-10-88-70 0z"/>
<glyph unicode="&#84;" d="M279 473c0 0-101 0-134 0-61 0-117-46-117-98 0-54 41-98 102-98 4 0 8 0 12 1-4-8-6-17-6-25 0-15 8-27 18-37-8 0-15-1-23-1-75 0-132-47-132-96 0-49 63-79 137-79 85 0 132 48 132 97 0 39-12 62-47 87-12 8-35 29-35 41 0 15 4 22 25 39 23 17 38 41 38 70 0 33-15 66-43 77l43 0z m-47-328c1-4 1-9 1-14 0-39-25-69-97-69-52 0-89 32-89 71 0 39 46 70 98 70 12 0 23-2 33-5 28-20 48-31 54-53z m-83 146c-34 1-67 39-73 84-6 45 17 80 52 79 34-1 67-38 73-83 6-45-17-81-52-80z m266 86l0 96-32 0 0-96-96 0 0-32 96 0 0-96 32 0 0 96 96 0 0 32z"/>
<glyph unicode="&#85;" d="M256 0c-141 0-256 115-256 256 0 141 115 256 256 256 141 0 256-115 256-256 0-141-115-256-256-256z m0 480c-124 0-224-100-224-224 0-124 100-224 224-224 124 0 224 100 224 224 0 124-100 224-224 224z m2-307c8 19 71 115 28 141-25 15-59 5-85-12l-2-17c16 6 31 6 36-7 12-30-28-83-38-111-30-75 40-83 90-53l2 18c-27-7-46 2-31 41z m-6 207c0-19 16-35 35-35 20 0 35 16 35 35 0 19-15 35-35 35-19 0-35-16-35-35z"/>
<glyph unicode="&#86;" d="M410 307l0 51c0 85-69 154-154 154-85 0-154-69-154-154l0-51-51 0 0-307 410 0 0 307z m-154-205c-28 0-51 23-51 52 0 28 23 51 51 51 28 0 51-23 51-51 0-29-23-52-51-52z m-102 205l0 51c0 57 46 103 102 103 56 0 102-46 102-103l0-51z"/>
<glyph unicode="&#87;" d="M256 189l0 0 0 0-256 182 0-279 512 0 0 279z m253 231l-506 0 253-180z"/>
<glyph unicode="&#88;" d="M469 255l-65 193-403-135 86-257 0-56 425 0 0 255z m-382-78c-8 23-16 46-23 69 29 10 45 42 35 72 75 24 149 49 224 74 10-29 42-45 71-35 11-32 22-64 32-95-5-2-9-4-14-7l-102 0c0 35-29 64-65 64-36 0-65-29-65-64l-93 0z m387-96c-31 0-57-24-57-53l-236 0c0 29-25 53-56 53 0 31 0 62 0 93 31 0 56 24 56 53 79 0 158 0 236 0 0-29 26-53 57-53 0-31 0-62 0-93z m-100 211c0-9-7-16-15-16-9 0-16 7-16 16 0 8 7 15 16 15 8 0 15-7 15-15z m-10-165c0-36-29-65-65-65-36 0-65 29-65 65 0 36 29 65 65 65 36 0 65-29 65-65z m-169 0c0-8-7-15-15-15-9 0-16 7-16 15 0 9 7 16 16 16 8 0 15-7 15-16z m240 0c0-8-7-15-16-15-9 0-15 7-15 15 0 9 6 16 15 16 9 0 16-7 16-16z"/>
<glyph unicode="&#89;" d="M512 415c-19-9-39-14-60-17 21 13 38 34 46 58-20-12-43-20-67-25-19 20-46 33-77 33-58 0-105-47-105-105 0-8 1-16 3-24-87 4-165 46-216 110-9-16-15-34-15-53 0-36 19-69 47-87-17 0-33 5-47 13 0-1 0-1 0-2 0-51 36-93 84-103-9-2-18-3-28-3-7 0-13 0-20 2 14-42 53-73 99-73-36-29-82-45-131-45-8 0-17 0-25 1 46-30 102-47 161-47 193 0 299 160 299 299 0 4 0 9 0 13 20 15 38 34 52 55z"/>
<glyph unicode="&#90;" d="M310 313c-6-2-7-9-11-22l-21-74c-4-15-4-19-2-22l0-2-36 0 0 2c6 3 7 7 12 21l21 74c4 14 5 19 2 23l0 2 35 0z m-303-89c3-17 12-26 32-24 14 0 21 10 21 21 0 9-6 16-15 23l-6 4c-12 8-23 17-23 32 0 22 18 36 42 37 6 0 15-1 22-2 3-1 8-3 10-4l-6-21-1 0c-3 13-9 20-27 19-12-1-18-11-18-20-1-9 5-14 15-21l6-4c13-8 24-17 24-34 0-24-19-39-47-39-16 0-30 6-36 10 0 3 3 13 6 23z m408 91c-2-5-5-14-7-22l-1 0c-6 15-20 13-29 13l-1 0c-7 0-9-1-11-8l-11-39 4 0c17 0 28-1 33 5l1 0-6-22-2 0c-3 10-14 9-29 9l-3 0-10-34c-3-12-5-19-2-22l0-2-35 0 0 2c6 2 7 8 11 22l22 74c4 14 4 18 1 22l0 2z m98 0c-3-7-5-14-7-22l-2 0c-5 15-20 13-26 13l-2 0-26-89c-3-13-5-19-1-22l0-2-35 0 0 2c6 3 7 9 11 22l26 89-3 0c-8 0-21 2-31-13l-2 0c3 7 5 14 8 22z m-255-2c-5-3-8-10-15-21-10-20-47-93-50-99l-14 0-7 77 0 0-42-77-11 0-10 98c-1 11-2 19-6 22l0 2 35 0 0-2c-5-4-6-9-5-21l6-58 1 0 43 80 10 0 7-80 0 0c10 18 23 44 31 60 7 14 5 17 4 19l0 2 23 0z"/>
<glyph unicode="&#48;" d="M420 303c2-2 4-3 5-5 3-5 4-11 4-17l16 0-25-69 25 0 25 69 32 0 8 22z m-25-29c-3-8-7-12-16-12l-5 0 8 22 4 0c9 0 12-3 9-10m24 20c-4 6-12 9-25 9l-30 0-33-91 28 0 12 32c0-1 7-32 7-32l29 0c0 0-5 23-9 32-1 2-2 4-3 7 8 3 20 9 25 23 3 8 3 15-1 20m-278 9l-51 0c-9 0-16 0-23-4-8-4-14-11-19-25-1-3-1-6-1-8 0-3 0-5 1-6 1-3 3-5 5-6 2-2 5-3 8-4 0 0 1-1 3-1 2-1 4-1 5-2 1 0 2 0 3-1 0 0 1-1 2-2 0 0 0-1 0-1 0-1 0-2 0-3-1-2-2-3-4-4-2 0-5-1-9-1l-53 0-8-23 57 0c5 0 15 0 24 4 9 4 18 12 22 28 1 6 1 11-1 15-3 4-7 7-13 9 0 0-1 0-3 0-2 1-4 1-5 2-1 0-2 1-3 2-1 1-1 3-1 4 1 2 2 3 3 4 2 1 4 1 6 1l33 0c0 0 0 1 1 1 6 9 13 16 21 21m24-45c-8-21-13-27-22-27l0 0c-8 0-11 5-3 27 6 15 13 25 22 25l0 0c9 0 10-5 3-25m26 36c-4 7-12 10-22 10-7 0-14-2-21-5-9-4-17-11-24-21-4-6-8-13-11-21-5-16-5-28 1-36 3-5 9-10 23-10l0 0c25 0 43 16 55 48 3 9 7 24-1 35m99 9l-53 0c-14 0-25-8-30-22l-25-69 27 0 13 36 24 0 7 19-24 0 4 11c0 2 2 3 5 3 2 0 19 0 29 0 0 0 0 1 0 1 6 9 15 16 23 21m23-45c-7-21-13-27-21-27l0 0c-8 0-11 5-4 27 6 15 14 25 22 25l0 0c9 0 11-5 3-25m27 36c-5 7-12 10-23 10-7 0-14-2-20-5-9-4-17-11-24-21-4-6-8-13-11-21-6-16-6-28 0-36 3-5 10-10 23-10l0 0c25 0 43 16 55 48 3 9 7 24 0 35"/>
<glyph unicode="&#49;" d="M407 326l42 7 0-163-42 0z m62 0l0-156 42 0 0 163z m-123-156l43 0 0 119-43 0z m-281 102c-6 1-18 2-18 13 0 13 18 13 25 13 11 0 27-3 38-6 0 0 6-3 11-5l0 0 0 37 0 0c-13 5-28 9-56 9-48 0-65-28-65-52 0-13 6-46 61-50 5 0 17-1 17-12 0-10-10-15-27-15-19 0-37 4-48 9l0-38c16-5 35-7 57-7 47 0 68 27 68 53 0 30-24 49-63 51z m257 19c-39-1-59-19-59-54l0-67 43 0 0 55c0 21 2 30 27 31l0 35c-4 0-11 0-11 0z m-115-1c-1-3-8-22-25-42l0 85-44-8 0-155 44 0 0 48c13-19 19-48 19-48l53 0c-5 22-28 61-28 61 20 26 29 54 31 59z m160 11c12 0 21 9 21 21 0 11-9 21-21 21-11 0-21-10-21-21 0-12 10-21 21-21z"/>
<glyph unicode="&#50;" d="M512 224l0 64-76 32c-3 6-5 12-8 18l31 77-45 45-76-31c-6 2-12 5-18 7l-32 76-64 0-32-76c-7-2-13-4-19-7l-76 30-45-45 31-75c-3-7-5-13-8-19l-75-33 0-64 75-31c3-6 5-13 8-19l-30-76 45-45 76 31c6-3 12-5 18-7l33-76 64 0 31 76c6 2 12 5 18 7l77-30 45 45-31 76c2 6 4 12 7 18z m-256-64c-54 0-96 43-96 96 0 53 42 96 96 96 53 0 96-43 96-96 0-53-43-96-96-96z"/>
<glyph unicode="&#51;" d="M116 281l-34 0c0 6-1 9-2 11-2 3-8 5-17 5-9 0-15-1-18-3-3-1-5-5-5-11 0-5 2-8 4-10 2-1 5-1 8-2l7 0c14-1 24-2 28-2 11-1 20-4 25-10 4-3 7-9 8-15 0-4 0-8 0-13 0-11-1-19-3-25-4-9-12-15-26-17-5-2-14-2-26-2-19 0-32 1-40 3-9 3-16 9-19 18-1 4-2 13-2 24l35 0c0-2 0-2 0-3 0-6 1-10 5-12 2-1 5-1 8-2l13 0c7 0 11 1 12 1 4 2 6 4 7 6 0 2 1 4 1 7 0 6-3 10-7 11-2 1-9 2-23 2-11 1-19 2-23 3-12 2-19 6-23 13-3 5-5 14-5 25 0 9 1 16 3 21 2 5 4 9 8 12 6 4 14 7 23 7 7 1 16 1 25 1 14 0 25-1 31-2 15-4 23-16 23-34 0-2-1-4-1-7z m152-94l0 138 69 0c10 0 17-1 22-2 12-4 19-11 23-22 2-6 3-15 3-26 0-14-1-24-3-31-5-12-14-19-28-20-1-1-8-1-20-1l-6 0-23 0 0-36z m37 68l24 0c7 0 11 0 13 1 2 2 4 4 4 8 1 2 1 6 1 10 0 6 0 11-1 13-2 4-5 7-10 8-1 0-3 0-7 0l-24 0z m159-44l-49 0-7-24-38 0 41 138 56 0 42-138-37 0z m-7 27l-17 60-17-60z m-240 68c15 0 29-7 38-19l8 18c-13 12-30 19-48 19-30 0-55-18-65-43l-16 0-9-20 20 0c0-2 0-3 0-5 0-3 0-5 0-7l-10 0-9-20 24 0c11-24 36-41 65-41 14 0 28 4 39 12l0 24c-9-10-22-17-37-17-17 0-32 9-41 22l51 0 9 20-68 0c0 2 0 5 0 7 0 2 0 4 0 5l74 0 9 20-76 0c8 15 24 25 42 25z"/>
<glyph unicode="&#52;" d="M512 512l-128-512-128 96-96-96 0 160 256 256-320-192-96 64z"/>
<glyph unicode="&#53;" d="M256 512c-140 0-254-115-254-256 0-141 114-256 254-256 140 0 254 115 254 256 0 141-114 256-254 256z m0-480c-123 0-222 100-222 224 0 124 99 224 222 224 123 0 222-100 222-224 0-124-99-224-222-224z m-13 208c0 12 4 20 15 27l23 16c8 5 13 14 14 23 1 9-2 18-8 24-8 7-19 11-31 11-3 0-6 0-9-1-33-6-33-33-33-48l0-2-30 0c1 31 5 44 21 61 12 14 29 20 50 20 6 0 13 0 20-2 22-4 53-27 53-63 0-30-22-44-34-51-2-1-3-2-4-3-11-7-18-17-17-28l0-26-30 0z m0-100l0 32 30 0 0-32z"/>
<glyph unicode="&#54;" d="M160 480l-128 0 0-128 128 0z m32 32l0-192-192 0 0 192z m-128-64l64 0 0-64-64 0z m416 32l-128 0 0-128 128 0z m32 32l0-192-192 0 0 192z m-128-64l64 0 0-64-64 0z m-224-288l-128 0 0-128 128 0z m32 32l0-192-192 0 0 192z m-128-64l64 0 0-64-64 0z m160 384l32 0 0-32-32 0z m32-32l32 0 0-32-32 0z m-32-32l32 0 0-32-32 0z m32-32l32 0 0-32-32 0z m-32-32l32 0 0-32-32 0z m32-32l32 0 0-32-32 0z m-32-32l32 0 0-32-32 0z m0-64l32 0 0-32-32 0z m32-32l32 0 0-32-32 0z m-32-32l32 0 0-32-32 0z m32-32l32 0 0-32-32 0z m-32-32l32 0 0-32-32 0z m32-32l32 0 0-32-32 0z m-32-32l32 0 0-32-32 0z m32-32l32 0 0-32-32 0z m224 224l32 0 0-32-32 0z m-448 0l32 0 0-32-32 0z m32 32l32 0 0-32-32 0z m-64 0l32 0 0-32-32 0z m128 0l32 0 0-32-32 0z m32-32l32 0 0-32-32 0z m32 32l32 0 0-32-32 0z m96-32l32 0 0-32-32 0z m32 32l32 0 0-32-32 0z m32-32l32 0 0-32-32 0z m32 32l32 0 0-32-32 0z m32-32l32 0 0-32-32 0z m32 32l32 0 0-32-32 0z m32-96l32 0 0-32-32 0z m-192 0l32 0 0-32-32 0z m32 32l32 0 0-32-32 0z m32-32l32 0 0-32-32 0z m64 0l32 0 0-32-32 0z m32 32l32 0 0-32-32 0z m32-96l32 0 0-32-32 0z m-192 0l32 0 0-32-32 0z m32 32l32 0 0-32-32 0z m64 0l32 0 0-32-32 0z m32-32l32 0 0-32-32 0z m32 32l32 0 0-32-32 0z m32-96l32 0 0-32-32 0z m-160 32l32 0 0-32-32 0z m32-32l32 0 0-32-32 0z m32 32l32 0 0-32-32 0z m32-32l32 0 0-32-32 0z m-96-32l32 0 0-32-32 0z m64 0l32 0 0-32-32 0z m64 0l32 0 0-32-32 0z"/>
<glyph unicode="&#55;" d="M508 308l-8 0c-5 0-8-3-11-7l-8-11c0 0 0 0 0 0l-17-24-14 21c0 0-1 0-1 0l-9 14c-3 4-7 7-12 7l-7 0c-5 0-9-3-6-7l10-14c0 0 0 0 0 0l28-39 0-44c0-5 4-9 9-9l4 0c5 0 9 4 9 9l0 44 30 42c0 0 0 0 0 0l8 11c3 4 0 7-5 7z m-328-53l29 27c0 0 20 19 20 19 3 3-1 7-6 7l-10 0c-5 0-8-2-11-6l-21-20c0 0 0 0 0 0l-14-13 0 15 0 0c0 0 0 0 0 0l0 15c0 5-4 9-8 9l-4 0c-5 0-9-4-9-9l0-15c0 0 0 0 0 0l0 0 0-80c0-5 4-9 9-9l4 0c4 0 8 4 8 9l0 36 20-20 0 0 18-19c4-4 6-6 11-6l11 0c5 0 7 5 3 9z m255-49l0 0-37 90 0 0-1 4c-2 5-8 8-13 8l-3 0c-6 0-11-3-13-8l-2-4 0 0-36-90 0 0-2-3c-2-5 1-8 6-8l8 0c5 0 8 3 9 8l2 3 0 0 7 20 45 0 0-2 1-1 6-17 0 0 1-3c2-5 5-8 10-8l8 0c5 0 7 3 5 8z m-42 38l-21 0c-3 0-4 2-3 4l12 28c1 2 2 2 3 0l12-28c1-2-1-4-3-4z m-50 14c2 4 3 9 3 15 0 6-1 11-3 15-2 5-5 8-8 11-8 6-18 9-32 9l-30 0c-5 0-9-4-9-9l0-95c0-5 4-9 9-9l4 0c5 0 9 4 9 9l0 34 17 0c14 0 24 3 32 9 3 3 6 6 8 11z m-22 8c0-2-2-4-3-6l0 0 0 0c-4-3-8-4-15-4l-12 0c-3 0-5 2-5 4l0 26c0 2 2 4 5 4l12 0c7 0 11-1 15-4 1-2 3-3 3-5 1-3 2-5 2-8 0-3-1-5-2-7z m-200 35c-10 11-24 16-41 16-17 0-31-5-42-16-7-9-12-19-14-31l0 0-1-10 0 0c0-1 0-3 0-4 0-2 0-4 0-6l0 0 1-10 0 0c2-11 7-21 14-29 11-11 25-16 42-16 17 0 31 5 41 16 10 12 16 27 16 45 0 18-6 33-16 45z m-17-77c-3-3-6-6-10-8-4-2-9-3-14-3-6 0-10 1-14 3-4 2-8 5-11 8-4 5-6 10-8 17l-1 9c0 1 0 2 0 3 0 2 0 3 0 4 0 1 0 2 0 3l1 9c1 8 4 14 8 19l0 0 0 0c3 3 7 6 11 8 4 2 8 3 14 3 5 0 10-1 14-3 4-2 7-5 10-8 6-8 10-18 10-32 0-14-4-24-10-32z m-25 39l-74 0 7 13 74 0z m-14-27l-65 0 7 13 66 0z"/>
<glyph unicode="&#56;" d="M256 0c-134 0-243 109-243 243 0 67 28 132 77 178 13 11 32 11 44-2 11-12 11-32-2-43-37-35-57-82-57-133 0-100 81-181 181-181 100 0 182 81 182 181 0 50-20 96-56 131-12 12-12 31 0 43 12 12 31 13 43 1 48-46 74-108 74-175 0-134-109-243-243-243z m0 249c-17 0-30 14-30 31l0 201c0 17 13 31 30 31 17 0 31-14 31-31l0-201c0-17-14-31-31-31z"/>
<glyph unicode="&#57;" d="M473 256c0-120-97-217-217-217-120 0-217 97-217 217 0 120 97 217 217 217 120 0 217-97 217-217z m-217 256c-141 0-256-115-256-256 0-141 115-256 256-256 141 0 256 115 256 256 0 141-115 256-256 256z m23-404c15 34 31 68 46 103 2 3 3 6 5 9 0 1 0 0 1 0 1 0 2 0 3 0 10 0 19 0 28 0 11 0 22 0 32 0 4 0 7 0 10 2 6 3 9 10 8 17-1 7-7 12-14 13-8 1-16 0-24 0-17 0-33 0-50 0-5 0-9 0-14 0 0 0-1 0-1-1 0-1-1-2-1-3-5-10-9-19-14-29-3-7-6-14-9-21 0-1 0 1 0 1-1 2-1 3-1 5-2 6-3 11-4 17-5 19-9 38-13 57-8 32-15 64-23 96-2 9-4 19-6 28 0 0 0 0 0 1-1 0-1 1-2 1-1 0-2 0-3 0 0 0 0-1-1-1 0 0 0 0 0-1-2-6-4-13-6-19-13-39-26-77-39-115-1-5-3-10-5-15 0 0 0-1-1-1-6 0-11 0-16 0-13 0-26 0-38 0-5 0-10 0-15-1-7-1-12-7-12-14 0-7 4-14 10-16 5-2 9-1 14-1 16 0 33 0 49 0 8 0 15 0 23 0 2 0 5 0 7 0 0 0 1-1 2 0 3 11 7 22 10 32 5 14 9 27 14 41 0 1 1 2 1 3 0 0 0-1 0-1 0-1 1-2 1-3 3-13 6-26 9-39 6-28 13-57 20-86 3-13 6-25 9-38 1-7 2-14 4-20 0-1 1-2 2-2 2-1 3-1 4 1z"/>
<glyph unicode="&#33;" d="M256 240l128 128-96 0 0 128-64 0 0-128-96 0z m116 52l-35-36 130-48-211-79-211 79 131 48-36 36-140-52 0-128 256-96 256 96 0 128z"/>
<glyph unicode="&#34;" d="M210 245l5 0c-2 1-3 2-4 3-34 31-60 91-60 140 0 68 56 124 109 124 53 0 107-59 107-128 0-49-29-107-65-137 8-28 13-37 96-59 92-26 114-90 114-188l-512 0c0 98 22 162 114 188 81 22 87 31 96 57z m5 0l-5 0c1 1 1 2 1 3 1-1 2-2 4-3z"/>
<glyph unicode="&#97;" d="M64 11c0-5 3-6 6-3l308 246c3 3 3 7 0 10l-308 246c-3 3-6 2-6-3l0-496z"/>
<glyph unicode="&#98;" d="M75 360l210-263c3-3 6-3 9 0l211 263c3 3 1 6-3 6l-425 0c-4 0-5-3-2-6z"/>
<glyph unicode="&#99;" d="M256 59c-108 0-195 88-195 197 0 109 87 197 195 197 108 0 195-88 195-197 0-109-87-197-195-197m0 453c-140 0-254-115-254-256 0-141 114-256 254-256 140 0 254 115 254 256 0 141-114 256-254 256m-21-329l46 0 0 36c0 9 5 19 17 27 12 8 46 24 46 66 0 43-36 72-66 79-30 6-62 2-85-24-21-22-25-40-25-80l46 0 0 10c0 21 2 43 32 49 17 3 32-2 41-11 11-10 11-33-6-45l-26-17c-15-10-20-21-20-37z m-1-19l47 0 0-47-47 0z"/>
<glyph unicode="&#100;" d="M256 0c-134 0-243 109-243 243 0 67 28 132 77 178 13 11 32 11 44-2 11-12 11-32-2-43-37-35-57-82-57-133 0-100 81-181 181-181 100 0 182 81 182 181 0 50-20 96-55 131-13 12-13 31-1 43 12 12 31 13 43 1 48-46 74-108 74-175 0-134-109-243-243-243m0 249c-17 0-30 14-30 31l0 201c0 17 13 31 30 31 17 0 31-14 31-31l0-201c0-17-14-31-31-31"/>
<glyph unicode="&#101;" d="M326 31c25 0 46 22 46 48l0 370c0 12-5 23-14 32-8 8-19 13-32 13l-142 0c-26 0-48-20-48-45l0-370c0-12 6-24 15-33 9-9 21-15 33-15z m-142-18c-17 0-34 7-46 20-13 12-20 29-20 46l0 370c0 35 30 63 66 63l142 0c18 0 33-6 45-18 12-13 19-28 19-45l0-370c0-36-29-66-64-66z m147 87l-171 0c-1 0-2 1-2 3l0 308c0 1 1 3 2 3l192 0c2 0 3-2 3-3l0-308c0-2-1-3-3-3m-97-14c-9 0-17-7-17-16 0-9 8-17 17-17 9 0 17 8 17 17 0 9-8 16-17 16m0-35c-10 0-19 8-19 19 0 10 9 19 19 19 11 0 19-9 19-19 0-11-8-19-19-19m-15 400c-1 0-2-1-2-2l0 0c0-1 1-2 2-2l29 0c1 0 1 1 1 2l0 0c0 1 0 2-1 2z m29-6l-29 0c-2 0-4 2-4 4l0 0c0 2 2 4 4 4l29 0c2 0 4-2 4-4l0 0c0-2-2-4-4-4z"/>
<glyph unicode="&#102;" d="M85 190l182 0c3-8 7-14 11-21l-193 0z m0 57l173 0c-1-7-1-14-1-21l-172 0z m0 56l200 0c-6-6-10-13-14-20l-186 0z m275 27l0 58c0 1 0 1-1 1l-93 0c-1 0-1 1-1 1l0 86c0 2-1 1-2 1l-198 0c-1 0-2 1-2 0l0-413c0-1 4 0 4 0l292 0c1 0 1 0 1 1l0 49c0 0 0 1 1 0 0 0 1 0 1 0 1 0 1 0 2 0 2 0 5 0 8-1 5 0 10 0 15 1 2 0 5 0 8 1 0 0 0-1 0-2l0-55c0-4 0-7 0-11 0 0 0 0 0-1 0 0-1-1-1-2 0-1 0-2-1-3-2-6-5-9-11-11-2 0-3-1-5-1 0 0 0 0-1 0-35 0-71 0-106 0l-221 0c-6 0-11 1-16 6-2 2-3 5-4 7 0 2 0 3 0 4 0 0 0 1 0 1-1 15 0 30 0 45l0 391c0 4-1 8 0 11 0 1 0 2 0 2 0 1 0 3 1 4 1 3 2 5 4 7 3 2 5 3 8 4 1 0 2 1 3 1 9 0 18 0 27 0l199 0c2 0 3 0 4-1 1-1 2-2 3-3 2-2 3-4 5-5 14-15 28-29 42-43 14-15 28-29 42-43 7-7 14-15 21-22 2-2 3-3 5-5 1-1 1-1 2-1 0-1 0-2 0-2l0-54c0-1 1-3-1-3 0 0 0 0-1 0 0 0 0 0-1 0-1 1-1 1-2 1-4 0-7 0-10 0-7 1-13 0-20-1m30-104l34 0 0 16-34 0 0 34-16 0 0-34-33 0 0-16 33 0 0-33 16 0z m-96 8c0 49 39 88 88 88 49 0 88-39 88-88 0-49-39-88-88-88-49 0-88 39-88 88z"/>
<glyph unicode="&#103;" d="M294 208c1-10-15-14-19-22-8-16-3-47-21-52-6-1-13 2-18 0-15-3-14-25-22-36-6-8-12-8-21-13-7-12 8-46-7-51-10-3-26 12-29 17-5 6-10 21-16 33-6 12-11 23-13 35-1 13 2 29-4 35-6 7-14 1-23 9-7 8-7 28-12 38-6 11-14 25-13 37 2 11 13 18 14 27 1 10-7 14-5 22 7 6 23 3 26 14 3-1 9 1 9 0 8-11 25-3 37-6 12-3 13-20 26-26 9-4 14 0 25-5 6-8 4-14 10-21 7-8 27-10 42-14 11-4 33-12 34-21z m152-123c-39-44-95-79-171-84-78-5-146 25-190 65-44 40-80 98-84 172-4 85 25 143 65 188 19 21 42 42 71 57 28 15 63 25 101 28 123 9 205-59 246-138 14-28 26-61 28-99 3-84-24-143-66-189z m18 118c1 10 4 19 4 26-1 17-14 32-23 42-14-4-23-24-41-17-9 5-9 26-16 34-5 6-17 9-22 17-7 13-5 27-6 42 1 11 18 12 22 25 2 10-2 21 6 27 4 3 11 2 16 4 6 2 9 7 16 6 11-1 14-14 22-20 5 2 14-1 17 0-2 9-9 13-13 20-22 2-21 26-48 23-12-3-6-24-16-27-9-2-14 8-20 13-15 12-19 25 0 36-9 7-4 19 6 21-23 10-48 20-77 24-2-3 2-12-1-16-5-4-15-1-21-3-8-6-6-21-19-19-5 1-4 5-7 7-1 1-3 0-4 1-11 10-8 18-2 30-8 3-19 0-26-2 0-22-40-13-54-25-1-3-4-13 1-14 14-3 20 18 38 14 7-1 24-19 23-27-2-16-27-5-43-11-6-2-11-11-21-17-6-4-13-5-17-9-17-12-23-48-48-31-14-8-29-19-30-36 3 2 13 2 14-1-6-24 0-46 2-63-22 10-32 32-57 38-33-160 75-293 219-301 92-6 146 31 191 73-5 20 13 31 13 42 0 5-6 9-6 15-1 18 21 21 27 34 2 6 0 16 1 25z"/>
<glyph unicode="&#104;" d="M173 346l0-114-11-33c-9 0-18-3-24-10-15-14-16-36-2-51 14-15 37-15 51-2 5 5 8 10 10 15l122 0c2-4 5-9 8-13 14-15 37-15 52-2 14 14 15 37 1 52-14 14-36 15-51 1-5-4-8-9-10-15l-122 0c-2 5-5 10-8 14-2 1-4 3-6 4l6 18c60 0 120 0 180 0 5 0 9 4 9 9 6 34 12 68 18 102 0 5-4 9-9 9-66 9-133 17-199 26l-26 26c-2 2-4 3-7 3-7 0-13 0-20 0-5 0-15 2-18-5-3-8 3-13 10-13 7 0 14 0 21 0 2 0 4-1 6-3z m83-345c-141 0-255 114-255 255 0 141 114 255 255 255 141 0 255-114 255-255 0-141-114-255-255-255z"/>
<glyph unicode="&#105;" d="M62 341c14 14 4 41 13 51l38 38c18 17 68 75 199 40l-1-17c0 0-65 2-110-44 0 0-19-18-3-35l16-15-53-53-14 15c-10 9-31 8-49-10-8-8-13-18-11-23 8-8 8-22 0-30l-8-8c-9-9-22-8-30 0l-43 43c-8 8-9 21-1 30l8 8c8 8 22 9 31 0 6 1 13 3 18 10z m355 139l-13-13-328-327-13-13 13-13 70-70 13-13 13 13 328 327 13 13-13 13-70 70z m0-26l70-70-78-78-30 30-8-9 30-29-29-29-29 30-9-8 30-30-29-29-29 30-8-8 29-30-29-29-29 30-8-8 29-30-29-28-29 29-8-8 29-29-28-29-30 29-8-8 29-29-28-29-30 29-8-8 30-29-21-21-70 71z m21-88c10 10 10 26 0 37-11 10-27 10-37 0-10-11-10-27 0-37 10-10 26-10 37 0z m-10 10c-5-5-13-5-17 0-5 4-5 12 0 17 4 5 12 5 17 0 5-5 5-13 0-17z m-185-151l-70 69 53 53 70-72 51-53 124-115c11-11 11-29 0-40l-28-28c-10-11-28-10-38 0l-108 130z"/>
<glyph unicode="&#106;" d="M205 512l102 0c10 0 17-8 17-17l0-102c0-10-7-18-17-18l-102 0c-10 0-17 8-17 18l0 102c0 9 7 17 17 17z m188 0l102 0c9 0 17-8 17-17l0-102c0-10-8-18-17-18l-102 0c-10 0-18 8-18 18l0 102c0 9 8 17 18 17z m-376 0l102 0c10 0 18-8 18-17l0-102c0-10-8-18-18-18l-102 0c-9 0-17 8-17 18l0 102c0 9 8 17 17 17z m188-188l102 0c10 0 17-7 17-17l0-102c0-10-7-17-17-17l-102 0c-10 0-17 7-17 17l0 102c0 10 7 17 17 17z m188 0l102 0c9 0 17-7 17-17l0-102c0-10-8-17-17-17l-102 0c-10 0-18 7-18 17l0 102c0 10 8 17 18 17z m-376 0l102 0c10 0 18-7 18-17l0-102c0-10-8-17-18-17l-102 0c-9 0-17 7-17 17l0 102c0 10 8 17 17 17z m188-187l102 0c10 0 17-8 17-18l0-102c0-9-7-17-17-17l-102 0c-10 0-17 8-17 17l0 102c0 10 7 18 17 18z m188 0l102 0c9 0 17-8 17-18l0-102c0-9-8-17-17-17l-102 0c-10 0-18 8-18 17l0 102c0 10 8 18 18 18z m-376 0l102 0c10 0 18-8 18-18l0-102c0-9-8-17-18-17l-102 0c-9 0-17 8-17 17l0 102c0 10 8 18 17 18z"/>
<glyph unicode="&#107;" d="M462 165c0 0-1-1-1-1l-425 0c0 0-1 1-1 1l0 260c0 1 1 1 1 1l425 0c0 0 1 0 1-1z m22 290l-471 0c-7 0-13-5-13-12l0-295c0-7 6-13 13-13l195 0 0-51-66-4 0-8c0-1 1-1 1-1l210 0c0 0 0 0 0 1l0 8-65 4 0 51 196 0c7 0 12 6 12 13l0 295c0 7-5 12-12 12z"/>
<glyph unicode="&#108;" d="M126 181l72 0c-1 28-7 46-33 53-24 7-25 9-27 17 10 9 18 25 18 39 0 20-15 37-30 37-15 0-31-17-31-37 0-14 9-30 19-39-2-8-4-10-27-17-27-7-33-25-34-53z m-87 242c-16 0-29-13-29-30l0-261c0-16 13-30 29-30l426 0c16 0 29 14 29 30l0 261c0 17-13 30-29 30z m426-330l-426 0c-21 0-39 17-39 39l0 261c0 22 18 40 39 40l426 0c22 0 39-18 39-40l0-261c0-22-17-39-39-39z m-425 80l167 0 0 166-167 0z m169-5l-171 0c-2 0-3 1-3 2l0 172c0 1 1 2 3 2l171 0c2 0 3-1 3-2l0-172c0-1-1-2-3-2z m246 126l-183 0c-4 0-7 3-7 8 0 4 3 7 7 7l183 0c4 0 7-3 7-7 0-5-3-8-7-8m0-35l-183 0c-4 0-7 3-7 7 0 4 3 8 7 8l183 0c4 0 7-4 7-8 0-4-3-7-7-7m0-53l-183 0c-4 0-7 3-7 7 0 4 3 8 7 8l183 0c4 0 7-4 7-8 0-4-3-7-7-7m-175 176l-78 0c-4 0-8 3-8 7 0 5 4 8 8 8l78 0c4 0 8-3 8-8 0-4-4-7-8-7"/>
<glyph unicode="&#109;" d="M256 483c-125 0-227-102-227-227 0-125 102-227 227-227 125 0 227 102 227 227 0 26-4 51-13 76l-211-211c-6-6-15-6-21 0l-141 141c-3 2-4 6-4 10 0 4 1 7 4 10l64 64c6 6 15 6 21 0l66-66 152 151c-41 34-91 52-144 52m0-483c-141 0-256 115-256 256 0 141 115 256 256 256 65 0 127-25 175-69 3-3 4-7 4-11 1-4-1-7-4-10l-172-173c-6-5-15-5-21 0l-66 67-44-44 120-121 217 217c3 3 8 4 12 4 5-1 9-4 11-9 16-34 24-70 24-107 0-141-115-256-256-256"/>
<glyph unicode="&#110;" d="M460 279l-91-91c-50-50-131-50-181 0-8 8-14 17-19 26l42 42c2 2 4 3 7 5 2-10 8-20 15-28 25-25 66-25 91 0l90 91c25 25 25 65 0 90-25 25-65 25-90 0l-32-32c-26 10-55 13-82 9l69 69c50 50 131 50 181 0 50-50 50-131 0-181z m-240-149l-32-32c-25-25-65-25-90 0-25 25-25 65 0 90l90 91c25 25 66 25 91 0 7-8 12-18 15-28 3 2 5 3 7 5l42 42c-5 9-11 18-19 26-50 50-131 50-181 0l-91-91c-50-50-50-131 0-181 50-50 131-50 181 0l69 69c-27-4-56-1-82 9z"/>
<glyph unicode="&#111;" d="M110 221l195 0 0-32-195 0z m0 97l195 0 0-32-195 0z m0 97l195 0 0-32-195 0z m356 22l-75 0 0 53c0 14-8 22-22 22l-323 0c-14 0-22-8-22-22l0-398c0-14 8-22 22-22l75 0 0-48c0-14 8-22 22-22l323 0c14 0 22 8 22 22l0 393c0 13-8 22-22 22z m-409-324l0 356c0 7 4 11 10 11l281 0c6 0 10-4 10-11l0-356c0-7-4-11-10-11l-281 0c-6 0-10 4-10 11z m398-70c0-7-4-11-10-11l-275 0c-7 0-11 4-11 11l0 27 210 0c14 0 22 8 22 22l0 307 54 0c6 0 10-4 10-11l0-345z"/>
<glyph unicode="&#112;" d="M256 476c-121 0-220-99-220-220 0-121 99-220 220-220 121 0 220 99 220 220 0 121-99 220-220 220m256-220c0-141-115-256-256-256-141 0-256 115-256 256 0 141 115 256 256 256 141 0 256-114 256-256m-171 68l-68-68 68-68c5-5 5-13 0-17-4-5-12-5-17 0l-68 68-68-68c-5-5-13-5-17 0-5 4-5 12 0 17l68 68-68 68c-5 5-5 13 0 17 4 5 12 5 17 0l68-68 68 68c5 5 13 5 17 0 5-4 5-12 0-17"/>
<glyph unicode="&#113;" d="M256 512c-141 0-256-115-256-256 0-141 115-256 256-256 141 0 256 115 256 256 0 141-115 256-256 256m0-39c29 0 58-6 84-17 26-11 50-27 70-46 19-20 35-44 46-70 11-26 17-55 17-84 0-29-6-58-17-84-11-26-27-50-46-70-20-19-44-35-70-46-26-11-55-17-84-17-29 0-58 6-84 17-26 11-50 27-70 46-19 20-35 44-46 70-11 26-17 55-17 84 0 29 6 58 17 84 11 26 27 50 46 70 20 19 44 35 70 46 26 11 55 17 84 17"/>
<glyph unicode="&#115;" d="M429 512l0-32-64 0 0 32-224 0 0-32-64 0 0 32-64 0 0-512 480 0 0 512z m-384-128l416 0 0-352-416 0z m320-128l64 0 0 64-64 0z m-96 0l64 0 0 64-64 0z m-96 0l64 0 0 64-64 0z m192-96l64 0 0 64-64 0z m-96 0l64 0 0 64-64 0z m-96 0l64 0 0 64-64 0z m-96 0l64 0 0 64-64 0z m192-96l64 0 0 64-64 0z m-96 0l64 0 0 64-64 0z m-96 0l64 0 0 64-64 0z"/>
<glyph unicode="&#116;" d="M444 354c-13-8-23-16-28-30-4-10-2-20 6-27 4-5 10-7 17-7 2 0 4 0 7 0-3 1-6 2-9 3-8 5-11 16-5 26 7 13 18 21 33 23 4 1 9 1 13 0 12-2 18-13 14-24-1-3-2-5-4-8 10 10 19 29 6 44 11-2 17-10 18-20 1-13-6-22-14-31-13-14-28-22-47-25-10-2-21-2-30 3-11 5-18 13-17 26 0 4 0 9 1 14-4-7-7-14-8-21-5-25 9-44 33-49 21-4 41 0 60 9 8 4 14 9 22 13 0-1 0-2 0-3 0-31 0-61 0-91 0-12-9-21-21-21-105 0-210 0-315 0-52 0-103 0-155 0-12 0-21 9-21 22 0 51 0 102 0 153 0 13 11 21 20 21 141 0 281 0 421 0 1 0 2 0 3 0z m-74-74c0 8 0 16 0 23 0 10-7 19-17 21-7 1-13 1-20 0-14 0-22-13-21-23 0-9 0-19 0-28 0-10 6-19 16-21 5-1 11-1 16-1 6 0 13 0 19 0 2 5 3 10 4 14-10 0-20 0-31 0-7 0-10 3-10 11 0 4 0 4 5 4 13 0 26 0 39 0z m-308-29c11 0 22 8 22 22 0 10 0 19 0 29 0 11-7 20-18 22-7 1-14 0-21 0-11-1-20-10-19-23 0-4 0-9 0-13 0-5 0-10 0-14-1-14 10-23 22-23z m94 0c0 1 0 1 0 1 0 17 1 34 0 51 0 10-8 20-18 21-6 0-13 1-19 0-13 0-21-11-21-22 0-15 0-30 0-45 0-2 0-4 0-6 5 0 9 0 14 0 0 2 0 3 0 4 0 16 0 31 0 46 0 6 3 9 8 9 5 0 9 0 14 0 5 0 8-3 8-8 0-16 0-32 0-47 0-2 0-3 0-4 5 0 9 0 14 0z m14 73c0-1 0-2 0-4 0-15 0-31 0-46 0-14 11-24 25-23 1 0 2 1 2 1 1 4 3 9 4 13-3 0-5 0-7 0-6 1-9 3-9 9 0 16 0 31 0 47 0 1 0 2 0 3-5 0-10 0-15 0z m42 0c0-24 0-49 0-73 5 0 9 0 14 0 0 25 0 49 0 73-5 0-9 0-14 0z m235-134c0 8 0 15 0 23 0 4-3 7-8 7-4 1-8 0-11-3-4 4-10 5-17 1-1 1-3 2-4 3 0-11 0-21 0-31 1 0 2 0 4 0 0 7 0 13 0 19 0 5 3 7 8 7 5 0 5-1 5-6 0-7 0-13 0-20 2 0 3 0 5 0 0 6 1 12 0 18 0 5 4 9 9 8 3 0 4-1 4-5 0-5 0-10 0-15 0-2 0-4 0-6 2 0 3 0 5 0z m-417 0c4 0 7 0 10 0 1 0 2 0 4 0 4 0 9 5 9 9 0 5 0 9 0 14 0 5-3 7-8 7-3 0-6 0-10 0 0 5 0 9 0 13-2 0-3 0-5 0 0-14 0-29 0-43z m184 0c0 1 0 2 0 3 0 7 0 13 0 20-1 3-3 7-7 7-4 1-9 0-14 0 0-1 0-2 0-4 4 0 8 0 12 0 2 0 3-1 3-3 0-2 1-4-2-5-3 0-6-1-9-2-4-1-7-5-6-9 0-5 3-7 8-7 5 0 10 0 15 0z m162 16c0-2 1-4 0-5 0-5 1-9 6-11 5-1 11-2 15 2 1 2 2 3 2 5 1 5 1 10 1 15 0 6-4 8-9 8-2 0-5 0-7 0-4 0-7-3-8-7 0-2 0-5 0-7z m-315 10c3 0 4 0 6 0 2 0 4 0 6 0 2 0 4-1 4-3 0-3 0-5-3-5-4-1-7-2-10-3-4-1-5-5-5-9 1-3 3-6 6-6 5-1 11 0 17 0 0 8 0 16 0 23 0 4-3 7-6 7-5 1-10 0-15 0 0-1 0-2 0-4z m239-15c2 0 3 1 4 1 3 1 7 2 10 3 3 1 5 6 4 9 0 4-4 6-8 6-2 0-4 0-6 0-4 0-7-2-8-6 0-6 0-12 1-17 0-2 1-3 2-4 5-5 12-3 18-3 0 1 0 2 0 3-6 2-15-3-17 8z m-211 20c0-11 0-21 0-31 2 0 4 0 5 0 0 1 0 1 0 2 0 6 0 12 0 18 1 4 4 6 9 6 4 0 4-1 5-6 0-2 0-3 0-5 0-5 0-10 0-15 1 0 3 0 4 0 0 2 0 3 0 5 0 6 0 12 0 18 0 4-4 8-8 7-3 0-7-1-10-1-1 0-3 1-5 2z m155-31c0 8 0 15 0 22 0 6-3 8-9 8-3 0-6-1-9-1-1 0-3 1-5 2 0-11 0-21 0-31 2 0 3 0 5 0 0 7 0 13 0 19 0 5 3 7 8 7 4 0 5-1 5-6 0-7 0-13 0-20 2 0 3 0 5 0z m7 0c1 0 1 0 2 0 3 0 7 0 11 0 5 0 8 2 9 7 1 4-2 8-7 9-2 1-4 2-7 2-3 1-4 2-4 5 1 2 2 3 5 3 4 0 8 0 12 0-1 2-1 3-1 4-4 0-8 0-12 0-4 0-8-2-8-6-1-5 1-8 6-10 2-1 5-1 7-2 3-1 5-2 4-5 0-2-2-3-5-3-4 0-8 0-12 0 0-2 0-3 0-4z m33 26c2 0 4 0 5 0 1 0 2 0 3 0 0 2 0 3 0 4-1 0-2 0-4 0-1 0-2 0-3 0-1 7-1 7 8 9-1 2-1 4-2 4-5 1-11-1-11-9-1-11-1-22-1-33 0 0 1-1 1-1 1 0 3 0 4 0 0 4 0 9 0 13 0 4 0 9 0 13z m88 4c-3 0-5 0-6 0-3 0-5 0-7 0-4 0-7-2-8-6 0-6 0-11 1-17 0-4 4-7 8-7 4-1 8 0 12 0 0 1 0 2 0 3-1 1-1 1-1 1-3 0-6 0-8 0-5 0-7 2-7 7 0 3 0 7 0 10 0 5 1 5 5 5 4 0 7 0 11 0 0 2 0 3 0 4z m-221 13c0-1 0-2 0-3 0-10 0-20 0-30 0-8 4-12 12-10 0 1 0 2 0 4-3 0-7-1-7 3 0 6 0 13 0 19 3 0 5 0 7 0 0 2 0 3 0 4-2 0-5 1-7 1 0 4 0 8 0 12-2 0-3 0-5 0z m179-43c0 6 0 12 0 18 0 6 2 8 8 8 1 0 3 0 4 0 0 2 0 3 0 5-4-1-8-1-13-2-1 0-2 1-4 2 0-11 0-21 0-31 2 0 3 0 5 0z m-144 31c-4-1-9 1-12-3-1 1-3 2-5 3 0-11 0-21 0-31 2 0 3 0 5 0 0 7 0 13 0 20 0 4 3 6 6 6 2 0 4 0 6 0 0 2 0 3 0 5z m-41-31c0 0 0 1 1 1-4 4-8 8-13 11-2 2-2 4 0 6 5 4 8 8 12 12-2 0-5 1-6 0-5-5-9-10-14-15 4-4 8-8 11-13 3-2 6-3 9-2z m-21 0c0 10 0 20 0 30-1 0-2 0-4 0 0-10 0-20 0-30 2 0 3 0 4 0z m220 0c0 2 0 3 0 5-2 0-4 0-5 0 0-2 0-4 0-5 1 0 3 0 5 0z m-46 61c0 1 0 1 0 1 0 17 0 34 0 51 0 10-8 20-18 21-6 0-13 1-19 0-13 0-21-11-21-22 0-15 0-30 0-45 0-2 0-4 0-6 5 0 9 0 14 0 0 2 0 3 0 4 0 16 0 31 0 46 0 6 3 9 8 9 5 0 9 0 14 0 5 0 7-3 7-8 0-16 0-32 0-47 0-2 0-3 0-4 6 0 10 0 15 0z m28 44c0 3 0 5 0 6 1 6 3 9 9 9 4 0 8 0 13 0 5 0 7-3 8-8 0-2 0-4 0-7-10 0-20 0-30 0z m-286-7c0 4 0 9 0 14 0 5 3 8 8 8 4 0 9 0 14 0 5 0 7-3 7-8 0-10 0-19 0-29 0-4-2-7-6-7-6-1-11-1-16 0-5 0-7 3-7 8 0 4 0 9 0 14z m-5-94c0 7 0 15 0 22 4 0 7 1 10 0 1 0 3-2 3-4 1-4 0-8 0-12 0-3-3-6-6-6-2 0-4 0-7 0z m173 10c0-3 0-7 0-10-3 0-6 0-10 0-1 0-2 2-2 4 0 1 1 3 2 4 3 1 7 1 10 2z m187 1c0-2 0-3 0-5 0-5-1-6-6-6-1 0-2 0-3 0-3 0-5 2-5 5 0 4 0 9 0 13 0 1 0 1 0 1 3 5 7 3 10 3 3 0 4-1 4-4 0-2 0-5 0-7 0 0 0 0 0 0z m-318-1c0-3 0-7 0-10-3 0-6 0-9 0-2 0-4 1-4 3-1 2 0 4 2 5 4 1 7 1 11 2z m224 2c0 1 0 2 0 2 0 8 1 10 9 8 1 0 3-2 4-4 0-1-2-3-3-4-1-1-3-1-5-1-2-1-3-1-5-1z"/>
<glyph unicode="&#117;" d="M512 237c0 1 0 2 0 3-1 0-1 1-1 2 0 0 0 1 0 1-1 2-1 3-1 4-1 1-2 3-2 4-1 1-1 1-1 2-1 0-1 1-1 1-1 1-2 2-3 3 0 1-1 1-2 2 0 1-1 1-1 1-1 1-2 2-3 2l0 91c0 4-1 8-2 13-1 4-3 8-5 11-3 5-7 8-12 12-3 2-7 4-11 5-2 1-5 1-7 1-1 0-2 0-3 1-1 0-2 0-2 0l-17-1c-111 30-222 60-333 89l-16 4-2-16c-1-7-2-14-3-21-7-1-14-2-21-4-7-1-14-4-20-8-8-3-14-8-20-14-4-4-8-9-11-14-4-7-8-16-10-24-1-5-2-11-2-16 0-4 0-8 0-12l0-236c0-10 1-21 4-31 1-4 3-9 4-13 2-5 4-9 7-13 4-7 10-14 17-20 4-3 9-7 14-10 5-2 10-4 15-6 6-2 12-4 18-5 4 0 7-1 11-1 2 0 4 0 7 0 1 0 2 0 2 0l356 0c5 0 9 0 13 2 4 1 8 3 11 5 4 3 8 7 11 12 2 3 4 7 5 11 1 4 2 8 2 13l0 88c1 1 2 2 3 2 1 2 3 3 4 4 1 1 2 2 2 3 1 2 2 3 3 5 1 1 1 3 2 4 0 1 0 3 0 4 1 1 1 2 1 4 0 1 0 2 0 3l0 50c0 1 0 2 0 3z m-394 209c81-22 163-44 244-66-81-1-194-1-254 1 4 21 7 43 10 65z m-45-32c6 1 13 2 20 3-2-12-3-23-5-34-9 1-17 5-19 10-3 5 0 14 4 21z m375-341l-350 0 0 0c0 0 0 0 0 0-1 0-1 0-2 0-1 0-2 0-4 0-2 1-5 1-8 2-3 0-6 1-9 2-3 2-6 3-9 5-1 1-3 2-4 3-1 2-3 4-4 6-1 1-2 3-3 6-1 2-2 4-3 7-1 3-1 6-2 9 0 3 0 7 0 10l0 238 0 1c0-1 1-1 2-2 1-1 3-2 4-2 2-2 5-3 7-4 2-1 5-2 8-3 4-2 8-3 13-3 3-1 7-1 11-2 2 0 5 0 7 0 6 0 11 0 16-1 13 0 26 0 39 0 15-1 30-1 45-1 32 0 64 0 96 0 30 1 59 1 88 1 21 0 41 1 62 1l0-78-58 0c-1 0-2 0-3 0-1 0-2 0-3 0-2 0-3-1-4-1-1 0-2 0-3-1-1 0-2 0-3 0 0-1-1-1-2-1-1-1-2-1-3-2-2-1-3-2-5-3-1-1-2-2-4-4 0 0-1-1-2-2 0-1-1-3-2-4-1-1-1-2-2-4 0 0 0-1 0-2 0 0-1-1-1-1 0-1 0-2 0-4 0-1-1-2-1-3 0 0 0-1 0-2l0-50c0-1 0-2 0-3 0-1 0-1 1-2 0 0 0-1 0-1 0-1 0-1 0-2 0 0 0-1 0-1 1-1 1-2 1-2 0-1 0-1 0-2 1-1 1-1 1-2 1-1 1-1 1-2 1-1 1-1 1-2 1 0 1-1 1-1 1-1 1-1 1-2 1 0 1-1 2-1 1-1 2-3 3-4 2-1 3-2 5-3 1 0 1 0 2-1 0 0 1 0 1 0 1-1 2-1 3-1 1-1 2-1 3-1 1 0 1-1 2-1 2 0 3 0 4 0 1 0 2 0 3 0 1-1 2-1 3-1l58 0z m31 115c0-3-3-5-6-5l-82 0c-3 0-5 2-5 5l0 41c0 3 2 6 5 6l82 0c3 0 6-3 6-6z"/>
<glyph unicode="&#118;" d="M341 325l-68-68 68-69c5-4 5-12 0-17-4-4-12-4-17 0l-68 69-68-69c-5-4-13-4-17 0-5 5-5 13 0 17l68 69-68 68c-5 4-5 12 0 17 4 4 12 4 17 0l68-68 68 68c5 4 13 4 17 0 5-5 5-13 0-17z m171-68c0-141-115-256-256-256-141 0-256 115-256 256 0 141 115 256 256 256 141 0 256-115 256-256z m-256 220c-121 0-220-99-220-220 0-122 99-221 220-221 121 0 220 99 220 221 0 121-99 220-220 220z"/>
<glyph unicode="&#119;" d="M512 257c0-141-115-256-256-256-141 0-256 115-256 256 0 141 115 256 256 256 141 0 256-115 256-256z m-256 220c-121 0-220-99-220-220 0-122 99-221 220-221 121 0 220 99 220 221 0 121-99 220-220 220z m-29-347c0-16 13-29 28-29 16 0 29 13 29 29 0 16-13 28-29 28-15 0-28-12-28-28z m57 78l0 171c0 16-13 29-29 29-15 0-28-13-28-29l0-171c0-16 13-28 28-28 16 0 29 12 29 28z"/>
<glyph unicode="&#120;" d="M123 256l66-115 134 0-50 86-34 0-16 29m0 0l-100 0 66 115 134 0-50-86-34 0-16-29m100-120c-2 0-4 1-4 2l-49 84-31 0c-1 0-3 1-4 3l-15 26-97 0c-3 0-5 2-5 5 0 3 2 5 5 5l97 0 15 26c1 2 3 3 4 3l31 0 49 84c1 2 4 3 6 1 2-1 3-4 2-6l-50-87c-1-1-3-2-4-2l-31 0-14-24 14-24 31 0c1 0 3-1 4-2l50-87c1-2 0-5-2-6-1-1-2-1-2-1z m0-5l-134 0c-3 0-6 2-8 5l-66 115c-2 3-2 7 0 10l66 115c2 3 5 5 8 5l133 0c4 0 7-2 9-5l66-115c2-3 2-7 0-10l-66-115c-2-3-5-5-8-5z m-128 19l122 0 61 106-61 106-122 0-61-106z m-6-16c-1 0-2 1-3 1-2 1-3 3-3 6 0 1 0 2 1 3l65 112-65 112 11 7 65-113 129 0 0-12-129 0-65-113c-1-2-3-3-6-3z"/>
<glyph unicode="&#121;" d="M378 289l0-207 55 0c7 0 12 6 12 13l0 182z m99 26l0 38c0 7-5 13-13 13l-63 12 0-63 72-13c5-1 4 5 4 13m-381-23l0 64-61-11c-7 0-13-6-13-13l0-39c0-7 0-15 4-15l71 14z m13-3l-64-12 0-182c0-7 5-12 12-12l52 0z m130 112l-83-16 0-65 0 0 83 16z m6 0l0-65 80-15 0 64z m-10-67l-79-15 0-218 79 0z m10 0l0-233 76 0 0 218z m81 89c-1 0-2 1-3 1 1 0 2 0 3-1z m-63-21c4 3 8 7 12 9 14 9 31 14 51 12 15-5 25-27 25-37l19-3c11 30-12 66-45 62-19-2-41-15-58-27-8-4-16-8-22-13z m-102 22c-1 0-2-1-3-1 1 1 2 1 3 1z m-27-37c-1 10 10 31 24 36 20 2 38-3 51-12 4-2 8-5 12-9l17 3c-6 5-14 10-21 13-16 12-39 25-58 27-32 4-56-32-45-61z"/>
</font>
</defs>
</svg>
