<?xml version="1.0" encoding="utf-8"?>
<!-- Generator: Adobe Illustrator 16.0.4, SVG Export Plug-In . SVG Version: 6.00 Build 0)  -->
<!DOCTYPE svg PUBLIC "-//W3C//DTD SVG 1.1//EN" "http://www.w3.org/Graphics/SVG/1.1/DTD/svg11.dtd">
<svg version="1.1" xmlns="http://www.w3.org/2000/svg" xmlns:xlink="http://www.w3.org/1999/xlink" x="0px" y="0px"
	 width="45.001px" height="39.373px" viewBox="0 0 45.001 39.373" enable-background="new 0 0 45.001 39.373" xml:space="preserve">
<g id="Layer_1">
</g>
<g id="Layer_2">
	<g display="none">
		<path display="inline" fill="#485878" d="M261.123,46.536c0-6.033,4.534-11.143,10.72-11.143c4.764,0,8.337,3.074,8.337,8.261
			c0,1.114-0.23,2.497-0.384,3.073h-13.793c0,0.115,0,0.346,0,0.461c0,1.575,1.652,3.688,5.11,3.688
			c1.652,0,3.535-0.461,4.688-1.345l1.499,3.42c-1.806,1.229-4.265,1.921-6.57,1.921C264.888,54.873,261.123,51.723,261.123,46.536z
			 M275.8,43.347c0.039-0.077,0.039-0.308,0.039-0.384c0-1.883-1.383-3.573-4.303-3.573c-2.651,0-4.611,1.921-4.995,3.958h9.221
			H275.8z"/>
		<path display="inline" fill="#485878" d="M293.316,54.412l-2.881-6.263l-5.648,6.263h-5.571l8.683-9.528l-4.188-9.029h5.302
			l2.536,5.687l5.11-5.687h5.609l-8.222,9.029l4.534,9.528H293.316z"/>
		<path display="inline" fill="#485878" d="M300.422,46.421c0-6.109,4.726-11.027,10.796-11.027c3.804,0,6.263,1.537,7.531,3.65
			l-3.65,2.805c-0.769-1.306-2.19-2.113-3.881-2.113c-3.496,0-5.84,2.958-5.84,6.417c0,2.805,2.075,4.38,4.649,4.38
			c1.575,0,2.958-0.769,3.881-1.844l2.651,3.228c-1.383,1.498-3.765,2.958-7.031,2.958
			C303.995,54.873,300.422,51.492,300.422,46.421z"/>
		<path display="inline" fill="#485878" d="M331.425,54.412l2.459-11.257c0.077-0.308,0.154-0.807,0.154-1.076
			c0-1.69-1.383-2.344-3.189-2.344c-1.652,0-3.266,1.114-4.342,2.19l-2.728,12.487h-4.918l5.648-25.627h4.918l-2.113,9.452
			c1.46-1.383,3.458-2.843,6.186-2.843c3.573,0,5.802,1.844,5.802,4.726c0,0.384-0.115,1.153-0.192,1.537l-2.805,12.756H331.425z"/>
		<path display="inline" fill="#485878" d="M357.509,38.313l0.5-2.459h4.918l-4.111,18.558h-4.918l0.538-2.306
			c-1.575,1.845-3.343,2.767-5.571,2.767c-4.188,0-7.069-2.767-7.069-7.685c0-5.609,3.496-11.795,9.797-11.795
			C354.09,35.394,356.28,36.469,357.509,38.313z M346.905,46.189c0,2.651,1.768,4.342,4.111,4.342c1.729,0,3.266-0.96,4.265-2.229
			l1.422-6.416c-0.807-1.268-2.382-2.152-4.342-2.152C349.172,39.735,346.905,42.771,346.905,46.189z"/>
		<path display="inline" fill="#485878" d="M376.178,54.412l2.498-11.257c0.076-0.346,0.153-0.73,0.153-1.076
			c0-1.69-1.384-2.344-3.189-2.344c-1.651,0-3.266,1.114-4.341,2.152l-2.767,12.525h-4.88l4.111-18.558h4.88l-0.538,2.382
			c1.46-1.383,3.458-2.843,6.186-2.843c3.573,0,5.802,1.844,5.802,4.726c0,0.346-0.115,1.153-0.192,1.537l-2.805,12.756H376.178z"/>
		<path display="inline" fill="#485878" d="M384.705,58.716l2.882-3.228c1.191,1.613,3.612,2.459,6.032,2.459
			c2.267,0,4.495-0.999,5.264-4.765l0.385-1.768c-1.384,1.768-3.42,2.844-5.687,2.844c-3.727,0-6.993-2.19-6.993-7.531
			c0-5.648,3.573-11.334,9.605-11.334c2.267,0,4.649,1.114,5.994,2.92l0.576-2.459h4.88L403.8,53.183
			c-1.575,6.993-6.108,8.76-10.104,8.76C390.045,61.942,386.972,61.098,384.705,58.716z M400.074,47.766l1.307-5.764
			c-0.884-1.422-2.574-2.267-4.534-2.267c-3.035,0-5.187,2.69-5.187,6.033c0,2.497,1.69,4.149,4.226,4.149
			C397.5,49.917,399.075,48.995,400.074,47.766z"/>
		<path display="inline" fill="#485878" d="M409.099,46.536c0-6.033,4.533-11.143,10.72-11.143c4.764,0,8.337,3.074,8.337,8.261
			c0,1.114-0.23,2.497-0.384,3.073h-13.794c0,0.115,0,0.346,0,0.461c0,1.575,1.652,3.688,5.11,3.688
			c1.652,0,3.535-0.461,4.688-1.345l1.498,3.42c-1.806,1.229-4.265,1.921-6.569,1.921C412.864,54.873,409.099,51.723,409.099,46.536
			z M423.776,43.347c0.038-0.077,0.038-0.308,0.038-0.384c0-1.883-1.383-3.573-4.303-3.573c-2.651,0-4.61,1.921-4.995,3.958h9.222
			H423.776z"/>
	</g>
</g>
<g id="Exchange" display="none">
	<g display="inline">
		<path fill="#485878" d="M262.188,54.012l5.576-25.303h17.906l-1.062,4.742h-12.48l-1.176,5.311h12.215l-1.024,4.743H269.89
			l-1.252,5.766h12.48l-1.024,4.741H262.188z"/>
		<path fill="#485878" d="M295.726,54.012l-2.845-6.183l-5.577,6.183h-5.5l8.573-9.408l-4.135-8.915h5.235l2.504,5.615l5.045-5.615
			h5.538l-8.118,8.915l4.477,9.408H295.726z"/>
		<path fill="#485878" d="M302.746,46.121c0-6.031,4.666-10.887,10.659-10.887c3.756,0,6.184,1.518,7.436,3.604l-3.604,2.77
			c-0.758-1.29-2.162-2.087-3.832-2.087c-3.452,0-5.766,2.921-5.766,6.335c0,2.769,2.049,4.325,4.59,4.325
			c1.555,0,2.921-0.759,3.832-1.82l2.618,3.187c-1.366,1.479-3.718,2.921-6.942,2.921C306.274,54.468,302.746,51.129,302.746,46.121
			z"/>
		<path fill="#485878" d="M333.361,54.012l2.428-11.115c0.076-0.304,0.152-0.796,0.152-1.062c0-1.669-1.366-2.314-3.148-2.314
			c-1.631,0-3.225,1.1-4.287,2.163l-2.693,12.329h-4.856l5.577-25.303h4.855l-2.086,9.332c1.442-1.365,3.414-2.807,6.108-2.807
			c3.528,0,5.728,1.821,5.728,4.666c0,0.379-0.114,1.138-0.189,1.518l-2.769,12.594H333.361z"/>
		<path fill="#485878" d="M359.122,38.117l0.494-2.428h4.855l-4.059,18.323h-4.856l0.531-2.276c-1.556,1.821-3.3,2.732-5.5,2.732
			c-4.135,0-6.98-2.732-6.98-7.588c0-5.538,3.452-11.646,9.674-11.646C355.746,35.234,357.908,36.296,359.122,38.117z
			 M348.651,45.894c0,2.618,1.746,4.287,4.06,4.287c1.707,0,3.224-0.948,4.211-2.2l1.403-6.335
			c-0.797-1.251-2.352-2.125-4.287-2.125C350.89,39.521,348.651,42.518,348.651,45.894z"/>
		<path fill="#485878" d="M377.561,54.012l2.465-11.115c0.077-0.341,0.152-0.721,0.152-1.062c0-1.669-1.365-2.314-3.148-2.314
			c-1.632,0-3.225,1.1-4.287,2.125l-2.731,12.367h-4.818l4.06-18.323h4.818l-0.532,2.352c1.442-1.365,3.415-2.807,6.108-2.807
			c3.528,0,5.729,1.821,5.729,4.666c0,0.341-0.114,1.138-0.189,1.518l-2.77,12.594H377.561z"/>
		<path fill="#485878" d="M385.985,58.261l2.846-3.187c1.176,1.594,3.566,2.428,5.955,2.428c2.239,0,4.438-0.985,5.197-4.704
			l0.38-1.744c-1.366,1.744-3.376,2.807-5.614,2.807c-3.681,0-6.904-2.162-6.904-7.435c0-5.577,3.528-11.191,9.483-11.191
			c2.238,0,4.59,1.1,5.919,2.883l0.568-2.428h4.818l-3.794,17.109c-1.556,6.905-6.032,8.649-9.978,8.649
			C391.258,61.447,388.223,60.613,385.985,58.261z M401.159,47.449l1.29-5.69c-0.873-1.404-2.542-2.238-4.477-2.238
			c-2.996,0-5.121,2.656-5.121,5.956c0,2.465,1.669,4.097,4.174,4.097C398.618,49.573,400.173,48.663,401.159,47.449z"/>
		<path fill="#485878" d="M410.076,46.235c0-5.956,4.476-11.001,10.584-11.001c4.704,0,8.232,3.035,8.232,8.156
			c0,1.1-0.228,2.466-0.379,3.035h-13.62c0,0.114,0,0.341,0,0.455c0,1.556,1.632,3.643,5.046,3.643c1.631,0,3.49-0.456,4.628-1.328
			l1.479,3.377c-1.783,1.213-4.211,1.896-6.486,1.896C413.792,54.468,410.076,51.356,410.076,46.235z M424.567,43.086
			c0.038-0.076,0.038-0.303,0.038-0.379c0-1.858-1.366-3.528-4.249-3.528c-2.618,0-4.552,1.897-4.932,3.907h9.104H424.567z"/>
	</g>
</g>
<g id="E">
	<polyline fill="#F8CF5E" points="1.5,19.687 12.001,37.873 33,37.873 25.126,24.233 19.876,24.233 17.25,19.687 	"/>
	<polyline fill="#F8CF5E" points="17.25,19.687 1.5,19.687 12.001,1.5 33,1.5 25.126,15.14 19.876,15.14 17.25,19.687 	"/>
	<path fill="#353558" d="M33.001,38.623c-0.259,0-0.511-0.135-0.65-0.375l-7.658-13.265h-4.817c-0.268,0-0.516-0.144-0.649-0.375
		l-2.409-4.172H1.5c-0.414,0-0.75-0.336-0.75-0.75s0.336-0.75,0.75-0.75h15.317l2.409-4.172c0.134-0.231,0.381-0.375,0.649-0.375
		h4.817l7.658-13.265c0.208-0.359,0.667-0.481,1.024-0.274c0.359,0.207,0.481,0.666,0.274,1.024l-7.875,13.64
		c-0.134,0.232-0.381,0.375-0.649,0.375h-4.817l-2.192,3.797l2.192,3.797h4.817c0.268,0,0.516,0.143,0.649,0.375l7.875,13.64
		c0.207,0.358,0.084,0.817-0.274,1.024C33.257,38.591,33.128,38.623,33.001,38.623z"/>
	<path fill="#353558" d="M33,39.373h-21c-0.536,0-1.031-0.286-1.299-0.75L0.201,20.437c-0.268-0.464-0.268-1.036,0-1.5L10.702,0.75
		C10.97,0.286,11.465,0,12.001,0h20.971c0.547,0.011,1.045,0.26,1.328,0.75l10.5,18.187c0.268,0.464,0.268,1.036,0,1.5l-10.5,18.187
		C34.032,39.087,33.536,39.373,33,39.373z M12.867,36.373h19.267l9.635-16.687L32.134,3H12.867L3.232,19.687L12.867,36.373z"/>
	<path fill="#353558" d="M12,38.873c-0.169,0-0.341-0.043-0.499-0.134c-0.321-0.186-0.5-0.521-0.5-0.867
		c0-0.17,0.043-0.342,0.134-0.499l10.211-17.687L11.135,2l1.732-1l10.211,17.687h20.423v2H23.078l-10.21,17.687
		C12.682,38.693,12.346,38.873,12,38.873z"/>
</g>
</svg>
