<?xml version="1.0" encoding="UTF-8" standalone="no"?>
<svg width="1262px" height="471px" viewBox="0 0 1262 471" version="1.1" xmlns="http://www.w3.org/2000/svg" xmlns:xlink="http://www.w3.org/1999/xlink" xmlns:sketch="http://www.bohemiancoding.com/sketch/ns">
    <!-- Generator: Sketch 3.1.1 (8761) - http://www.bohemiancoding.com/sketch -->
    <title>Slice 2</title>
    <desc>Created with Sketch.</desc>
    <defs>
        <path id="path-1" d="M0,480 L1280,480 L1280,0 L0,0 L0,480"></path>
    </defs>
    <g id="Page-1" stroke="none" stroke-width="1" fill="none" fill-rule="evenodd" sketch:type="MSPage">
        <g id="Group-320" sketch:type="MSLayerGroup" transform="translate(-9.000000, -70.000000)">
            <g id="Group-141" transform="translate(0.000000, 70.000000)">
                <path d="M504.6558,155.016 C503.8348,155.016 503.0248,154.637 502.5048,153.921 C501.6428,152.735 501.9058,151.074 503.0928,150.212 L628.1388,59.361 C629.3258,58.5 630.9868,58.763 631.8488,59.949 C632.7098,61.135 632.4478,62.796 631.2608,63.658 L506.2138,154.509 C505.7428,154.851 505.1968,155.016 504.6558,155.016 L504.6558,155.016 Z" id="Stroke-5" stroke="#00BFBC" stroke-width="0.6" sketch:type="MSShapeGroup"></path>
                <path d="M639.5015,197.094 C638.0355,197.094 636.8465,195.905 636.8465,194.439 L636.8465,66.51 C636.8465,65.043 638.0355,63.854 639.5015,63.854 C640.9685,63.854 642.1575,65.043 642.1575,66.51 L642.1575,194.439 C642.1575,195.905 640.9685,197.094 639.5015,197.094 L639.5015,197.094 Z" id="Stroke-7" stroke="#00BFBC" stroke-width="0.6" sketch:type="MSShapeGroup"></path>
                <path d="M628.0366,205.423 C627.7646,205.423 627.4886,205.381 627.2156,205.292 L505.5576,165.755 C504.1626,165.302 503.3996,163.804 503.8526,162.409 C504.3066,161.015 505.8026,160.251 507.1986,160.705 L628.8566,200.241 C630.2516,200.695 631.0146,202.193 630.5616,203.588 C630.1966,204.71 629.1556,205.423 628.0366,205.423 L628.0366,205.423 Z" id="Stroke-9" stroke="#00BFBC" stroke-width="0.6" sketch:type="MSShapeGroup"></path>
                <path d="M546.3599,320.663 C545.2409,320.663 544.1989,319.949 543.8349,318.827 L496.0729,171.821 C495.6199,170.426 496.3829,168.928 497.7779,168.476 C499.1749,168.022 500.6719,168.786 501.1239,170.18 L548.8859,317.186 C549.3389,318.581 548.5759,320.079 547.1809,320.532 C546.9079,320.621 546.6319,320.663 546.3599,320.663 L546.3599,320.663 Z" id="Stroke-11" stroke="#00BFBC" stroke-width="0.6" sketch:type="MSShapeGroup"></path>
                <path d="M557.228,322.382 C556.686,322.382 556.141,322.217 555.669,321.874 C554.482,321.013 554.22,319.352 555.082,318.165 L630.265,214.682 C631.126,213.495 632.787,213.234 633.975,214.095 C635.161,214.957 635.424,216.617 634.562,217.804 L559.378,321.287 C558.859,322.002 558.049,322.382 557.228,322.382 L557.228,322.382 Z" id="Stroke-13" stroke="#00BFBC" stroke-width="0.6" sketch:type="MSShapeGroup"></path>
                <path d="M716.7871,332.185 L562.2181,332.185 C560.7511,332.185 559.5621,330.997 559.5621,329.53 C559.5621,328.063 560.7511,326.874 562.2181,326.874 L716.7871,326.874 C718.2541,326.874 719.4421,328.063 719.4421,329.53 C719.4421,330.997 718.2541,332.185 716.7871,332.185 L716.7871,332.185 Z" id="Stroke-15" stroke="#00BFBC" stroke-width="0.6" sketch:type="MSShapeGroup"></path>
                <path d="M721.7773,322.382 C720.9553,322.382 720.1463,322.002 719.6273,321.287 L644.4423,217.804 C643.5803,216.617 643.8433,214.957 645.0293,214.095 C646.2173,213.233 647.8773,213.497 648.7383,214.682 L723.9233,318.165 C724.7853,319.352 724.5213,321.013 723.3363,321.874 C722.8633,322.217 722.3183,322.382 721.7773,322.382 L721.7773,322.382 Z" id="Stroke-17" stroke="#00BFBC" stroke-width="0.6" sketch:type="MSShapeGroup"></path>
                <path d="M732.6396,320.663 C732.3676,320.663 732.0906,320.621 731.8186,320.532 C730.4236,320.079 729.6606,318.581 730.1136,317.186 L777.8786,170.18 C778.3326,168.785 779.8336,168.023 781.2256,168.476 C782.6196,168.928 783.3836,170.426 782.9306,171.821 L735.1646,318.827 C734.7996,319.949 733.7586,320.663 732.6396,320.663 L732.6396,320.663 Z" id="Stroke-19" stroke="#00BFBC" stroke-width="0.6" sketch:type="MSShapeGroup"></path>
                <path d="M650.9629,205.423 C649.8429,205.423 648.8029,204.71 648.4379,203.588 C647.9839,202.193 648.7479,200.695 650.1439,200.241 L771.8049,160.705 C773.1979,160.253 774.6979,161.015 775.1509,162.409 C775.6049,163.804 774.8409,165.302 773.4449,165.755 L651.7829,205.292 C651.5119,205.381 651.2339,205.423 650.9629,205.423 L650.9629,205.423 Z" id="Stroke-21" stroke="#00BFBC" stroke-width="0.6" sketch:type="MSShapeGroup"></path>
                <path d="M774.3428,155.016 C773.8018,155.016 773.2568,154.851 772.7838,154.509 L647.7428,63.658 C646.5568,62.796 646.2928,61.135 647.1558,59.949 C648.0168,58.762 649.6768,58.499 650.8648,59.361 L775.9058,150.212 C777.0928,151.074 777.3568,152.735 776.4928,153.921 C775.9748,154.637 775.1638,155.016 774.3428,155.016 L774.3428,155.016 Z" id="Stroke-23" stroke="#00BFBC" stroke-width="0.6" sketch:type="MSShapeGroup"></path>
                <mask id="mask-2" sketch:name="Clip 26" fill="white">
                    <use xlink:href="#path-1"></use>
                </mask>
                <g id="Clip-26"></g>
                <path d="M784.1475,168.938 C782.9405,168.938 781.7705,168.715 780.6735,168.276 C779.4495,167.792 778.3685,167.085 777.4525,166.168 C776.5385,165.25 775.8315,164.171 775.3555,162.968 C774.9095,161.85 774.6845,160.682 774.6845,159.487 C774.6845,158.303 774.9105,157.131 775.3565,156.002 C775.8265,154.801 776.5335,153.726 777.4605,152.799 C778.3005,151.958 779.2855,151.289 780.3835,150.811 C780.4975,150.759 780.5515,150.735 780.6105,150.713 C781.7815,150.247 782.9505,150.024 784.1565,150.024 C785.3655,150.024 786.5065,150.242 787.6435,150.69 C788.8565,151.168 789.9305,151.874 790.8375,152.788 C791.7785,153.725 792.4655,154.771 792.9495,155.997 C793.3965,157.119 793.6125,158.254 793.6125,159.479 C793.6125,160.703 793.3965,161.839 792.9535,162.951 C792.4655,164.186 791.7785,165.232 790.8485,166.159 C789.9215,167.085 788.8415,167.795 787.6335,168.272 C787.2675,168.417 786.8925,168.54 786.5135,168.638 C785.7515,168.837 784.9555,168.938 784.1475,168.938" id="Fill-25" fill="#93C4D2" sketch:type="MSShapeGroup" mask="url(#mask-2)"></path>
                <path d="M728.9053,338.992 C727.6943,338.992 726.5563,338.773 725.4283,338.324 C724.2003,337.841 723.1523,337.152 722.2173,336.217 C721.7143,335.721 721.2803,335.175 720.8773,334.531 C720.5853,334.065 720.3213,333.543 720.0933,332.982 C719.6663,331.888 719.4423,330.713 719.4423,329.52 C719.4423,328.311 719.6593,327.169 720.1063,326.026 C720.5843,324.815 721.2723,323.767 722.2093,322.831 C723.1313,321.908 724.1823,321.219 725.4223,320.722 C726.5473,320.283 727.6893,320.065 728.8963,320.065 C730.0923,320.065 731.2663,320.288 732.3843,320.727 C733.5813,321.206 734.6623,321.918 735.5853,322.841 C735.7233,322.979 735.8623,323.124 735.9943,323.276 C736.7213,324.098 737.2913,325.027 737.7033,326.054 C738.1373,327.159 738.3603,328.336 738.3603,329.539 C738.3603,330.744 738.1423,331.887 737.6953,333.03 C737.2133,334.227 736.5043,335.307 735.5943,336.216 C734.6573,337.152 733.6103,337.841 732.3913,338.32 C731.2543,338.773 730.1163,338.992 728.9053,338.992" id="Fill-27" fill="#93C4D2" sketch:type="MSShapeGroup" mask="url(#mask-2)"></path>
                <path d="M550.0942,338.992 C548.8992,338.992 547.7312,338.767 546.6232,338.325 C545.3922,337.84 544.3472,337.153 543.4172,336.22 C542.4952,335.305 541.7892,334.232 541.3082,333.018 C540.8612,331.887 540.6432,330.748 540.6432,329.539 C540.6432,328.333 540.8672,327.158 541.3082,326.047 C541.7142,325.025 542.2822,324.098 542.9942,323.293 C543.1352,323.132 543.2612,322.994 543.3962,322.863 C544.3442,321.916 545.4252,321.204 546.6302,320.726 C547.7392,320.288 548.9112,320.065 550.1122,320.065 C551.3022,320.065 552.4742,320.289 553.5962,320.728 C554.8202,321.219 555.8722,321.908 556.7962,322.833 C557.7272,323.767 558.4152,324.815 558.8952,326.033 C559.3452,327.164 559.5622,328.303 559.5622,329.52 C559.5622,330.729 559.3442,331.87 558.8952,333.006 C558.6802,333.546 558.4192,334.064 558.1242,334.535 C557.7422,335.15 557.2962,335.712 556.7952,336.209 C555.8512,337.153 554.8022,337.841 553.5832,338.32 C552.4452,338.774 551.3082,338.992 550.0942,338.992" id="Fill-28" fill="#93C4D2" sketch:type="MSShapeGroup" mask="url(#mask-2)"></path>
                <path d="M639.5015,63.854 C638.3085,63.854 637.1385,63.63 636.0235,63.189 C634.7995,62.707 633.7515,62.018 632.8185,61.083 C631.8845,60.15 631.1965,59.101 630.7135,57.877 C630.3565,56.979 630.1485,56.082 630.0735,55.125 C630.0525,54.872 630.0475,54.63 630.0475,54.386 C630.0475,53.165 630.2645,52.026 630.7105,50.903 C631.1965,49.67 631.8845,48.622 632.8175,47.69 C633.7515,46.759 634.8015,46.068 636.0255,45.583 C637.1305,45.146 638.3005,44.923 639.5015,44.923 C640.7025,44.923 641.8715,45.146 642.9735,45.583 C644.1915,46.066 645.2695,46.774 646.1795,47.688 C647.1115,48.62 647.8045,49.672 648.2995,50.91 C648.7395,52.033 648.9565,53.175 648.9565,54.386 C648.9565,54.631 648.9505,54.877 648.9315,55.122 C648.8575,56.054 648.6415,56.986 648.2915,57.89 C647.8045,59.101 647.1125,60.153 646.1815,61.083 C645.2695,62.002 644.1935,62.708 642.9785,63.188 C641.8635,63.631 640.6955,63.854 639.5015,63.854" id="Fill-29" fill="#93C4D2" sketch:type="MSShapeGroup" mask="url(#mask-2)"></path>
                <path d="M494.8555,168.938 C494.0485,168.938 493.2525,168.837 492.4905,168.639 C492.1105,168.54 491.7365,168.418 491.3775,168.275 C490.1455,167.79 489.0965,167.1 488.1595,166.163 C487.2245,165.232 486.5375,164.186 486.0545,162.96 C485.6125,161.842 485.3885,160.672 485.3885,159.479 C485.3885,158.269 485.6055,157.131 486.0535,155.999 C486.5315,154.789 487.2375,153.711 488.1545,152.795 C489.0875,151.861 490.1365,151.173 491.3605,150.69 C492.4795,150.248 493.6505,150.024 494.8475,150.024 C496.0495,150.024 497.2215,150.248 498.3315,150.688 C498.4485,150.733 498.5215,150.765 498.5975,150.799 C499.7185,151.287 500.7015,151.956 501.5445,152.799 C502.4635,153.719 503.1735,154.798 503.6555,156.009 C504.0915,157.116 504.3145,158.289 504.3145,159.487 C504.3145,160.688 504.0925,161.858 503.6535,162.966 C503.1735,164.172 502.4645,165.251 501.5475,166.167 C500.6145,167.102 499.5665,167.79 498.3455,168.272 C497.2165,168.721 496.0765,168.938 494.8555,168.938" id="Fill-30" fill="#93C4D2" sketch:type="MSShapeGroup" mask="url(#mask-2)"></path>
                <path d="M493.7246,150.076 C492.3696,150.076 491.2126,149.043 491.0836,147.667 L477.0636,-2.597 C476.9266,-4.058 478.0006,-5.352 479.4606,-5.488 C480.9146,-5.632 482.2146,-4.551 482.3506,-3.091 L496.3706,147.174 C496.5076,148.634 495.4346,149.928 493.9746,150.064 C493.8906,150.073 493.8076,150.076 493.7246,150.076 L493.7246,150.076 Z" id="Stroke-31" stroke="#00BFBC" stroke-width="0.75" sketch:type="MSShapeGroup" mask="url(#mask-2)"></path>
                <path d="M483.3257,158.388 C483.0537,158.388 482.7767,158.346 482.5037,158.257 L342.3137,112.665 C340.9187,112.211 340.1557,110.713 340.6097,109.319 C341.0627,107.924 342.5637,107.162 343.9557,107.615 L484.1467,153.206 C485.5407,153.66 486.3037,155.158 485.8507,156.553 C485.4857,157.675 484.4447,158.388 483.3257,158.388 L483.3257,158.388 Z" id="Stroke-32" stroke="#00BFBC" stroke-width="0.75" sketch:type="MSShapeGroup" mask="url(#mask-2)"></path>
                <path d="M628.376,52.246 C628.025,52.246 627.668,52.176 627.325,52.028 L488.778,-7.757 C487.431,-8.338 486.811,-9.901 487.392,-11.248 C487.973,-12.594 489.535,-13.215 490.882,-12.633 L629.429,47.152 C630.776,47.732 631.397,49.295 630.815,50.642 C630.382,51.645 629.403,52.246 628.376,52.246 L628.376,52.246 Z" id="Stroke-33" stroke="#00BFBC" stroke-width="0.75" sketch:type="MSShapeGroup" mask="url(#mask-2)"></path>
                <path d="M639.5015,44.924 C638.0355,44.924 636.8465,43.735 636.8465,42.269 L636.8465,-105.187 C636.8465,-106.653 638.0355,-107.842 639.5015,-107.842 C640.9685,-107.842 642.1575,-106.653 642.1575,-105.187 L642.1575,42.269 C642.1575,43.735 640.9685,44.924 639.5015,44.924 L639.5015,44.924 Z" id="Stroke-34" stroke="#00BFBC" stroke-width="0.75" sketch:type="MSShapeGroup" mask="url(#mask-2)"></path>
                <path d="M538.2891,329.523 C538.0961,329.523 537.9001,329.502 537.7041,329.457 L390.4871,296.342 C389.0561,296.021 388.1571,294.6 388.4791,293.169 C388.8001,291.739 390.2221,290.839 391.6521,291.162 L538.8691,324.276 C540.3001,324.597 541.1991,326.018 540.8771,327.449 C540.6001,328.683 539.5041,329.523 538.2891,329.523 L538.2891,329.523 Z" id="Stroke-35" stroke="#00BFBC" stroke-width="0.75" sketch:type="MSShapeGroup" mask="url(#mask-2)"></path>
                <path d="M456.3369,461.1943 C455.7949,461.1943 455.2499,461.0293 454.7779,460.6873 C453.5919,459.8253 453.3289,458.1643 454.1909,456.9783 L540.8279,337.7703 C541.6899,336.5833 543.3499,336.3213 544.5369,337.1833 C545.7229,338.0453 545.9859,339.7063 545.1239,340.8923 L458.4869,460.1003 C457.9679,460.8153 457.1579,461.1943 456.3369,461.1943 L456.3369,461.1943 Z" id="Stroke-36" stroke="#00BFBC" stroke-width="0.75" sketch:type="MSShapeGroup" mask="url(#mask-2)"></path>
                <path d="M387.2041,284.505 C386.5811,284.505 385.9551,284.287 385.4511,283.844 C384.3501,282.875 384.2431,281.197 385.2111,280.096 L484.8581,166.823 C485.8271,165.721 487.5061,165.615 488.6051,166.583 C489.7071,167.551 489.8141,169.229 488.8461,170.33 L389.1991,283.604 C388.6741,284.2 387.9411,284.505 387.2041,284.505 L387.2041,284.505 Z" id="Stroke-37" stroke="#00BFBC" stroke-width="0.75" sketch:type="MSShapeGroup" mask="url(#mask-2)"></path>
                <path d="M633.251,472.3535 C632.344,472.3535 631.461,471.8885 630.965,471.0515 L554,341.2995 C553.251,340.0385 553.667,338.4095 554.929,337.6615 C556.189,336.9135 557.819,337.3285 558.567,338.5905 L635.532,468.3425 C636.28,469.6045 635.864,471.2335 634.603,471.9815 C634.178,472.2335 633.711,472.3535 633.251,472.3535 L633.251,472.3535 Z" id="Stroke-38" stroke="#00BFBC" stroke-width="0.75" sketch:type="MSShapeGroup" mask="url(#mask-2)"></path>
                <path d="M645.7578,472.3535 C645.2968,472.3535 644.8308,472.2335 644.4058,471.9815 C643.1448,471.2335 642.7288,469.6045 643.4768,468.3425 L720.4328,338.5905 C721.1808,337.3285 722.8118,336.9145 724.0708,337.6615 C725.3318,338.4095 725.7478,340.0385 724.9998,341.2995 L648.0438,471.0515 C647.5478,471.8885 646.6648,472.3535 645.7578,472.3535 L645.7578,472.3535 Z" id="Stroke-39" stroke="#00BFBC" stroke-width="0.75" sketch:type="MSShapeGroup" mask="url(#mask-2)"></path>
                <path d="M822.667,461.1943 C821.846,461.1943 821.036,460.8153 820.517,460.1003 L733.88,340.8923 C733.019,339.7063 733.281,338.0453 734.467,337.1833 C735.654,336.3223 737.315,336.5853 738.177,337.7703 L824.813,456.9783 C825.675,458.1643 825.412,459.8253 824.226,460.6873 C823.755,461.0293 823.208,461.1943 822.667,461.1943 L822.667,461.1943 Z" id="Stroke-40" stroke="#00BFBC" stroke-width="0.75" sketch:type="MSShapeGroup" mask="url(#mask-2)"></path>
                <path d="M891.7988,284.505 C891.0628,284.505 890.3288,284.2 889.8038,283.604 L790.1578,170.33 C789.1898,169.229 789.2968,167.551 790.3988,166.583 C791.4978,165.615 793.1758,165.721 794.1468,166.823 L893.7918,280.096 C894.7608,281.197 894.6528,282.875 893.5518,283.844 C893.0478,284.287 892.4218,284.505 891.7988,284.505 L891.7988,284.505 Z" id="Stroke-41" stroke="#00BFBC" stroke-width="0.75" sketch:type="MSShapeGroup" mask="url(#mask-2)"></path>
                <path d="M795.6777,158.388 C794.5597,158.388 793.5187,157.675 793.1537,156.553 C792.6997,155.158 793.4627,153.66 794.8577,153.206 L935.0517,107.615 C936.4427,107.162 937.9447,107.923 938.3987,109.319 C938.8517,110.713 938.0887,112.211 936.6947,112.665 L796.4997,158.257 C796.2277,158.346 795.9497,158.388 795.6777,158.388 L795.6777,158.388 Z" id="Stroke-42" stroke="#00BFBC" stroke-width="0.75" sketch:type="MSShapeGroup" mask="url(#mask-2)"></path>
                <path d="M740.7187,329.523 C739.5037,329.523 738.4077,328.684 738.1307,327.449 C737.8087,326.018 738.7077,324.597 740.1387,324.276 L887.3517,291.162 C888.7857,290.84 890.2027,291.738 890.5257,293.169 C890.8467,294.6 889.9477,296.021 888.5167,296.342 L741.3037,329.457 C741.1077,329.502 740.9107,329.523 740.7187,329.523 L740.7187,329.523 Z" id="Stroke-43" stroke="#00BFBC" stroke-width="0.75" sketch:type="MSShapeGroup" mask="url(#mask-2)"></path>
                <path d="M650.627,52.246 C649.6,52.246 648.621,51.645 648.188,50.642 C647.607,49.295 648.228,47.732 649.574,47.152 L788.127,-12.633 C789.467,-13.214 791.035,-12.595 791.617,-11.248 C792.197,-9.901 791.577,-8.338 790.231,-7.757 L651.678,52.028 C651.336,52.175 650.979,52.246 650.627,52.246 L650.627,52.246 Z" id="Stroke-44" stroke="#00BFBC" stroke-width="0.75" sketch:type="MSShapeGroup" mask="url(#mask-2)"></path>
                <path d="M785.2754,150.076 C785.1914,150.076 785.1094,150.073 785.0254,150.064 C783.5644,149.928 782.4914,148.634 782.6274,147.174 L796.6474,-3.091 C796.7844,-4.551 798.0834,-5.632 799.5384,-5.488 C800.9994,-5.352 802.0714,-4.058 801.9354,-2.597 L787.9164,147.667 C787.7874,149.043 786.6294,150.076 785.2754,150.076 L785.2754,150.076 Z" id="Stroke-45" stroke="#00BFBC" stroke-width="0.75" sketch:type="MSShapeGroup" mask="url(#mask-2)"></path>
                <path d="M340.897,101.122 C340.132,101.122 339.373,100.793 338.847,100.156 C337.914,99.025 338.075,97.351 339.207,96.418 L467.434,-9.314 C468.565,-10.246 470.239,-10.086 471.172,-8.954 C472.105,-7.823 471.944,-6.149 470.813,-5.216 L342.585,100.515 C342.09,100.923 341.492,101.122 340.897,101.122 L340.897,101.122 Z" id="Stroke-46" stroke="#00BFBC" stroke-width="0.75" sketch:type="MSShapeGroup" mask="url(#mask-2)"></path>
                <path d="M444.5498,459.7168 C443.4908,459.7168 442.4898,459.0788 442.0788,458.0338 L381.1268,303.4208 C380.5888,302.0568 381.2588,300.5148 382.6228,299.9768 C383.9868,299.4398 385.5298,300.1098 386.0678,301.4728 L447.0198,456.0858 C447.5568,457.4508 446.8868,458.9928 445.5228,459.5308 C445.2028,459.6568 444.8738,459.7168 444.5498,459.7168 L444.5498,459.7168 Z" id="Stroke-47" stroke="#00BFBC" stroke-width="0.75" sketch:type="MSShapeGroup" mask="url(#mask-2)"></path>
                <path d="M376.0444,281.861 C374.8624,281.861 373.7844,281.065 373.4754,279.868 L331.8934,118.92 C331.5274,117.5 332.3804,116.052 333.8004,115.685 C335.2254,115.319 336.6694,116.173 337.0364,117.592 L378.6174,278.541 C378.9834,279.96 378.1294,281.409 376.7104,281.775 C376.4874,281.833 376.2634,281.861 376.0444,281.861 L376.0444,281.861 Z" id="Stroke-48" stroke="#00BFBC" stroke-width="0.75" sketch:type="MSShapeGroup" mask="url(#mask-2)"></path>
                <path d="M627.2822,482.1465 C627.2272,482.1465 627.1722,482.1445 627.1162,482.1415 L461.2192,471.9425 C459.7552,471.8525 458.6412,470.5925 458.7322,469.1295 C458.8222,467.6665 460.0942,466.5525 461.5452,466.6425 L627.4422,476.8405 C628.9062,476.9305 630.0202,478.1905 629.9292,479.6545 C629.8432,481.0625 628.6742,482.1465 627.2822,482.1465 L627.2822,482.1465 Z" id="Stroke-49" stroke="#00BFBC" stroke-width="0.75" sketch:type="MSShapeGroup" mask="url(#mask-2)"></path>
                <path d="M651.7217,482.1465 C650.3287,482.1465 649.1597,481.0625 649.0747,479.6545 C648.9847,478.1905 650.0977,476.9305 651.5607,476.8405 L817.4527,466.6425 C818.9467,466.5525 820.1767,467.6665 820.2667,469.1285 C820.3567,470.5925 819.2427,471.8525 817.7807,471.9425 L651.8877,482.1415 C651.8307,482.1445 651.7767,482.1465 651.7217,482.1465 L651.7217,482.1465 Z" id="Stroke-50" stroke="#00BFBC" stroke-width="0.75" sketch:type="MSShapeGroup" mask="url(#mask-2)"></path>
                <path d="M902.959,281.861 C902.739,281.861 902.516,281.833 902.293,281.775 C900.873,281.409 900.02,279.96 900.387,278.54 L941.973,117.592 C942.34,116.173 943.784,115.319 945.208,115.685 C946.627,116.052 947.48,117.501 947.113,118.92 L905.528,279.869 C905.219,281.065 904.141,281.861 902.959,281.861 L902.959,281.861 Z" id="Stroke-51" stroke="#00BFBC" stroke-width="0.75" sketch:type="MSShapeGroup" mask="url(#mask-2)"></path>
                <path d="M834.4541,459.7168 C834.1301,459.7168 833.8011,459.6568 833.4801,459.5308 C832.1171,458.9928 831.4471,457.4508 831.9841,456.0858 L892.9331,301.4728 C893.4701,300.1098 895.0131,299.4388 896.3771,299.9768 C897.7411,300.5148 898.4111,302.0568 897.8731,303.4208 L836.9261,458.0338 C836.5141,459.0788 835.5131,459.7168 834.4541,459.7168 L834.4541,459.7168 Z" id="Stroke-52" stroke="#00BFBC" stroke-width="0.75" sketch:type="MSShapeGroup" mask="url(#mask-2)"></path>
                <path d="M938.1104,101.122 C937.5154,101.122 936.9174,100.923 936.4234,100.515 L808.1914,-5.216 C807.0594,-6.149 806.8984,-7.823 807.8324,-8.954 C808.7644,-10.086 810.4374,-10.247 811.5694,-9.314 L939.8004,96.418 C940.9324,97.351 941.0934,99.025 940.1604,100.156 C939.6354,100.793 938.8764,101.122 938.1104,101.122 L938.1104,101.122 Z" id="Stroke-53" stroke="#00BFBC" stroke-width="0.75" sketch:type="MSShapeGroup" mask="url(#mask-2)"></path>
                <path d="M899.916,300.648 C898.787,300.648 897.682,300.453 896.627,300.066 L896.49,300.02 L896.42,299.992 C895.136,299.481 894.032,298.758 893.09,297.822 C892.168,296.895 891.445,295.794 890.953,294.563 C890.513,293.45 890.288,292.26 890.288,291.038 C890.288,289.826 890.513,288.642 890.957,287.52 C891.442,286.299 892.159,285.208 893.087,284.281 C894.03,283.331 895.091,282.633 896.337,282.14 C897.479,281.691 898.674,281.462 899.88,281.462 C900.722,281.462 901.53,281.568 902.353,281.787 C902.695,281.877 903.051,281.994 903.456,282.149 C904.682,282.638 905.752,283.342 906.697,284.288 C907.631,285.214 908.349,286.308 908.838,287.544 C909.288,288.683 909.517,289.869 909.517,291.072 C909.517,292.304 909.296,293.45 908.843,294.578 C908.347,295.834 907.65,296.895 906.708,297.836 C905.763,298.781 904.701,299.477 903.46,299.968 C902.312,300.426 901.156,300.648 899.916,300.648" id="Fill-54" fill="#93C4D2" sketch:type="MSShapeGroup" mask="url(#mask-2)"></path>
                <path d="M379.0889,300.648 C377.8659,300.648 376.6759,300.42 375.5529,299.972 C374.3029,299.478 373.2379,298.78 372.2889,297.835 C371.3499,296.896 370.6529,295.835 370.1609,294.589 C369.7109,293.45 369.4909,292.299 369.4909,291.072 C369.4909,289.855 369.7169,288.67 370.1629,287.55 C370.6539,286.312 371.3729,285.217 372.3009,284.293 C373.2459,283.345 374.3159,282.643 375.5799,282.136 C375.9539,281.994 376.3089,281.877 376.6349,281.793 C377.4599,281.571 378.2879,281.462 379.1189,281.462 C380.3249,281.462 381.5199,281.691 382.6689,282.142 C383.9069,282.632 384.9699,283.331 385.9119,284.277 C386.8429,285.208 387.5609,286.299 388.0479,287.525 C388.4909,288.644 388.7169,289.828 388.7169,291.038 C388.7169,292.252 388.4899,293.442 388.0439,294.58 C387.5559,295.8 386.8339,296.9 385.9039,297.832 C384.9699,298.759 383.8669,299.482 382.6359,299.969 L382.4879,300.029 L382.3779,300.066 C381.3229,300.453 380.2159,300.648 379.0889,300.648" id="Fill-55" fill="#93C4D2" sketch:type="MSShapeGroup" mask="url(#mask-2)"></path>
                <path d="M947.5693,115.985 C946.3593,115.985 945.1683,115.756 944.0263,115.303 C942.7723,114.81 941.7043,114.108 940.7543,113.153 C939.8083,112.212 939.0873,111.115 938.6023,109.886 C938.1443,108.739 937.9233,107.581 937.9233,106.336 C937.9233,105.116 938.1523,103.919 938.6023,102.775 C939.0903,101.542 939.8183,100.437 940.7633,99.496 C941.7073,98.546 942.8133,97.82 944.0633,97.328 L944.1533,97.291 C945.3143,96.851 946.4733,96.639 947.6543,96.639 C948.8983,96.639 950.0653,96.862 951.2223,97.321 C952.4803,97.817 953.5523,98.521 954.5083,99.476 C955.4483,100.416 956.1713,101.515 956.6543,102.742 C957.1063,103.875 957.3343,105.066 957.3343,106.289 C957.3343,107.516 957.1113,108.682 956.6533,109.853 C956.1563,111.101 955.4473,112.179 954.4903,113.138 C953.5303,114.093 952.4493,114.803 951.1873,115.304 C950.9233,115.407 950.6403,115.507 950.3443,115.594 C949.4593,115.854 948.5393,115.985 947.6023,115.985 L947.5693,115.985 Z" id="Fill-56" fill="#93C4D2" sketch:type="MSShapeGroup" mask="url(#mask-2)"></path>
                <path d="M829.9756,478.2363 C828.7316,478.2283 827.5296,477.9983 826.4026,477.5493 C825.1436,477.0493 824.0656,476.3413 823.1096,475.3843 C822.6596,474.9413 822.2696,474.4703 821.9326,473.9683 C821.5296,473.3753 821.2046,472.7583 820.9276,472.0703 C820.4766,470.9263 820.2546,469.7563 820.2546,468.5063 C820.2546,467.2543 820.4766,466.0863 820.9326,464.9363 C821.4216,463.6923 822.1236,462.6263 823.0806,461.6713 C824.0196,460.7263 825.1136,460.0063 826.3426,459.5233 C827.4776,459.0703 828.6696,458.8423 829.8996,458.8423 C831.1166,458.8423 832.3206,459.0723 833.4796,459.5253 C834.7136,460.0143 835.7916,460.7263 836.7616,461.6953 C837.0426,461.9693 837.2756,462.2283 837.4966,462.5073 C838.1046,463.2753 838.5866,464.1083 838.9346,464.9913 C839.3856,466.1303 839.6136,467.3333 839.6136,468.5743 C839.6136,469.8273 839.3936,470.9903 838.9386,472.1283 C838.4516,473.3683 837.7296,474.4673 836.7876,475.4093 C835.8416,476.3553 834.7716,477.0583 833.5116,477.5623 C832.3806,478.0063 831.1846,478.2353 829.9756,478.2363" id="Fill-57" fill="#93C4D2" sketch:type="MSShapeGroup" mask="url(#mask-2)"></path>
                <path d="M449.0283,478.2363 C447.8193,478.2353 446.6213,478.0063 445.4683,477.5543 C444.2263,477.0563 443.1543,476.3523 442.2133,475.4103 C441.2743,474.4683 440.5523,473.3683 440.0703,472.1403 C439.6083,470.9813 439.3853,469.8183 439.3853,468.5743 C439.3853,467.3413 439.6153,466.1383 440.0673,464.9963 C440.4233,464.1013 440.9063,463.2673 441.5033,462.5183 C441.7313,462.2263 441.9633,461.9673 442.2293,461.7033 C443.1903,460.7433 444.3013,460.0113 445.5413,459.5193 C446.6843,459.0723 447.8863,458.8423 449.1033,458.8423 C450.3323,458.8423 451.5273,459.0703 452.6563,459.5193 C453.9033,460.0113 454.9693,460.7133 455.9263,461.6693 C456.8793,462.6223 457.5793,463.6883 458.0693,464.9303 C458.5293,466.0933 458.7533,467.2603 458.7533,468.5063 C458.7533,469.7493 458.5293,470.9203 458.0693,472.0863 C457.8083,472.7363 457.4713,473.3743 457.0733,473.9643 C456.7233,474.4813 456.3403,474.9463 455.9053,475.3793 C454.9463,476.3383 453.8653,477.0473 452.5963,477.5503 C451.4723,477.9983 450.2723,478.2283 449.0283,478.2363" id="Fill-58" fill="#93C4D2" sketch:type="MSShapeGroup" mask="url(#mask-2)"></path>
                <path d="M331.4077,115.985 C330.4547,115.985 329.5597,115.858 328.6637,115.595 C328.3717,115.509 328.0837,115.408 327.7997,115.297 C326.5537,114.803 325.4727,114.093 324.5107,113.134 C323.5557,112.178 322.8477,111.102 322.3517,109.846 C321.8917,108.689 321.6697,107.527 321.6697,106.289 C321.6697,105.074 321.8977,103.881 322.3477,102.745 C322.8447,101.494 323.5477,100.423 324.4957,99.475 C325.4347,98.536 326.5377,97.812 327.7757,97.321 C328.9357,96.863 330.1067,96.639 331.3527,96.639 C332.5337,96.639 333.6907,96.85 334.7917,97.267 L334.9307,97.323 C336.1847,97.817 337.2937,98.546 338.2407,99.492 C339.1857,100.437 339.9127,101.543 340.4017,102.779 C340.8507,103.92 341.0797,105.118 341.0797,106.336 C341.0797,107.58 340.8587,108.738 340.4047,109.878 C339.9137,111.12 339.1947,112.216 338.2617,113.146 C337.3007,114.107 336.2297,114.81 334.9827,115.301 C333.8177,115.762 332.6577,115.985 331.4347,115.985 L331.4077,115.985 Z" id="Fill-59" fill="#93C4D2" sketch:type="MSShapeGroup" mask="url(#mask-2)"></path>
                <path d="M639.5015,489.8623 C638.2745,489.8623 637.1225,489.6423 635.9775,489.1903 C634.7515,488.7053 633.6595,487.9873 632.7375,487.0583 C631.7975,486.1233 631.0795,485.0273 630.5915,483.7953 C630.1405,482.6643 629.9135,481.4723 629.9135,480.2433 L629.9325,479.6183 C630.0005,478.6133 630.2215,477.6333 630.5905,476.7013 C631.0785,475.4673 631.7975,474.3733 632.7285,473.4453 C633.6595,472.5073 634.7505,471.7893 635.9805,471.3013 C637.1205,470.8523 638.2735,470.6333 639.5015,470.6333 C640.7305,470.6333 641.8805,470.8513 643.0185,471.3013 C644.2635,471.7943 645.3285,472.4933 646.2755,473.4413 C647.2105,474.3773 647.9315,475.4723 648.4165,476.6993 C648.7915,477.6543 649.0135,478.6493 649.0745,479.6503 L649.0945,480.2853 C649.0895,481.4823 648.8605,482.6653 648.4145,483.8003 C647.9315,485.0223 647.2105,486.1183 646.2765,487.0523 C645.3285,488.0013 644.2635,488.7003 643.0205,489.1913 C641.8795,489.6423 640.7295,489.8623 639.5015,489.8623" id="Fill-60" fill="#93C4D2" sketch:type="MSShapeGroup" mask="url(#mask-2)"></path>
                <path d="M193.4185,51.955 C192.7685,51.955 192.1175,51.718 191.6055,51.239 C190.5345,50.238 190.4785,48.558 191.4795,47.486 L298.7065,-67.213 C299.7075,-68.285 301.3875,-68.341 302.4595,-67.339 C303.5305,-66.338 303.5865,-64.658 302.5855,-63.587 L195.3585,51.113 C194.8355,51.672 194.1275,51.955 193.4185,51.955 L193.4185,51.955 Z" id="Stroke-61" stroke="#00BFBC" stroke-width="0.9" sketch:type="MSShapeGroup" mask="url(#mask-2)"></path>
                <path d="M329.876,96.727 C328.553,96.727 327.408,95.74 327.244,94.394 L308.124,-61.748 C307.945,-63.204 308.98,-64.528 310.436,-64.707 C311.897,-64.885 313.216,-63.85 313.395,-62.394 L332.515,93.748 C332.693,95.204 331.658,96.529 330.202,96.707 C330.092,96.72 329.983,96.727 329.876,96.727 L329.876,96.727 Z" id="Stroke-62" stroke="#00BFBC" stroke-width="0.9" sketch:type="MSShapeGroup" mask="url(#mask-2)"></path>
                <path d="M319.6196,105.142 C319.3476,105.142 319.0706,105.1 318.7966,105.011 L196.0676,65.062 C194.6736,64.609 193.9106,63.11 194.3646,61.716 C194.8186,60.322 196.3176,59.558 197.7116,60.013 L320.4406,99.961 C321.8356,100.414 322.5986,101.913 322.1436,103.308 C321.7796,104.429 320.7386,105.142 319.6196,105.142 L319.6196,105.142 Z" id="Stroke-63" stroke="#00BFBC" stroke-width="0.9" sketch:type="MSShapeGroup" mask="url(#mask-2)"></path>
                <path d="M352.3003,584.7236 C351.3643,584.7236 350.4583,584.2286 349.9733,583.3536 L273.9983,445.9506 C273.2883,444.6666 273.7533,443.0506 275.0373,442.3416 C276.3213,441.6296 277.9363,442.0976 278.6463,443.3796 L354.6213,580.7826 C355.3313,582.0666 354.8663,583.6816 353.5823,584.3906 C353.1753,584.6176 352.7343,584.7236 352.3003,584.7236 L352.3003,584.7236 Z" id="Stroke-64" stroke="#00BFBC" stroke-width="0.9" sketch:type="MSShapeGroup" mask="url(#mask-2)"></path>
                <path d="M266.3594,424.372 C265.2404,424.372 264.1994,423.659 263.8344,422.536 L208.5234,252.305 C208.0694,250.91 208.8324,249.412 210.2274,248.958 C211.6244,248.508 213.1204,249.268 213.5734,250.664 L268.8854,420.895 C269.3384,422.29 268.5754,423.787 267.1804,424.241 C266.9084,424.33 266.6314,424.372 266.3594,424.372 L266.3594,424.372 Z" id="Stroke-65" stroke="#00BFBC" stroke-width="0.9" sketch:type="MSShapeGroup" mask="url(#mask-2)"></path>
                <path d="M205.6162,229.721 C204.2952,229.721 203.1512,228.737 202.9842,227.392 L183.6702,71.517 C183.4892,70.062 184.5232,68.736 185.9782,68.555 C187.4342,68.376 188.7602,69.408 188.9402,70.864 L208.2552,226.739 C208.4352,228.195 207.4012,229.52 205.9462,229.7 C205.8352,229.715 205.7252,229.721 205.6162,229.721 L205.6162,229.721 Z" id="Stroke-66" stroke="#00BFBC" stroke-width="0.9" sketch:type="MSShapeGroup" mask="url(#mask-2)"></path>
                <path d="M436.9712,468.8271 C436.8032,468.8271 436.6312,468.8101 436.4602,468.7771 L282.1022,438.6801 C280.6632,438.3991 279.7232,437.0041 280.0052,435.5641 C280.2852,434.1251 281.6802,433.1831 283.1192,433.4671 L437.4762,463.5641 C438.9152,463.8451 439.8552,465.2401 439.5742,466.6801 C439.3272,467.9471 438.2162,468.8271 436.9712,468.8271 L436.9712,468.8271 Z" id="Stroke-67" stroke="#00BFBC" stroke-width="0.9" sketch:type="MSShapeGroup" mask="url(#mask-2)"></path>
                <path d="M277.8975,426.29 C277.3355,426.29 276.7695,426.113 276.2885,425.745 C275.1225,424.855 274.8985,423.189 275.7885,422.023 L369.5525,299.194 C370.4435,298.028 372.1085,297.805 373.2745,298.695 C374.4405,299.585 374.6645,301.251 373.7745,302.417 L280.0105,425.246 C279.4875,425.931 278.6965,426.29 277.8975,426.29 L277.8975,426.29 Z" id="Stroke-69" stroke="#00BFBC" stroke-width="0.9" sketch:type="MSShapeGroup" mask="url(#mask-2)"></path>
                <path d="M367.3604,290.193 C367.1084,290.193 366.8514,290.157 366.5974,290.081 L218.4934,245.705 C217.0884,245.283 216.2914,243.803 216.7114,242.398 C217.1324,240.994 218.6134,240.196 220.0174,240.617 L368.1214,284.993 C369.5264,285.414 370.3234,286.895 369.9024,288.299 C369.5584,289.45 368.5034,290.193 367.3604,290.193 L367.3604,290.193 Z" id="Stroke-70" stroke="#00BFBC" stroke-width="0.9" sketch:type="MSShapeGroup" mask="url(#mask-2)"></path>
                <path d="M215.7583,232.979 C215.1103,232.979 214.4603,232.743 213.9483,232.265 C212.8753,231.265 212.8163,229.585 213.8163,228.512 L321.0263,113.523 C322.0263,112.45 323.7063,112.392 324.7793,113.392 C325.8523,114.392 325.9103,116.072 324.9103,117.145 L217.7013,232.134 C217.1783,232.695 216.4683,232.979 215.7583,232.979 L215.7583,232.979 Z" id="Stroke-71" stroke="#00BFBC" stroke-width="0.9" sketch:type="MSShapeGroup" mask="url(#mask-2)"></path>
                <path d="M1073.383,229.721 C1073.274,229.721 1073.164,229.715 1073.053,229.7 C1071.597,229.52 1070.565,228.195 1070.744,226.739 L1090.064,70.864 C1090.244,69.409 1091.571,68.375 1093.026,68.555 C1094.482,68.736 1095.515,70.062 1095.335,71.517 L1076.015,227.392 C1075.848,228.737 1074.703,229.721 1073.383,229.721 L1073.383,229.721 Z" id="Stroke-73" stroke="#00BFBC" stroke-width="0.9" sketch:type="MSShapeGroup" mask="url(#mask-2)"></path>
                <path d="M1012.648,424.372 C1012.376,424.372 1012.099,424.33 1011.827,424.241 C1010.432,423.787 1009.669,422.29 1010.122,420.895 L1065.425,250.664 C1065.878,249.268 1067.378,248.508 1068.771,248.958 C1070.166,249.412 1070.929,250.91 1070.476,252.305 L1015.173,422.536 C1014.808,423.658 1013.767,424.372 1012.648,424.372 L1012.648,424.372 Z" id="Stroke-74" stroke="#00BFBC" stroke-width="0.9" sketch:type="MSShapeGroup" mask="url(#mask-2)"></path>
                <path d="M926.6992,584.7236 C926.2642,584.7236 925.8242,584.6176 925.4172,584.3906 C924.1342,583.6816 923.6692,582.0666 924.3792,580.7826 L1000.3572,443.3796 C1001.0662,442.0966 1002.6812,441.6306 1003.9672,442.3416 C1005.2492,443.0506 1005.7152,444.6666 1005.0052,445.9506 L929.0252,583.3536 C928.5412,584.2286 927.6352,584.7236 926.6992,584.7236 L926.6992,584.7236 Z" id="Stroke-75" stroke="#00BFBC" stroke-width="0.9" sketch:type="MSShapeGroup" mask="url(#mask-2)"></path>
                <path d="M1063.25,232.979 C1062.538,232.979 1061.829,232.695 1061.307,232.134 L954.097,117.145 C953.097,116.072 953.155,114.392 954.229,113.392 C955.301,112.391 956.982,112.45 957.981,113.523 L1065.191,228.512 C1066.191,229.585 1066.133,231.265 1065.06,232.265 C1064.548,232.743 1063.898,232.979 1063.25,232.979 L1063.25,232.979 Z" id="Stroke-76" stroke="#00BFBC" stroke-width="0.9" sketch:type="MSShapeGroup" mask="url(#mask-2)"></path>
                <path d="M959.3838,105.142 C958.2648,105.142 957.2248,104.429 956.8598,103.308 C956.4048,101.913 957.1678,100.414 958.5628,99.961 L1081.2958,60.013 C1082.6928,59.559 1084.1898,60.321 1084.6428,61.716 C1085.0968,63.11 1084.3338,64.609 1082.9408,65.062 L960.2058,105.011 C959.9338,105.1 959.6558,105.142 959.3838,105.142 L959.3838,105.142 Z" id="Stroke-77" stroke="#00BFBC" stroke-width="0.9" sketch:type="MSShapeGroup" mask="url(#mask-2)"></path>
                <path d="M911.6436,290.193 C910.5006,290.193 909.4456,289.45 909.1006,288.299 C908.6796,286.895 909.4776,285.414 910.8816,284.993 L1058.9856,240.617 C1060.3896,240.196 1061.8716,240.994 1062.2916,242.398 C1062.7126,243.803 1061.9146,245.283 1060.5106,245.705 L912.4076,290.081 C912.1526,290.157 911.8956,290.193 911.6436,290.193 L911.6436,290.193 Z" id="Stroke-78" stroke="#00BFBC" stroke-width="0.9" sketch:type="MSShapeGroup" mask="url(#mask-2)"></path>
                <path d="M1001.102,426.29 C1000.302,426.29 999.512,425.931 998.989,425.246 L905.229,302.417 C904.34,301.251 904.563,299.585 905.729,298.695 C906.895,297.805 908.56,298.028 909.451,299.194 L1003.21,422.023 C1004.1,423.189 1003.877,424.855 1002.711,425.745 C1002.23,426.113 1001.664,426.29 1001.102,426.29 L1001.102,426.29 Z" id="Stroke-79" stroke="#00BFBC" stroke-width="0.9" sketch:type="MSShapeGroup" mask="url(#mask-2)"></path>
                <path d="M842.0332,468.8271 C840.7872,468.8271 839.6772,467.9471 839.4292,466.6801 C839.1482,465.2401 840.0882,463.8451 841.5272,463.5641 L995.8882,433.4671 C997.3322,433.1841 998.7222,434.1261 999.0042,435.5641 C999.2842,437.0041 998.3452,438.3991 996.9052,438.6801 L842.5442,468.7771 C842.3722,468.8101 842.2012,468.8271 842.0332,468.8271 L842.0332,468.8271 Z" id="Stroke-80" stroke="#00BFBC" stroke-width="0.9" sketch:type="MSShapeGroup" mask="url(#mask-2)"></path>
                <path d="M1085.585,51.955 C1084.876,51.955 1084.168,51.672 1083.645,51.113 L976.418,-63.587 C975.416,-64.658 975.473,-66.338 976.544,-67.339 C977.616,-68.341 979.296,-68.283 980.297,-67.213 L1087.524,47.486 C1088.525,48.558 1088.469,50.238 1087.398,51.239 C1086.887,51.718 1086.234,51.955 1085.585,51.955 L1085.585,51.955 Z" id="Stroke-81" stroke="#00BFBC" stroke-width="0.9" sketch:type="MSShapeGroup" mask="url(#mask-2)"></path>
                <path d="M949.1289,96.727 C949.0209,96.727 948.9109,96.721 948.8029,96.707 C947.3469,96.529 946.3119,95.204 946.4889,93.748 L965.6079,-62.394 C965.7869,-63.85 967.1269,-64.887 968.5659,-64.707 C970.0229,-64.528 971.0579,-63.204 970.8799,-61.748 L951.7609,94.394 C951.5969,95.74 950.4509,96.727 949.1289,96.727 L949.1289,96.727 Z" id="Stroke-82" stroke="#00BFBC" stroke-width="0.9" sketch:type="MSShapeGroup" mask="url(#mask-2)"></path>
                <path d="M1071.85,249.441 C1071.491,249.441 1071.173,249.426 1070.88,249.396 C1069.919,249.304 1069.037,249.09 1068.157,248.74 C1066.875,248.233 1065.736,247.483 1064.764,246.511 C1063.785,245.531 1063.062,244.432 1062.554,243.151 C1062.092,241.987 1061.868,240.804 1061.868,239.529 C1061.868,238.265 1062.099,237.045 1062.552,235.904 C1063.061,234.626 1063.784,233.525 1064.762,232.541 C1065.746,231.563 1066.854,230.836 1068.137,230.332 C1069.331,229.854 1070.537,229.625 1071.832,229.625 C1071.866,229.625 1072.123,229.626 1072.219,229.63 C1073.377,229.679 1074.485,229.915 1075.532,230.329 C1076.81,230.837 1077.951,231.587 1078.919,232.555 C1079.887,233.523 1080.629,234.654 1081.126,235.914 C1081.588,237.086 1081.823,238.307 1081.823,239.546 C1081.823,240.806 1081.596,241.99 1081.129,243.164 C1080.617,244.452 1079.897,245.55 1078.926,246.521 C1077.948,247.5 1076.841,248.225 1075.548,248.738 C1074.357,249.211 1073.147,249.441 1071.85,249.441" id="Fill-85" fill="#93C4D2" sketch:type="MSShapeGroup" mask="url(#mask-2)"></path>
                <path d="M207.1538,249.441 C205.8578,249.441 204.6508,249.212 203.4638,248.74 C202.1628,248.225 201.0568,247.501 200.0758,246.52 C199.1018,245.541 198.3808,244.443 197.8768,243.169 C197.4108,241.997 197.1848,240.813 197.1848,239.546 C197.1848,238.293 197.4168,237.072 197.8748,235.92 C198.3798,234.65 199.1238,233.517 200.0848,232.555 C201.0548,231.585 202.1958,230.836 203.4738,230.328 C204.5198,229.915 205.6288,229.679 206.7698,229.631 C206.8808,229.626 206.9808,229.625 207.0778,229.625 L207.1718,229.625 C208.4488,229.625 209.6908,229.861 210.8618,230.327 C212.1348,230.83 213.2708,231.576 214.2468,232.549 C215.2178,233.52 215.9398,234.618 216.4508,235.903 C216.9078,237.059 217.1398,238.281 217.1398,239.529 C217.1398,240.788 216.9138,241.973 216.4478,243.153 C215.9418,244.433 215.2188,245.532 214.2398,246.511 C213.2518,247.5 212.1438,248.227 210.8518,248.737 C209.9788,249.087 209.0738,249.305 208.1518,249.393 C207.8348,249.426 207.5158,249.441 207.1538,249.441" id="Fill-86" fill="#93C4D2" sketch:type="MSShapeGroup" mask="url(#mask-2)"></path>
                <path d="M270.1763,443.5928 C268.9163,443.5928 267.6823,443.3588 266.5093,442.8948 C265.2253,442.3838 264.1303,441.6648 263.1683,440.6978 C262.1913,439.7228 261.4743,438.6328 260.9723,437.3628 C260.5133,436.1988 260.2803,434.9778 260.2803,433.7298 C260.2803,432.4708 260.5153,431.2408 260.9763,430.0718 C261.4833,428.793 262.2343,427.652 263.2063,426.68 C263.8493,426.041 264.5683,425.493 265.3423,425.056 C265.7703,424.812 266.1923,424.609 266.6033,424.447 C267.8053,423.969 269.0103,423.739 270.3013,423.739 C271.5793,423.739 272.7793,423.968 273.9703,424.437 C275.2233,424.935 276.3513,425.678 277.3173,426.64 C278.2683,427.59 279.0063,428.713 279.5073,429.974 C279.9733,431.1548 280.2013,432.3448 280.2013,433.6098 C280.1973,434.8788 279.9683,436.0778 279.4993,437.2718 C278.9903,438.5538 278.2613,439.6618 277.2713,440.6508 C276.7693,441.1548 276.2193,441.5988 275.6353,441.9748 C275.0573,442.3518 274.4723,442.6528 273.8863,442.8798 C272.6733,443.3628 271.4673,443.5928 270.1763,443.5928" id="Fill-87" fill="#93C4D2" sketch:type="MSShapeGroup" mask="url(#mask-2)"></path>
                <path d="M1094.212,68.626 C1092.925,68.626 1091.669,68.387 1090.48,67.915 C1089.173,67.399 1088.061,66.668 1087.076,65.682 C1086.093,64.702 1085.364,63.595 1084.843,62.292 C1084.38,61.112 1084.151,59.91 1084.151,58.632 C1084.151,57.37 1084.389,56.129 1084.857,54.942 C1085.371,53.652 1086.13,52.498 1087.108,51.52 C1088.101,50.527 1089.263,49.764 1090.562,49.251 C1090.652,49.215 1090.74,49.184 1090.83,49.152 C1091.959,48.74 1093.122,48.537 1094.315,48.537 C1095.629,48.537 1096.841,48.77 1098.052,49.247 C1099.351,49.763 1100.469,50.497 1101.465,51.488 C1102.443,52.462 1103.167,53.565 1103.68,54.862 C1104.154,56.051 1104.383,57.247 1104.383,58.528 C1104.383,59.785 1104.146,61.028 1103.677,62.221 C1103.163,63.52 1102.427,64.639 1101.428,65.639 C1100.426,66.644 1099.297,67.385 1097.971,67.91 C1097.699,68.018 1097.428,68.111 1097.156,68.195 C1096.216,68.48 1095.222,68.626 1094.212,68.626" id="Fill-88" fill="#93C4D2" sketch:type="MSShapeGroup" mask="url(#mask-2)"></path>
                <path d="M1008.827,443.5928 C1007.533,443.5928 1006.328,443.3628 1005.143,442.8908 C1004.519,442.6478 1003.934,442.3458 1003.383,441.9848 C1002.783,441.5988 1002.233,441.1538 1001.734,440.6528 C1000.741,439.6598 1000.014,438.5538 999.5081,437.2698 C999.0311,436.0758 998.8021,434.8818 998.8021,433.6098 C998.8021,432.3448 999.0291,431.1548 999.4981,429.97 C999.9911,428.718 1000.728,427.597 1001.689,426.637 C1002.673,425.66 1003.77,424.939 1005.041,424.436 C1006.211,423.974 1007.443,423.739 1008.706,423.739 C1009.976,423.739 1011.213,423.976 1012.382,424.442 C1012.813,424.61 1013.23,424.811 1013.641,425.047 C1014.437,425.497 1015.156,426.043 1015.792,426.679 C1016.775,427.655 1017.506,428.766 1018.031,430.0818 C1018.488,431.2408 1018.723,432.4728 1018.723,433.7298 C1018.723,434.9768 1018.491,436.1998 1018.033,437.3688 C1017.528,438.6378 1016.81,439.7298 1015.845,440.6938 C1014.875,441.6638 1013.777,442.3848 1012.487,442.8988 C1011.318,443.3578 1010.083,443.5928 1008.827,443.5928" id="Fill-89" fill="#93C4D2" sketch:type="MSShapeGroup" mask="url(#mask-2)"></path>
                <path d="M184.7881,68.626 C183.7841,68.626 182.7901,68.48 181.8361,68.191 C181.5691,68.11 181.3051,68.019 181.0431,67.914 C179.7101,67.385 178.5811,66.643 177.5851,65.643 C176.5811,64.643 175.8461,63.524 175.3301,62.216 C174.8601,61.041 174.6241,59.803 174.6241,58.528 C174.6241,57.248 174.8531,56.05 175.3231,54.866 C175.8341,53.572 176.5591,52.468 177.5421,51.485 C178.5161,50.512 179.6641,49.758 180.9551,49.244 C182.1421,48.776 183.3891,48.537 184.6541,48.537 C185.8781,48.537 187.0411,48.741 188.1471,49.143 C188.2841,49.19 188.3691,49.22 188.4541,49.253 C189.7421,49.764 190.9031,50.527 191.8961,51.52 C192.8781,52.499 193.6351,53.649 194.1491,54.947 C194.6161,56.123 194.8521,57.362 194.8521,58.632 C194.8521,59.911 194.6231,61.111 194.1531,62.301 C193.6431,63.591 192.9171,64.696 191.9341,65.679 C190.9601,66.653 189.8131,67.405 188.5261,67.914 C187.3351,68.387 186.0781,68.626 184.7881,68.626" id="Fill-90" fill="#93C4D2" sketch:type="MSShapeGroup" mask="url(#mask-2)"></path>
                <path d="M112.8594,366.518 C111.6194,366.518 110.5104,365.644 110.2584,364.381 L77.5204,200.27 C77.2334,198.832 78.1664,197.434 79.6044,197.147 C81.0424,196.86 82.4414,197.792 82.7284,199.231 L115.4664,363.342 C115.7534,364.781 114.8204,366.179 113.3824,366.466 C113.2064,366.501 113.0324,366.518 112.8594,366.518 L112.8594,366.518 Z" id="Stroke-91" stroke="#00BFBC" stroke-width="1.1" sketch:type="MSShapeGroup" mask="url(#mask-2)"></path>
                <path d="M122.6279,368.428 C122.1199,368.428 121.6069,368.282 121.1529,367.979 C119.9349,367.162 119.6079,365.513 120.4239,364.295 L197.9549,248.52 C198.7709,247.301 200.4199,246.976 201.6389,247.79 C202.8569,248.608 203.1839,250.257 202.3679,251.475 L124.8369,367.249 C124.3249,368.014 123.4839,368.428 122.6279,368.428 L122.6279,368.428 Z" id="Stroke-92" stroke="#00BFBC" stroke-width="1.1" sketch:type="MSShapeGroup" mask="url(#mask-2)"></path>
                <path d="M190.7886,542.9912 C189.7836,542.9912 188.8226,542.4182 188.3746,541.4462 L118.5196,389.6942 C117.9066,388.3612 118.4896,386.7852 119.8216,386.1722 C121.1546,385.5612 122.7306,386.1402 123.3436,387.4722 L193.1986,539.2242 C193.8116,540.5572 193.2286,542.1342 191.8966,542.7482 C191.5376,542.9132 191.1606,542.9912 190.7886,542.9912 L190.7886,542.9912 Z" id="Stroke-93" stroke="#00BFBC" stroke-width="1.1" sketch:type="MSShapeGroup" mask="url(#mask-2)"></path>
                <path d="M258.4292,431.9609 C258.1242,431.9609 257.8142,431.9079 257.5112,431.7959 L126.8332,383.6139 C125.4572,383.1069 124.7532,381.5809 125.2602,380.2049 C125.7682,378.8289 127.2962,378.1219 128.6702,378.6319 L259.3482,426.8139 C260.7242,427.3209 261.4292,428.8479 260.9212,430.2239 C260.5252,431.2969 259.5102,431.9609 258.4292,431.9609 L258.4292,431.9609 Z" id="Stroke-94" stroke="#00BFBC" stroke-width="1.1" sketch:type="MSShapeGroup" mask="url(#mask-2)"></path>
                <path d="M88.9731,16.793 C88.4521,16.793 87.9271,16.64 87.4671,16.323 C86.2601,15.489 85.9571,13.836 86.7901,12.628 L163.9961,-99.231 C164.8301,-100.438 166.4841,-100.741 167.6901,-99.909 C168.8971,-99.075 169.2011,-97.422 168.3671,-96.215 L91.1611,15.646 C90.6451,16.392 89.8161,16.793 88.9731,16.793 L88.9731,16.793 Z" id="Stroke-95" stroke="#00BFBC" stroke-width="1.1" sketch:type="MSShapeGroup" mask="url(#mask-2)"></path>
                <path d="M183.8906,48.559 C182.5056,48.559 181.3376,47.484 181.2446,46.08 L171.7876,-95.233 C171.6896,-96.696 172.7966,-97.962 174.2606,-98.06 C175.7166,-98.164 176.9886,-97.051 177.0866,-95.587 L186.5426,45.726 C186.6406,47.189 185.5346,48.455 184.0706,48.553 C184.0106,48.557 183.9506,48.559 183.8906,48.559 L183.8906,48.559 Z" id="Stroke-96" stroke="#00BFBC" stroke-width="1.1" sketch:type="MSShapeGroup" mask="url(#mask-2)"></path>
                <path d="M172.5879,57.277 C172.3149,57.277 172.0379,57.235 171.7639,57.145 L93.2869,31.568 C91.8929,31.113 91.1309,29.614 91.5859,28.22 C92.0399,26.825 93.5369,26.064 94.9329,26.518 L173.4099,52.096 C174.8039,52.55 175.5669,54.049 175.1119,55.444 C174.7469,56.565 173.7059,57.277 172.5879,57.277 L172.5879,57.277 Z" id="Stroke-97" stroke="#00BFBC" stroke-width="1.1" sketch:type="MSShapeGroup" mask="url(#mask-2)"></path>
                <path d="M77.8999,176.648 C77.8779,176.648 77.8569,176.648 77.8349,176.647 C76.3679,176.611 75.2089,175.394 75.2439,173.928 L78.5459,37.999 C78.5819,36.533 79.8089,35.381 81.2649,35.409 C82.7309,35.444 83.8909,36.662 83.8549,38.127 L80.5529,174.057 C80.5179,175.501 79.3369,176.648 77.8999,176.648 L77.8999,176.648 Z" id="Stroke-98" stroke="#00BFBC" stroke-width="1.1" sketch:type="MSShapeGroup" mask="url(#mask-2)"></path>
                <path d="M203.1665,543.6904 C202.6865,543.6904 202.1995,543.5604 201.7625,543.2874 C200.5185,542.5104 200.1405,540.8724 200.9165,539.6284 L261.3025,442.9634 C262.0795,441.7214 263.7185,441.3404 264.9615,442.1194 C266.2055,442.8954 266.5845,444.5344 265.8075,445.7784 L205.4215,542.4424 C204.9175,543.2484 204.0525,543.6904 203.1665,543.6904 L203.1665,543.6904 Z" id="Stroke-99" stroke="#00BFBC" stroke-width="1.1" sketch:type="MSShapeGroup" mask="url(#mask-2)"></path>
                <path d="M195.4673,237.449 C195.1343,237.449 194.7973,237.386 194.4703,237.254 L88.7293,194.38 C87.3703,193.828 86.7153,192.28 87.2663,190.921 C87.8183,189.561 89.3653,188.907 90.7253,189.458 L196.4663,232.332 C197.8243,232.883 198.4803,234.431 197.9283,235.79 C197.5103,236.822 196.5163,237.449 195.4673,237.449 L195.4673,237.449 Z" id="Stroke-100" stroke="#00BFBC" stroke-width="1.1" sketch:type="MSShapeGroup" mask="url(#mask-2)"></path>
                <path d="M85.9399,179.629 C85.3399,179.629 84.7369,179.427 84.2399,179.012 C83.1139,178.073 82.9629,176.399 83.9029,175.272 L174.5639,66.636 C175.5029,65.511 177.1779,65.36 178.3039,66.299 C179.4299,67.239 179.5809,68.913 178.6409,70.039 L87.9799,178.675 C87.4549,179.304 86.6999,179.629 85.9399,179.629 L85.9399,179.629 Z" id="Stroke-101" stroke="#00BFBC" stroke-width="1.1" sketch:type="MSShapeGroup" mask="url(#mask-2)"></path>
                <path d="M1088.211,542.9912 C1087.839,542.9912 1087.461,542.9132 1087.102,542.7472 C1085.77,542.1342 1085.187,540.5572 1085.8,539.2242 L1155.772,387.2312 C1156.385,385.8982 1157.963,385.3142 1159.295,385.9292 C1160.627,386.5432 1161.209,388.1202 1160.597,389.4532 L1090.625,541.4462 C1090.177,542.4182 1089.215,542.9912 1088.211,542.9912 L1088.211,542.9912 Z" id="Stroke-102" stroke="#00BFBC" stroke-width="1.1" sketch:type="MSShapeGroup" mask="url(#mask-2)"></path>
                <path d="M1166.139,366.518 C1165.967,366.518 1165.793,366.501 1165.618,366.466 C1164.179,366.179 1163.245,364.781 1163.533,363.342 L1196.276,199.231 C1196.562,197.793 1197.958,196.859 1199.399,197.147 C1200.837,197.434 1201.771,198.832 1201.484,200.27 L1168.741,364.381 C1168.489,365.644 1167.379,366.518 1166.139,366.518 L1166.139,366.518 Z" id="Stroke-103" stroke="#00BFBC" stroke-width="1.1" sketch:type="MSShapeGroup" mask="url(#mask-2)"></path>
                <path d="M1201.108,176.648 C1199.671,176.648 1198.489,175.501 1198.455,174.057 L1195.152,38.127 C1195.117,36.662 1196.276,35.444 1197.742,35.409 C1197.765,35.408 1197.787,35.408 1197.808,35.408 C1199.245,35.408 1200.427,36.554 1200.462,37.999 L1203.763,173.928 C1203.798,175.394 1202.64,176.611 1201.173,176.647 C1201.152,176.648 1201.129,176.648 1201.108,176.648 L1201.108,176.648 Z" id="Stroke-104" stroke="#00BFBC" stroke-width="1.1" sketch:type="MSShapeGroup" mask="url(#mask-2)"></path>
                <path d="M1193.063,179.629 C1192.302,179.629 1191.548,179.304 1191.023,178.675 L1100.366,70.039 C1099.426,68.913 1099.578,67.239 1100.704,66.299 C1101.83,65.359 1103.503,65.511 1104.444,66.636 L1195.101,175.272 C1196.041,176.399 1195.889,178.073 1194.763,179.012 C1194.266,179.427 1193.664,179.629 1193.063,179.629 L1193.063,179.629 Z" id="Stroke-105" stroke="#00BFBC" stroke-width="1.1" sketch:type="MSShapeGroup" mask="url(#mask-2)"></path>
                <path d="M1106.415,57.277 C1105.297,57.277 1104.257,56.565 1103.891,55.444 C1103.436,54.049 1104.199,52.55 1105.594,52.096 L1184.07,26.518 C1185.461,26.064 1186.963,26.825 1187.418,28.22 C1187.873,29.614 1187.11,31.113 1185.717,31.568 L1107.239,57.145 C1106.966,57.235 1106.688,57.277 1106.415,57.277 L1106.415,57.277 Z" id="Stroke-106" stroke="#00BFBC" stroke-width="1.1" sketch:type="MSShapeGroup" mask="url(#mask-2)"></path>
                <path d="M1083.537,237.449 C1082.487,237.449 1081.493,236.823 1081.075,235.79 C1080.524,234.431 1081.179,232.883 1082.538,232.332 L1188.278,189.458 C1189.639,188.908 1191.186,189.562 1191.736,190.921 C1192.287,192.28 1191.633,193.828 1190.273,194.38 L1084.533,237.254 C1084.207,237.386 1083.869,237.449 1083.537,237.449 L1083.537,237.449 Z" id="Stroke-107" stroke="#00BFBC" stroke-width="1.1" sketch:type="MSShapeGroup" mask="url(#mask-2)"></path>
                <path d="M1156.363,368.401 C1155.506,368.401 1154.666,367.988 1154.154,367.223 L1076.636,251.474 C1075.82,250.256 1076.147,248.607 1077.366,247.791 C1078.583,246.972 1080.234,247.3 1081.049,248.519 L1158.566,364.268 C1159.383,365.486 1159.056,367.135 1157.838,367.952 C1157.384,368.255 1156.87,368.401 1156.363,368.401 L1156.363,368.401 Z" id="Stroke-108" stroke="#00BFBC" stroke-width="1.1" sketch:type="MSShapeGroup" mask="url(#mask-2)"></path>
                <path d="M1020.574,431.9609 C1019.493,431.9609 1018.477,431.2969 1018.083,430.2239 C1017.575,428.8479 1018.279,427.3209 1019.655,426.8139 L1150.463,378.5809 C1151.84,378.0699 1153.367,378.7779 1153.873,380.1529 C1154.381,381.5289 1153.678,383.0569 1152.301,383.5639 L1021.493,431.7959 C1021.189,431.9079 1020.879,431.9609 1020.574,431.9609 L1020.574,431.9609 Z" id="Stroke-109" stroke="#00BFBC" stroke-width="1.1" sketch:type="MSShapeGroup" mask="url(#mask-2)"></path>
                <path d="M1075.837,543.6904 C1074.951,543.6904 1074.086,543.2484 1073.582,542.4424 L1013.196,445.7784 C1012.42,444.5344 1012.797,442.8954 1014.041,442.1194 C1015.287,441.3404 1016.924,441.7204 1017.7,442.9634 L1078.086,539.6284 C1078.863,540.8724 1078.485,542.5104 1077.241,543.2874 C1076.803,543.5604 1076.317,543.6904 1075.837,543.6904 L1075.837,543.6904 Z" id="Stroke-110" stroke="#00BFBC" stroke-width="1.1" sketch:type="MSShapeGroup" mask="url(#mask-2)"></path>
                <path d="M1190.03,16.793 C1189.187,16.793 1188.357,16.392 1187.842,15.646 L1110.635,-96.215 C1109.802,-97.422 1110.106,-99.075 1111.312,-99.909 C1112.521,-100.743 1114.173,-100.437 1115.006,-99.231 L1192.213,12.628 C1193.047,13.836 1192.743,15.489 1191.536,16.323 C1191.076,16.64 1190.55,16.793 1190.03,16.793 L1190.03,16.793 Z" id="Stroke-111" stroke="#00BFBC" stroke-width="1.1" sketch:type="MSShapeGroup" mask="url(#mask-2)"></path>
                <path d="M1095.112,48.559 C1095.052,48.559 1094.993,48.557 1094.932,48.553 C1093.469,48.455 1092.363,47.189 1092.461,45.726 L1101.918,-95.587 C1102.014,-97.051 1103.284,-98.164 1104.744,-98.06 C1106.208,-97.962 1107.314,-96.696 1107.216,-95.233 L1097.759,46.08 C1097.666,47.484 1096.498,48.559 1095.112,48.559 L1095.112,48.559 Z" id="Stroke-112" stroke="#00BFBC" stroke-width="1.1" sketch:type="MSShapeGroup" mask="url(#mask-2)"></path>
                <path d="M1201.421,197.341 C1200.061,197.341 1198.789,197.099 1197.535,196.6 C1196.187,196.068 1194.993,195.286 1193.982,194.274 C1192.965,193.258 1192.211,192.11 1191.673,190.762 C1191.191,189.549 1190.955,188.318 1190.955,187.001 C1190.955,185.713 1191.198,184.442 1191.678,183.223 C1192.195,181.916 1192.974,180.736 1193.988,179.721 C1195.008,178.698 1196.199,177.915 1197.537,177.387 C1198.575,176.975 1199.662,176.733 1200.773,176.664 C1200.885,176.657 1201.007,176.65 1201.127,176.646 C1201.218,176.643 1201.416,176.643 1201.438,176.643 C1202.799,176.643 1204.069,176.885 1205.324,177.384 C1206.672,177.917 1207.866,178.699 1208.878,179.712 C1209.892,180.721 1210.646,181.868 1211.188,183.221 C1211.661,184.434 1211.896,185.672 1211.896,186.984 C1211.896,188.287 1211.653,189.554 1211.177,190.75 C1210.65,192.078 1209.875,193.258 1208.87,194.263 C1207.855,195.283 1206.66,196.067 1205.314,196.598 C1204.137,197.066 1202.895,197.315 1201.611,197.341 L1201.421,197.341 Z" id="Fill-113" fill="#93C4D2" sketch:type="MSShapeGroup" mask="url(#mask-2)"></path>
                <path d="M81.5938,35.416 C80.5258,35.416 79.4718,35.258 78.4608,34.946 C78.1828,34.861 77.9188,34.771 77.6578,34.666 C76.2728,34.117 75.0538,33.316 74.0228,32.282 C72.9868,31.249 72.1948,30.046 71.6648,28.7 C71.1688,27.45 70.9288,26.195 70.9288,24.86 C70.9288,23.528 71.1658,22.283 71.6538,21.055 C72.1838,19.713 72.9388,18.564 73.9628,17.54 C74.9948,16.508 76.1578,15.744 77.5198,15.205 C78.7618,14.712 80.0768,14.463 81.4288,14.463 C82.6608,14.463 83.8698,14.67 85.0238,15.08 L85.4148,15.228 C86.7478,15.756 87.9698,16.558 89.0088,17.596 C90.0368,18.629 90.8308,19.836 91.3658,21.181 C91.8478,22.407 92.0938,23.7 92.0938,25.015 C92.0938,26.347 91.8568,27.593 91.3688,28.826 C90.8438,30.149 90.0678,31.331 89.0608,32.339 C88.0418,33.357 86.8468,34.141 85.5088,34.667 C84.2548,35.165 82.9398,35.416 81.5938,35.416" id="Fill-114" fill="#93C4D2" sketch:type="MSShapeGroup" mask="url(#mask-2)"></path>
                <path d="M1197.41,35.416 C1196.064,35.416 1194.748,35.165 1193.496,34.669 C1192.155,34.14 1190.961,33.356 1189.944,32.339 C1188.936,31.332 1188.158,30.149 1187.629,28.821 C1187.146,27.594 1186.909,26.346 1186.909,25.015 C1186.909,23.7 1187.155,22.407 1187.641,21.173 C1188.178,19.832 1188.972,18.623 1189.998,17.592 C1191.034,16.559 1192.256,15.756 1193.625,15.213 L1194.03,15.059 C1195.132,14.671 1196.344,14.463 1197.574,14.463 C1198.926,14.463 1200.244,14.712 1201.491,15.206 C1202.833,15.74 1204.027,16.524 1205.037,17.537 C1206.063,18.563 1206.82,19.713 1207.355,21.057 C1207.839,22.282 1208.074,23.528 1208.074,24.86 C1208.074,26.204 1207.836,27.458 1207.345,28.695 C1206.81,30.044 1206.017,31.249 1204.988,32.279 C1203.952,33.315 1202.73,34.117 1201.358,34.661 C1201.085,34.77 1200.813,34.863 1200.543,34.946 C1199.53,35.258 1198.474,35.416 1197.41,35.416" id="Fill-115" fill="#93C4D2" sketch:type="MSShapeGroup" mask="url(#mask-2)"></path>
                <path d="M77.3623,197.341 C76.1273,197.318 74.8753,197.068 73.6883,196.599 C72.3503,196.071 71.1553,195.286 70.1333,194.264 C69.1233,193.254 68.3463,192.073 67.8253,190.756 C67.3463,189.549 67.1043,188.279 67.1043,186.984 C67.1043,185.669 67.3403,184.435 67.8243,183.212 C68.3493,181.892 69.1243,180.713 70.1253,179.712 C71.1373,178.699 72.3313,177.917 73.6743,177.387 C74.9153,176.892 76.2213,176.643 77.5653,176.643 C77.5883,176.643 77.7863,176.643 77.8643,176.646 C78.0013,176.65 78.1223,176.657 78.2423,176.664 C79.3433,176.733 80.4273,176.975 81.4543,177.384 C82.8033,177.916 83.9993,178.701 85.0183,179.72 C86.0253,180.726 86.8003,181.906 87.3233,183.229 C87.8013,184.437 88.0443,185.706 88.0443,187.001 C88.0443,188.297 87.8033,189.565 87.3273,190.771 C86.7973,192.106 86.0443,193.253 85.0243,194.272 C83.9943,195.302 82.8353,196.063 81.4783,196.598 C80.2183,197.099 78.9453,197.341 77.5833,197.341 L77.3623,197.341 Z" id="Fill-116" fill="#93C4D2" sketch:type="MSShapeGroup" mask="url(#mask-2)"></path>
                <path d="M1163.63,386.879 C1157.936,386.879 1153.303,382.25 1153.303,376.561 C1153.303,370.865 1157.936,366.233 1163.63,366.233 C1169.32,366.233 1173.949,370.865 1173.949,376.561 C1173.949,382.25 1169.32,386.879 1163.63,386.879" id="Fill-117" fill="#93C4D2" sketch:type="MSShapeGroup" mask="url(#mask-2)"></path>
                <path d="M115.4258,387.139 C109.6688,387.139 104.9858,382.459 104.9858,376.707 C104.9858,370.951 109.6688,366.268 115.4258,366.268 C121.1818,366.268 125.8658,370.951 125.8658,376.707 C125.8658,382.459 121.1818,387.139 115.4258,387.139" id="Fill-118" fill="#93C4D2" sketch:type="MSShapeGroup" mask="url(#mask-2)"></path>
                <path d="M1217.301,497.5596 C1217.028,497.5596 1216.751,497.5176 1216.479,497.4286 C1215.084,496.9746 1214.321,495.4766 1214.774,494.0826 L1274.149,311.3516 C1274.602,309.9566 1276.104,309.1976 1277.494,309.6466 C1278.889,310.1006 1279.653,311.5986 1279.199,312.9926 L1219.825,495.7236 C1219.46,496.8456 1218.419,497.5596 1217.301,497.5596 L1217.301,497.5596 Z" id="Stroke-119" stroke="#00BFBC" stroke-width="1.25" sketch:type="MSShapeGroup" mask="url(#mask-2)"></path>
                <path d="M1208.336,497.6895 C1207.263,497.6895 1206.252,497.0345 1205.852,495.9705 L1165.718,389.6775 C1165.2,388.3055 1165.893,386.7735 1167.265,386.2545 C1168.635,385.7375 1170.169,386.4295 1170.687,387.8015 L1210.82,494.0945 C1211.338,495.4665 1210.646,496.9995 1209.273,497.5175 C1208.965,497.6335 1208.648,497.6895 1208.336,497.6895 L1208.336,497.6895 Z" id="Stroke-120" stroke="#00BFBC" stroke-width="1.25" sketch:type="MSShapeGroup" mask="url(#mask-2)"></path>
                <path d="M1174.473,372.076 C1173.61,372.076 1172.763,371.656 1172.253,370.881 C1171.446,369.656 1171.785,368.01 1173.009,367.203 L1268.047,304.596 C1269.274,303.789 1270.919,304.128 1271.726,305.352 C1272.534,306.577 1272.194,308.223 1270.969,309.03 L1175.931,371.638 C1175.481,371.933 1174.974,372.076 1174.473,372.076 L1174.473,372.076 Z" id="Stroke-121" stroke="#00BFBC" stroke-width="1.25" sketch:type="MSShapeGroup" mask="url(#mask-2)"></path>
                <path d="M1273.02,290.928 C1272.187,290.928 1271.367,290.537 1270.85,289.805 L1206.781,199.175 C1205.935,197.977 1206.219,196.32 1207.417,195.473 C1208.614,194.627 1210.272,194.912 1211.118,196.109 L1275.187,286.74 C1276.033,287.937 1275.749,289.594 1274.55,290.441 C1274.085,290.77 1273.55,290.928 1273.02,290.928 L1273.02,290.928 Z" id="Stroke-122" stroke="#00BFBC" stroke-width="1.25" sketch:type="MSShapeGroup" mask="url(#mask-2)"></path>
                <path d="M1210.617,180.356 C1209.942,180.356 1209.267,180.101 1208.75,179.588 C1207.707,178.557 1207.698,176.876 1208.729,175.833 L1274.976,108.869 C1276.008,107.826 1277.69,107.817 1278.731,108.849 C1279.774,109.88 1279.783,111.562 1278.752,112.604 L1212.506,179.568 C1211.986,180.093 1211.303,180.356 1210.617,180.356 L1210.617,180.356 Z" id="Stroke-123" stroke="#00BFBC" stroke-width="1.25" sketch:type="MSShapeGroup" mask="url(#mask-2)"></path>
                <path d="M1276.129,94.841 C1275.518,94.841 1274.903,94.632 1274.403,94.204 L1205.764,35.508 C1204.649,34.555 1204.519,32.879 1205.471,31.764 C1206.426,30.65 1208.103,30.52 1209.216,31.472 L1277.856,90.168 C1278.97,91.121 1279.1,92.797 1278.148,93.911 C1277.622,94.526 1276.877,94.841 1276.129,94.841 L1276.129,94.841 Z" id="Stroke-124" stroke="#00BFBC" stroke-width="1.25" sketch:type="MSShapeGroup" mask="url(#mask-2)"></path>
                <path d="M1200.542,14.795 C1200.338,14.795 1200.131,14.772 1199.924,14.722 C1198.497,14.382 1197.616,12.95 1197.957,11.523 L1218.952,-76.484 C1219.293,-77.912 1220.729,-78.791 1222.151,-78.451 C1223.577,-78.111 1224.458,-76.678 1224.117,-75.251 L1203.123,12.755 C1202.832,13.975 1201.743,14.795 1200.542,14.795 L1200.542,14.795 Z" id="Stroke-125" stroke="#00BFBC" stroke-width="1.25" sketch:type="MSShapeGroup" mask="url(#mask-2)"></path>
                <path d="M1223.429,501.6377 C1222.677,501.6377 1221.93,501.3197 1221.405,500.7007 C1220.454,499.5837 1220.591,497.9087 1221.709,496.9587 L1275.076,451.6147 C1276.194,450.6657 1277.868,450.8007 1278.819,451.9177 C1279.769,453.0357 1279.632,454.7107 1278.514,455.6607 L1225.147,501.0057 C1224.648,501.4297 1224.037,501.6377 1223.429,501.6377 L1223.429,501.6377 Z" id="Stroke-126" stroke="#00BFBC" stroke-width="1.25" sketch:type="MSShapeGroup" mask="url(#mask-2)"></path>
                <path d="M1276.794,73.916 C1275.675,73.916 1274.634,73.203 1274.27,72.081 L1226.348,-75.401 C1225.895,-76.795 1226.658,-78.294 1228.053,-78.747 C1229.445,-79.199 1230.946,-78.437 1231.399,-77.042 L1279.32,70.439 C1279.773,71.834 1279.01,73.332 1277.615,73.785 C1277.343,73.874 1277.066,73.916 1276.794,73.916 L1276.794,73.916 Z" id="Stroke-127" stroke="#00BFBC" stroke-width="1.25" sketch:type="MSShapeGroup" mask="url(#mask-2)"></path>
                <path d="M104.5405,372.076 C104.0395,372.076 103.5325,371.933 103.0825,371.638 L8.0345,309.03 C6.8105,308.223 6.4715,306.577 7.2775,305.352 C8.0845,304.128 9.7305,303.789 10.9565,304.596 L106.0035,367.203 C107.2285,368.01 107.5665,369.656 106.7605,370.881 C106.2495,371.656 105.4035,372.076 104.5405,372.076 L104.5405,372.076 Z" id="Stroke-128" stroke="#00BFBC" stroke-width="1.25" sketch:type="MSShapeGroup" mask="url(#mask-2)"></path>
                <path d="M70.6631,497.6895 C70.3511,497.6895 70.0341,497.6335 69.7251,497.5175 C68.3531,496.9995 67.6611,495.4665 68.1791,494.0945 L108.2471,387.9925 C108.7661,386.6205 110.2971,385.9275 111.6701,386.4455 C113.0421,386.9625 113.7341,388.4965 113.2161,389.8675 L73.1471,495.9705 C72.7461,497.0345 71.7361,497.6895 70.6631,497.6895 L70.6631,497.6895 Z" id="Stroke-129" stroke="#00BFBC" stroke-width="1.25" sketch:type="MSShapeGroup" mask="url(#mask-2)"></path>
                <path d="M78.4629,14.795 C77.2619,14.795 76.1729,13.975 75.8819,12.755 L54.8899,-75.251 C54.5489,-76.678 55.4299,-78.111 56.8569,-78.451 C58.2819,-78.794 59.7149,-77.911 60.0559,-76.484 L81.0479,11.523 C81.3879,12.95 80.5069,14.382 79.0809,14.722 C78.8739,14.772 78.6669,14.795 78.4629,14.795 L78.4629,14.795 Z" id="Stroke-130" stroke="#00BFBC" stroke-width="1.25" sketch:type="MSShapeGroup" mask="url(#mask-2)"></path>
                <path d="M2.8799,94.841 C2.1299,94.841 1.3859,94.526 0.8599,93.911 C-0.0931,92.797 0.0379,91.121 1.1529,90.168 L69.7939,31.472 C70.9079,30.519 72.5849,30.65 73.5379,31.764 C74.4899,32.879 74.3589,34.555 73.2449,35.508 L4.6039,94.204 C4.1039,94.632 3.4899,94.841 2.8799,94.841 L2.8799,94.841 Z" id="Stroke-131" stroke="#00BFBC" stroke-width="1.25" sketch:type="MSShapeGroup" mask="url(#mask-2)"></path>
                <path d="M68.3862,180.356 C67.7022,180.356 67.0182,180.093 66.4982,179.568 L0.2472,112.604 C-0.7838,111.562 -0.7748,109.88 0.2672,108.849 C1.3092,107.818 2.9902,107.826 4.0232,108.869 L70.2742,175.833 C71.3052,176.876 71.2962,178.557 70.2532,179.588 C69.7362,180.1 69.0612,180.356 68.3862,180.356 L68.3862,180.356 Z" id="Stroke-132" stroke="#00BFBC" stroke-width="1.25" sketch:type="MSShapeGroup" mask="url(#mask-2)"></path>
                <path d="M5.9839,290.928 C5.4539,290.928 4.9189,290.77 4.4529,290.441 C3.2559,289.594 2.9709,287.937 3.8169,286.74 L67.8859,196.109 C68.7329,194.912 70.3889,194.626 71.5869,195.473 C72.7839,196.32 73.0689,197.977 72.2219,199.175 L8.1539,289.805 C7.6369,290.537 6.8169,290.928 5.9839,290.928 L5.9839,290.928 Z" id="Stroke-133" stroke="#00BFBC" stroke-width="1.25" sketch:type="MSShapeGroup" mask="url(#mask-2)"></path>
                <path d="M61.6992,497.5596 C60.5802,497.5596 59.5382,496.8456 59.1742,495.7236 L-0.1958,312.9926 C-0.6498,311.5986 0.1142,310.1006 1.5092,309.6466 C2.9052,309.1976 4.4022,309.9576 4.8552,311.3516 L64.2252,494.0826 C64.6782,495.4766 63.9152,496.9746 62.5202,497.4286 C62.2472,497.5176 61.9712,497.5596 61.6992,497.5596 L61.6992,497.5596 Z" id="Stroke-134" stroke="#00BFBC" stroke-width="1.25" sketch:type="MSShapeGroup" mask="url(#mask-2)"></path>
                <path d="M55.5698,501.6377 C54.9628,501.6377 54.3508,501.4297 53.8518,501.0057 L0.4888,455.6607 C-0.6282,454.7107 -0.7642,453.0357 0.1848,451.9177 C1.1338,450.8007 2.8108,450.6637 3.9278,451.6147 L57.2908,496.9587 C58.4078,497.9087 58.5448,499.5837 57.5948,500.7007 C57.0698,501.3197 56.3218,501.6377 55.5698,501.6377 L55.5698,501.6377 Z" id="Stroke-135" stroke="#00BFBC" stroke-width="1.25" sketch:type="MSShapeGroup" mask="url(#mask-2)"></path>
                <path d="M2.209,73.916 C1.937,73.916 1.661,73.874 1.388,73.785 C-0.007,73.332 -0.77,71.834 -0.317,70.439 L47.605,-77.042 C48.058,-78.437 49.556,-79.199 50.951,-78.747 C52.345,-78.294 53.108,-76.795 52.655,-75.401 L4.734,72.081 C4.37,73.203 3.328,73.916 2.209,73.916 L2.209,73.916 Z" id="Stroke-136" stroke="#00BFBC" stroke-width="1.25" sketch:type="MSShapeGroup" mask="url(#mask-2)"></path>
                <path d="M1277.597,288.979 C1277.307,289.072 1277.016,289.168 1276.732,289.284 C1275.322,289.841 1274.07,290.663 1272.996,291.728 C1271.94,292.785 1271.155,293.977 1270.604,295.37 C1270.102,296.645 1269.856,297.933 1269.856,299.301 C1269.856,300.678 1270.102,301.966 1270.61,303.235 C1271.156,304.626 1271.971,305.866 1273.037,306.933 C1274.13,308.025 1275.359,308.833 1276.791,309.402 L1276.83,309.416 C1277.084,309.508 1277.34,309.602 1277.595,309.683" id="Fill-137" fill="#93C4D2" sketch:type="MSShapeGroup" mask="url(#mask-2)"></path>
                <path d="M1.4194,309.681 C1.6904,309.596 1.9584,309.496 2.2234,309.399 C3.6444,308.834 4.8744,308.026 5.9744,306.93 C7.0414,305.859 7.8364,304.649 8.3984,303.239 C8.9014,301.966 9.1484,300.677 9.1484,299.302 C9.1484,297.934 8.9024,296.646 8.3984,295.363 C7.8504,293.985 7.0644,292.79 5.9984,291.72 C4.9374,290.662 3.6874,289.843 2.2894,289.289 C1.9984,289.173 1.7104,289.076 1.4144,288.983" id="Fill-140" fill="#93C4D2" sketch:type="MSShapeGroup" mask="url(#mask-2)"></path>
            </g>
            <g id="Group-319" sketch:type="MSShapeGroup">
                <path d="M701.3486,225.715 L688.6486,247.694 L663.2916,247.687 L666.6836,241.795 L685.2446,241.798 L694.5336,225.715 L694.5386,225.712 L701.3486,225.715 Z" id="Fill-142" fill="#FFFFFF"></path>
                <path d="M717.4375,253.582 L704.7365,275.561 L679.3805,275.554 L682.7755,269.666 L682.7715,269.662 L701.3355,269.671 L710.6255,253.587 L717.4375,253.582 Z" id="Fill-144" fill="#FFFFFF"></path>
                <path d="M704.7363,275.561 L717.4243,297.537 L710.6213,297.532 L701.3403,281.456 L682.7863,281.451 L679.3813,275.554 L704.7363,275.561 Z" id="Fill-145" fill="#FFFFFF"></path>
                <path d="M653.0703,197.851 L656.4753,203.747 L647.2023,219.82 L656.4833,235.894 L653.0783,241.787 L640.3923,219.817 L653.0703,197.851 Z" id="Fill-146" fill="#FFFFFF"></path>
                <path d="M682.7715,269.662 L682.7755,269.667 L679.3805,275.554 L682.7865,281.452 L675.9785,281.453 L672.5745,275.557 L675.9765,269.658 L682.7715,269.662 Z" id="Fill-147" fill="#FFFFFF"></path>
                <path d="M659.8887,241.791 L666.6837,241.794 L663.2917,247.687 L672.5727,263.761 L669.1697,269.659 L656.4827,247.685 L659.8887,241.791 Z" id="Fill-148" fill="#FFFFFF"></path>
                <path d="M656.4834,235.894 L659.8884,241.79 L656.4824,247.684 L631.1034,247.689 L634.5094,241.795 L634.5064,241.79 L653.0784,241.787 L656.4834,235.894 Z" id="Fill-149" fill="#FFFFFF"></path>
                <path d="M688.6631,303.424 L701.3481,325.394 L694.5291,325.403 L685.2461,309.323 L666.6891,309.324 L663.2841,303.429 L688.6631,303.424 Z" id="Fill-150" fill="#FFFFFF"></path>
                <path d="M672.5742,275.556 L675.9782,281.452 L672.5702,287.354 L672.5612,287.352 L669.1582,281.456 L650.5962,281.452 L647.1922,275.556 L672.5742,275.556 Z" id="Fill-151" fill="#FFFFFF"></path>
                <path d="M624.3008,203.748 L615.0148,219.823 L624.2978,235.902 L620.8928,241.795 L608.2048,219.819 L620.8868,197.85 L624.2908,203.746 L624.3008,203.748 Z" id="Fill-152" fill="#FFFFFF"></path>
                <path d="M672.5703,287.354 L663.2843,303.428 L666.6893,309.324 L659.8803,309.322 L656.4743,303.424 L669.1583,281.457 L672.5613,287.352 L672.5703,287.354 Z" id="Fill-153" fill="#FFFFFF"></path>
                <path d="M634.5063,241.79 L634.5093,241.795 L631.1033,247.689 L640.3873,263.769 L636.9823,269.662 L624.2973,247.691 L627.6993,241.793 L634.5063,241.79 Z" id="Fill-154" fill="#FFFFFF"></path>
                <path d="M650.5986,269.662 L647.1926,275.556 L650.5966,281.452 L643.7896,281.455 L640.3856,275.558 L643.7916,269.665 L650.5986,269.662 Z" id="Fill-155" fill="#FFFFFF"></path>
                <path d="M656.4746,303.425 L659.8796,309.321 L656.4736,315.214 L653.0736,309.324 L634.5066,309.324 L631.1026,303.428 L656.4746,303.425 Z" id="Fill-156" fill="#FFFFFF"></path>
                <path d="M640.3857,275.558 L643.7897,281.455 L640.3857,287.348 L636.9807,281.451 L630.1737,281.454 L633.5797,275.561 L640.3857,275.558 Z" id="Fill-157" fill="#FFFFFF"></path>
                <path d="M624.2974,247.691 L636.9824,269.662 L630.1754,269.664 L620.8924,253.585 L614.0854,253.587 L617.4884,247.688 L624.2974,247.691 Z" id="Fill-158" fill="#FFFFFF"></path>
                <path d="M608.2051,219.819 L620.8931,241.795 L614.0871,241.798 L604.8041,225.718 L586.2361,225.717 L582.8321,219.821 L608.2051,219.819 Z" id="Fill-159" fill="#FFFFFF"></path>
                <path d="M653.0732,309.324 L656.4732,315.214 L656.4772,315.22 L647.1902,331.295 L656.4732,347.374 L653.0692,353.267 L640.3842,331.297 L653.0732,309.324 Z" id="Fill-160" fill="#FFFFFF"></path>
                <path d="M636.981,281.451 L640.386,287.347 L631.103,303.428 L634.506,309.324 L627.7,309.326 L624.295,303.43 L636.981,281.451 Z" id="Fill-161" fill="#FFFFFF"></path>
                <path d="M620.8926,253.585 L608.2036,275.558 L601.4026,275.557 L597.9976,269.661 L604.7996,269.661 L614.0856,253.587 L620.8926,253.585 Z" id="Fill-162" fill="#FFFFFF"></path>
                <path d="M624.2954,303.431 L627.7004,309.327 L624.2994,315.217 L620.8964,309.321 L614.0894,309.323 L617.4914,303.424 L624.2954,303.431 Z" id="Fill-163" fill="#FFFFFF"></path>
                <path d="M608.2031,275.558 L620.8911,297.534 L614.0871,297.527 L604.8071,281.453 L597.9971,281.452 L601.4021,275.558 L608.2031,275.558 Z" id="Fill-164" fill="#FFFFFF"></path>
                <path d="M592.1143,247.691 L604.7993,269.661 L597.9983,269.661 L588.7183,253.586 L570.1463,253.589 L570.1423,253.584 L566.7413,247.693 L592.1143,247.691 Z" id="Fill-165" fill="#FFFFFF"></path>
                <path d="M620.896,309.32 L624.3,315.216 L615.011,331.299 L624.292,347.374 L620.889,353.272 L608.202,331.296 L620.896,309.32 Z" id="Fill-166" fill="#FFFFFF"></path>
                <path d="M604.8071,281.452 L592.1121,303.429 L566.7441,303.428 L570.1481,297.529 L588.7081,297.532 L597.9971,281.451 L604.8071,281.452 Z" id="Fill-167" fill="#FFFFFF"></path>
                <path d="M620.896,309.32 L608.202,331.296 L582.833,331.296 L586.239,325.401 L604.801,325.405 L614.09,309.322 L620.896,309.32 Z" id="Fill-168" fill="#FFFFFF"></path>
                <path d="M636.981,281.451 L624.295,303.43 L617.492,303.424 L614.087,297.526 L620.891,297.533 L630.174,281.454 L636.981,281.451 Z" id="Fill-169" fill="#FFFFFF"></path>
                <path d="M624.2979,235.902 L627.6989,241.793 L624.2979,247.691 L617.4879,247.688 L614.0869,241.798 L620.8929,241.795 L624.2979,235.902 Z" id="Fill-170" fill="#FFFFFF"></path>
                <path d="M640.3877,263.769 L643.7917,269.665 L640.3857,275.558 L633.5797,275.561 L630.1757,269.665 L636.9817,269.662 L640.3877,263.769 Z" id="Fill-171" fill="#FFFFFF"></path>
                <path d="M672.5723,263.761 L675.9763,269.657 L672.5743,275.556 L647.1923,275.556 L650.5983,269.662 L669.1703,269.66 L672.5723,263.761 Z" id="Fill-172" fill="#FFFFFF"></path>
                <path d="M717.4375,253.582 L730.1215,275.552 L717.4245,297.537 L704.7365,275.561 L717.4375,253.582 Z" id="Fill-173" fill="#F9CF5E"></path>
                <path d="M701.3486,225.715 L714.0336,247.686 L710.6246,253.588 L701.3356,269.671 L688.6486,247.694 L701.3486,225.715 Z" id="Fill-174" fill="#F9CF5E"></path>
                <path d="M685.2598,197.848 L697.9438,219.819 L694.5388,225.712 L694.5328,225.715 L685.2438,241.798 L672.5598,219.827 L685.2598,197.848 Z" id="Fill-175" fill="#F9CF5E"></path>
                <path d="M685.2598,197.848 L672.5598,219.827 L647.2018,219.82 L656.4758,203.747 L659.8708,197.851 L685.2598,197.848 Z" id="Fill-176" fill="#F9CF5E"></path>
                <path d="M688.6484,247.694 L701.3364,269.671 L682.7714,269.662 L675.9764,269.657 L672.5724,263.761 L663.2924,247.687 L688.6484,247.694 Z" id="Fill-177" fill="#FFFFFF"></path>
                <path d="M672.5596,219.828 L685.2446,241.798 L666.6836,241.795 L659.8886,241.791 L656.4836,235.895 L647.2026,219.82 L672.5596,219.828 Z" id="Fill-178" fill="#FFFFFF"></path>
                <path d="M710.6211,297.532 L714.0251,303.427 L701.3481,325.393 L688.6631,303.424 L701.3411,281.456 L710.6211,297.532 Z" id="Fill-179" fill="#F9CF5E"></path>
                <path d="M653.0703,197.851 L640.3923,219.817 L615.0143,219.823 L624.3003,203.748 L627.7093,197.847 L653.0703,197.851 Z" id="Fill-180" fill="#F9CF5E"></path>
                <path d="M701.3408,281.456 L688.6628,303.424 L663.2838,303.429 L672.5698,287.354 L675.9788,281.452 L682.7858,281.451 L701.3408,281.456 Z" id="Fill-181" fill="#FFFFFF"></path>
                <path d="M656.4824,247.684 L669.1704,269.66 L650.5984,269.662 L643.7924,269.665 L640.3874,263.769 L631.1034,247.689 L656.4824,247.684 Z" id="Fill-182" fill="#FFFFFF"></path>
                <path d="M640.3926,219.817 L653.0786,241.787 L634.5066,241.79 L627.6996,241.793 L624.2976,235.902 L615.0146,219.822 L640.3926,219.817 Z" id="Fill-183" fill="#FFFFFF"></path>
                <path d="M694.5293,325.402 L697.9333,331.298 L685.2523,353.268 L672.5673,331.298 L685.2463,309.323 L694.5293,325.402 Z" id="Fill-184" fill="#F9CF5E"></path>
                <path d="M620.8872,197.85 L608.2052,219.819 L582.8322,219.821 L595.5202,197.849 L620.8872,197.85 Z" id="Fill-185" fill="#F9CF5E"></path>
                <path d="M669.1582,281.456 L656.4742,303.425 L631.1022,303.428 L640.3862,287.348 L643.7902,281.455 L650.5962,281.452 L669.1582,281.456 Z" id="Fill-186" fill="#FFFFFF"></path>
                <path d="M685.2461,309.323 L672.5671,331.298 L647.1901,331.295 L656.4771,315.22 L656.4741,315.214 L659.8801,309.321 L666.6891,309.324 L685.2461,309.323 Z" id="Fill-187" fill="#FFFFFF"></path>
                <path d="M672.5674,331.298 L685.2524,353.269 L659.8794,353.271 L656.4734,347.374 L647.1904,331.295 L672.5674,331.298 Z" id="Fill-188" fill="#F9CF5E"></path>
                <path d="M630.1758,269.665 L633.5798,275.561 L630.1738,281.455 L620.8908,297.534 L608.2028,275.558 L620.8928,253.585 L630.1758,269.665 Z" id="Fill-189" fill="#FFFFFF"></path>
                <path d="M614.0869,241.798 L617.4879,247.689 L614.0859,253.588 L604.7989,269.661 L592.1139,247.691 L604.8039,225.718 L614.0869,241.798 Z" id="Fill-190" fill="#FFFFFF"></path>
                <path d="M604.8037,225.718 L592.1147,247.691 L566.7407,247.693 L579.4297,225.72 L586.2357,225.717 L604.8037,225.718 Z" id="Fill-191" fill="#F9CF5E"></path>
                <path d="M653.0732,309.324 L640.3842,331.297 L615.0112,331.299 L624.3002,315.217 L627.7002,309.326 L634.5062,309.324 L653.0732,309.324 Z" id="Fill-192" fill="#FFFFFF"></path>
                <path d="M640.3843,331.297 L653.0693,353.268 L627.6963,353.269 L624.2923,347.374 L615.0113,331.299 L640.3843,331.297 Z" id="Fill-193" fill="#F9CF5E"></path>
                <path d="M614.0869,297.526 L617.4919,303.423 L614.0899,309.322 L604.8009,325.405 L592.1119,303.428 L604.8069,281.452 L614.0869,297.526 Z" id="Fill-194" fill="#FFFFFF"></path>
                <path d="M597.998,269.661 L601.402,275.557 L597.998,281.452 L588.708,297.533 L576.024,275.563 L588.718,253.586 L597.998,269.661 Z" id="Fill-195" fill="#FFFFFF"></path>
                <path d="M588.7183,253.586 L576.0243,275.563 L550.6553,275.561 L563.3353,253.586 L570.1423,253.584 L570.1463,253.589 L588.7183,253.586 Z" id="Fill-196" fill="#F9CF5E"></path>
                <path d="M608.2017,331.296 L620.8887,353.273 L595.5187,353.266 L582.8337,331.296 L608.2017,331.296 Z" id="Fill-197" fill="#F9CF5E"></path>
                <path d="M592.1118,303.429 L604.8008,325.406 L586.2388,325.402 L579.4298,325.399 L566.7448,303.428 L592.1118,303.429 Z" id="Fill-198" fill="#F9CF5E"></path>
                <path d="M576.0239,275.562 L588.7079,297.533 L570.1479,297.53 L563.3409,297.533 L550.6559,275.562 L576.0239,275.562 Z" id="Fill-199" fill="#F9CF5E"></path>
                <path d="M615.0146,219.823 L640.3926,219.818" id="Stroke-200" stroke="#353558" stroke-linecap="round" stroke-linejoin="round"></path>
                <path d="M672.5596,219.828 L685.2596,197.849" id="Stroke-201" stroke="#353558" stroke-linecap="round" stroke-linejoin="round"></path>
                <path d="M647.2021,219.82 L672.5591,219.828" id="Stroke-202" stroke="#353558" stroke-linecap="round" stroke-linejoin="round"></path>
                <path d="M685.2441,241.798 L672.5591,219.828" id="Stroke-203" stroke="#353558" stroke-linecap="round" stroke-linejoin="round"></path>
                <path d="M608.2051,219.819 L620.8871,197.85" id="Stroke-204" stroke="#353558" stroke-linecap="round" stroke-linejoin="round"></path>
                <path d="M582.832,219.821 L608.205,219.819" id="Stroke-205" stroke="#353558" stroke-linecap="round" stroke-linejoin="round"></path>
                <path d="M604.7993,269.661 L592.1143,247.691" id="Stroke-206" stroke="#353558" stroke-linecap="round" stroke-linejoin="round"></path>
                <path d="M663.292,247.687 L688.648,247.694" id="Stroke-207" stroke="#353558" stroke-linecap="round" stroke-linejoin="round"></path>
                <path d="M679.3809,275.554 L704.7359,275.561" id="Stroke-208" stroke="#353558" stroke-linecap="round" stroke-linejoin="round"></path>
                <path d="M608.2017,331.296 L620.8957,309.32" id="Stroke-209" stroke="#353558" stroke-linecap="round" stroke-linejoin="round"></path>
                <path d="M592.1118,303.429 L604.8068,281.452" id="Stroke-210" stroke="#353558" stroke-linecap="round" stroke-linejoin="round"></path>
                <path d="M620.8931,241.795 L608.2051,219.819" id="Stroke-211" stroke="#353558" stroke-linecap="round" stroke-linejoin="round"></path>
                <path d="M653.0781,241.787 L640.3921,219.817" id="Stroke-212" stroke="#353558" stroke-linecap="round" stroke-linejoin="round"></path>
                <path d="M608.2031,275.558 L620.8921,253.585" id="Stroke-213" stroke="#353558" stroke-linecap="round" stroke-linejoin="round"></path>
                <path d="M620.8906,297.533 L608.2026,275.557" id="Stroke-214" stroke="#353558" stroke-linecap="round" stroke-linejoin="round"></path>
                <path d="M636.9819,269.662 L624.2969,247.691" id="Stroke-215" stroke="#353558" stroke-linecap="round" stroke-linejoin="round"></path>
                <path d="M617.4883,247.688 L624.2973,247.691" id="Stroke-216" stroke="#353558" stroke-linecap="round" stroke-linejoin="round"></path>
                <path d="M624.2954,303.431 L636.9814,281.452" id="Stroke-217" stroke="#353558" stroke-linecap="round" stroke-linejoin="round"></path>
                <path d="M656.4746,303.425 L669.1586,281.456" id="Stroke-218" stroke="#353558" stroke-linecap="round" stroke-linejoin="round"></path>
                <path d="M647.1924,275.556 L672.5744,275.556" id="Stroke-219" stroke="#353558" stroke-linecap="round" stroke-linejoin="round"></path>
                <path d="M659.8799,309.321 L656.4749,303.425" id="Stroke-220" stroke="#353558" stroke-linecap="round" stroke-linejoin="round"></path>
                <path d="M640.3843,331.297 L653.0733,309.324" id="Stroke-221" stroke="#353558" stroke-linecap="round" stroke-linejoin="round"></path>
                <path d="M663.2842,303.429 L688.6632,303.424" id="Stroke-222" stroke="#353558" stroke-linecap="round" stroke-linejoin="round"></path>
                <path d="M617.4917,303.424 L624.2957,303.431" id="Stroke-223" stroke="#353558" stroke-linecap="round" stroke-linejoin="round"></path>
                <path d="M627.7002,309.326 L624.2952,303.43" id="Stroke-224" stroke="#353558" stroke-linecap="round" stroke-linejoin="round"></path>
                <path d="M631.1025,303.428 L656.4745,303.425" id="Stroke-225" stroke="#353558" stroke-linecap="round" stroke-linejoin="round"></path>
                <path d="M675.9785,281.452 L672.5745,275.556" id="Stroke-226" stroke="#353558" stroke-linecap="round" stroke-linejoin="round"></path>
                <path d="M672.5742,275.556 L675.9762,269.657" id="Stroke-227" stroke="#353558" stroke-linecap="round" stroke-linejoin="round"></path>
                <path d="M624.2974,247.691 L627.6994,241.793" id="Stroke-228" stroke="#353558" stroke-linecap="round" stroke-linejoin="round"></path>
                <path d="M643.79,281.455 L640.386,275.558" id="Stroke-229" stroke="#353558" stroke-linecap="round" stroke-linejoin="round"></path>
                <path d="M633.5796,275.561 L640.3856,275.558" id="Stroke-230" stroke="#353558" stroke-linecap="round" stroke-linejoin="round"></path>
                <path d="M631.1035,247.689 L656.4825,247.684" id="Stroke-231" stroke="#353558" stroke-linecap="round" stroke-linejoin="round"></path>
                <path d="M669.1699,269.66 L656.4819,247.684" id="Stroke-232" stroke="#353558" stroke-linecap="round" stroke-linejoin="round"></path>
                <path d="M640.3857,275.558 L643.7917,269.665" id="Stroke-233" stroke="#353558" stroke-linecap="round" stroke-linejoin="round"></path>
                <path d="M601.4023,275.557 L608.2033,275.557" id="Stroke-234" stroke="#353558" stroke-linecap="round" stroke-linejoin="round"></path>
                <path d="M576.0239,275.562 L588.7179,253.585" id="Stroke-235" stroke="#353558" stroke-linecap="round" stroke-linejoin="round"></path>
                <path d="M550.6558,275.561 L576.0238,275.562" id="Stroke-236" stroke="#353558" stroke-linecap="round" stroke-linejoin="round"></path>
                <path d="M588.708,297.532 L576.024,275.562" id="Stroke-237" stroke="#353558" stroke-linecap="round" stroke-linejoin="round"></path>
                <path d="M566.7446,303.428 L592.1116,303.429" id="Stroke-238" stroke="#353558" stroke-linecap="round" stroke-linejoin="round"></path>
                <path d="M604.8008,325.405 L592.1118,303.428" id="Stroke-239" stroke="#353558" stroke-linecap="round" stroke-linejoin="round"></path>
                <path d="M615.0112,331.299 L640.3842,331.297" id="Stroke-240" stroke="#353558" stroke-linecap="round" stroke-linejoin="round"></path>
                <path d="M653.0693,353.268 L640.3843,331.297" id="Stroke-241" stroke="#353558" stroke-linecap="round" stroke-linejoin="round"></path>
                <path d="M672.5674,331.298 L685.2464,309.323" id="Stroke-242" stroke="#353558" stroke-linecap="round" stroke-linejoin="round"></path>
                <path d="M647.1904,331.295 L672.5674,331.298" id="Stroke-243" stroke="#353558" stroke-linecap="round" stroke-linejoin="round"></path>
                <path d="M685.252,353.269 L672.567,331.298" id="Stroke-244" stroke="#353558" stroke-linecap="round" stroke-linejoin="round"></path>
                <path d="M582.8335,331.296 L608.2015,331.296" id="Stroke-245" stroke="#353558" stroke-linecap="round" stroke-linejoin="round"></path>
                <path d="M620.8887,353.273 L608.2017,331.296" id="Stroke-246" stroke="#353558" stroke-linecap="round" stroke-linejoin="round"></path>
                <path d="M688.6631,303.424 L701.3411,281.456" id="Stroke-247" stroke="#353558" stroke-linecap="round" stroke-linejoin="round"></path>
                <path d="M701.3477,325.394 L688.6627,303.424" id="Stroke-248" stroke="#353558" stroke-linecap="round" stroke-linejoin="round"></path>
                <path d="M592.1143,247.691 L604.8033,225.718" id="Stroke-249" stroke="#353558" stroke-linecap="round" stroke-linejoin="round"></path>
                <path d="M566.7412,247.693 L592.1142,247.691" id="Stroke-250" stroke="#353558" stroke-linecap="round" stroke-linejoin="round"></path>
                <path d="M704.7363,275.561 L717.4373,253.582" id="Stroke-251" stroke="#353558" stroke-linecap="round" stroke-linejoin="round"></path>
                <path d="M717.4248,297.537 L704.7368,275.561" id="Stroke-252" stroke="#353558" stroke-linecap="round" stroke-linejoin="round"></path>
                <path d="M688.6484,247.694 L701.3484,225.715" id="Stroke-253" stroke="#353558" stroke-linecap="round" stroke-linejoin="round"></path>
                <path d="M701.3359,269.671 L688.6479,247.694" id="Stroke-254" stroke="#353558" stroke-linecap="round" stroke-linejoin="round"></path>
                <path d="M640.3926,219.817 L653.0706,197.851" id="Stroke-255" stroke="#353558" stroke-linecap="round" stroke-linejoin="round"></path>
                <path d="M656.4824,247.684 L659.8884,241.79" id="Stroke-256" stroke="#353558" stroke-linecap="round" stroke-linejoin="round"></path>
                <path d="M614.0869,241.798 L620.8929,241.796 L624.2979,235.902" id="Stroke-257" stroke="#353558" stroke-width="2" stroke-linecap="round" stroke-linejoin="round"></path>
                <path d="M694.5352,269.667 L701.3362,269.671 L710.6252,253.587 L714.0332,247.686 L701.3482,225.715 L694.5392,225.712" id="Stroke-258" stroke="#353558" stroke-width="2" stroke-linecap="round" stroke-linejoin="round"></path>
                <path d="M672.5615,287.352 L669.1585,281.456 L650.5965,281.452 L643.7905,281.455 L640.3855,287.347 L631.1025,303.427 L634.5065,309.324" id="Stroke-259" stroke="#353558" stroke-width="2" stroke-linecap="round" stroke-linejoin="round"></path>
                <path d="M682.7754,269.667 L679.3804,275.554 L682.7864,281.452" id="Stroke-260" stroke="#353558" stroke-width="2" stroke-linecap="round" stroke-linejoin="round"></path>
                <path d="M624.2998,315.217 L620.8958,309.321 L614.0898,309.322" id="Stroke-261" stroke="#353558" stroke-width="2" stroke-linecap="round" stroke-linejoin="round"></path>
                <path d="M586.2393,325.401 L582.8333,331.296 L595.5183,353.265 L620.8883,353.272 L624.2923,347.374" id="Stroke-262" stroke="#353558" stroke-width="2" stroke-linecap="round" stroke-linejoin="round"></path>
                <path d="M634.5098,241.795 L631.1038,247.689 L640.3878,263.769 L643.7918,269.665 L650.5988,269.662 L669.1698,269.659 L672.5728,263.76" id="Stroke-263" stroke="#353558" stroke-width="2" stroke-linecap="round" stroke-linejoin="round"></path>
                <path d="M640.3857,287.348 L636.9807,281.452 L630.1737,281.454" id="Stroke-264" stroke="#353558" stroke-width="2" stroke-linecap="round" stroke-linejoin="round"></path>
                <path d="M570.1426,253.584 L563.3356,253.586 L550.6556,275.561 L563.3406,297.532 L570.1476,297.529 L588.7076,297.532 L597.9976,281.451 L601.4026,275.557 L597.9976,269.661 L588.7186,253.586 L570.1456,253.589" id="Stroke-265" stroke="#353558" stroke-width="2" stroke-linecap="round" stroke-linejoin="round"></path>
                <path d="M694.5293,325.402 L701.3473,325.393 L714.0253,303.426 L710.6213,297.532 L701.3413,281.456 L694.5333,281.454" id="Stroke-266" stroke="#353558" stroke-width="2" stroke-linecap="round" stroke-linejoin="round"></path>
                <path d="M618.4175,325.4 L615.0115,331.298 L624.2925,347.374 L627.6955,353.268 L653.0695,353.267 L656.4735,347.374" id="Stroke-267" stroke="#353558" stroke-width="2" stroke-linecap="round" stroke-linejoin="round"></path>
                <path d="M624.291,203.746 L620.887,197.85 L595.52,197.849 L582.832,219.821 L586.236,225.717" id="Stroke-268" stroke="#353558" stroke-width="2" stroke-linecap="round" stroke-linejoin="round"></path>
                <path d="M614.0869,297.526 L620.8909,297.533 L630.1739,281.454 L633.5799,275.561 L630.1759,269.664 L620.8929,253.585 L614.0859,253.587" id="Stroke-269" stroke="#353558" stroke-width="2" stroke-linecap="round" stroke-linejoin="round"></path>
                <path d="M570.146,253.589 L570.143,253.584 L566.741,247.693 L579.43,225.721 L586.236,225.717 L604.804,225.718 L608.208,231.615" id="Stroke-270" stroke="#353558" stroke-width="2" stroke-linecap="round" stroke-linejoin="round"></path>
                <path d="M710.6211,297.532 L717.4251,297.537 L730.1211,275.552 L717.4371,253.582 L710.6251,253.587" id="Stroke-271" stroke="#353558" stroke-width="2" stroke-linecap="round" stroke-linejoin="round"></path>
                <path d="M570.1479,297.529 L566.7449,303.427 L579.4299,325.398 L586.2389,325.401 L604.8009,325.405 L608.2079,319.506" id="Stroke-272" stroke="#353558" stroke-width="2" stroke-linecap="round" stroke-linejoin="round"></path>
                <path d="M694.5391,225.712 L697.9431,219.819 L685.2601,197.848 L659.8711,197.852 L656.4761,203.747 L647.2021,219.82 L656.4831,235.895 L659.8891,241.791 L666.6841,241.795 L685.2441,241.798 L694.5331,225.715" id="Stroke-273" stroke="#353558" stroke-width="2" stroke-linecap="round" stroke-linejoin="round"></path>
                <path d="M694.5332,225.715 L694.5392,225.712" id="Stroke-274" stroke="#353558" stroke-linecap="round" stroke-linejoin="round"></path>
                <path d="M630.1758,269.665 L636.9818,269.663 L640.3878,263.769" id="Stroke-275" stroke="#353558" stroke-width="2" stroke-linecap="round" stroke-linejoin="round"></path>
                <path d="M656.4756,203.747 L653.0706,197.851 L627.7086,197.847 L624.3006,203.748 L615.0146,219.823 L618.4186,225.719" id="Stroke-276" stroke="#353558" stroke-width="2" stroke-linecap="round" stroke-linejoin="round"></path>
                <path d="M685.252,353.269 L697.934,331.299 L694.529,325.403 L685.246,309.324 L666.69,309.325 L659.88,309.322 L656.474,315.214 L656.478,315.221 L647.19,331.295 L656.474,347.374 L659.879,353.271 L685.252,353.269 L685.252,353.269 Z" id="Stroke-277" stroke="#353558" stroke-width="2" stroke-linecap="round" stroke-linejoin="round"></path>
                <path d="M650.5986,269.662 L647.1926,275.556 L650.5966,281.452" id="Stroke-278" stroke="#353558" stroke-width="2" stroke-linecap="round" stroke-linejoin="round"></path>
                <path d="M694.5352,269.665 L697.9372,275.558 L694.5332,281.456 L685.2542,297.529 L672.5672,275.556 L685.2522,253.586 L694.5352,269.665 Z" id="Fill-279" fill="#F9CF5E"></path>
                <path d="M678.4443,241.794 L681.8453,247.688 L678.4423,253.585 L669.1663,269.663 L656.4783,247.687 L669.1623,225.716 L678.4443,241.794 Z" id="Fill-280" fill="#F9CF5E"></path>
                <path d="M669.1621,225.716 L656.4781,247.686 L631.1041,247.688 L640.3881,231.612 L643.7931,225.716 L650.6001,225.717 L669.1621,225.716 Z" id="Fill-281" fill="#F9CF5E"></path>
                <path d="M678.4443,297.526 L681.8493,303.424 L678.4453,309.317 L669.1623,325.399 L656.4763,303.427 L669.1603,281.449 L678.4443,297.526 Z" id="Fill-282" fill="#F9CF5E"></path>
                <path d="M662.3564,269.662 L665.7574,275.556 L662.3564,281.451 L653.0704,297.529 L640.3844,275.558 L653.0724,253.584 L662.3564,269.662 Z" id="Fill-283" fill="#F9CF5E"></path>
                <path d="M636.9824,225.714 L624.2944,247.688 L598.9254,247.687 L608.2074,231.612 L611.6094,225.716 L618.4194,225.716 L636.9824,225.714 Z" id="Fill-284" fill="#F9CF5E"></path>
                <path d="M653.0723,253.584 L640.3843,275.558 L615.0153,275.557 L624.2953,259.478 L627.7003,253.586 L634.5073,253.582 L653.0723,253.584 Z" id="Fill-285" fill="#F9CF5E"></path>
                <path d="M656.4766,303.428 L669.1626,325.4 L650.5966,325.396 L650.5936,325.398 L643.7926,325.398 L640.3866,319.499 L631.1026,303.422 L656.4766,303.428 Z" id="Fill-286" fill="#F9CF5E"></path>
                <path d="M640.3848,275.558 L653.0708,297.53 L634.5088,297.53 L627.7008,297.529 L624.2988,291.635 L615.0158,275.557 L640.3848,275.558 Z" id="Fill-287" fill="#F9CF5E"></path>
                <path d="M620.8921,253.585 L608.2081,275.555 L582.8341,275.558 L592.1191,259.481 L595.5231,253.584 L602.3311,253.585 L620.8921,253.585 Z" id="Fill-288" fill="#F9CF5E"></path>
                <path d="M624.2983,303.424 L636.9843,325.397 L618.4183,325.401 L611.6093,325.399 L608.2073,319.506 L598.9243,303.427 L624.2983,303.424 Z" id="Fill-289" fill="#F9CF5E"></path>
                <path d="M608.208,275.555 L620.896,297.532 L602.328,297.531 L595.519,297.529 L592.117,291.635 L582.834,275.558 L608.208,275.555 Z" id="Fill-290" fill="#F9CF5E"></path>
                <path d="M656.4746,303.425 L669.1626,281.452" id="Stroke-291" stroke="#353558" stroke-linecap="round" stroke-linejoin="round"></path>
                <path d="M631.103,303.425 L656.475,303.425" id="Stroke-292" stroke="#353558" stroke-linecap="round" stroke-linejoin="round"></path>
                <path d="M669.1602,325.399 L656.4742,303.424" id="Stroke-293" stroke="#353558" stroke-linecap="round" stroke-linejoin="round"></path>
                <path d="M672.5645,275.558 L685.2525,253.584" id="Stroke-294" stroke="#353558" stroke-linecap="round" stroke-linejoin="round"></path>
                <path d="M665.7578,275.557 L672.5648,275.557" id="Stroke-295" stroke="#353558" stroke-linecap="round" stroke-linejoin="round"></path>
                <path d="M685.25,297.53 L672.564,275.557" id="Stroke-296" stroke="#353558" stroke-linecap="round" stroke-linejoin="round"></path>
                <path d="M615.0122,275.557 L640.3852,275.557" id="Stroke-297" stroke="#353558" stroke-linecap="round" stroke-linejoin="round"></path>
                <path d="M627.6987,253.584 L624.2947,247.689" id="Stroke-298" stroke="#353558" stroke-linecap="round" stroke-linejoin="round"></path>
                <path d="M656.4746,247.689 L669.1626,225.716" id="Stroke-299" stroke="#353558" stroke-linecap="round" stroke-linejoin="round"></path>
                <path d="M631.103,247.689 L656.475,247.689" id="Stroke-300" stroke="#353558" stroke-linecap="round" stroke-linejoin="round"></path>
                <path d="M669.1602,269.662 L656.4742,247.689" id="Stroke-301" stroke="#353558" stroke-linecap="round" stroke-linejoin="round"></path>
                <path d="M640.3848,275.558 L653.0708,253.584" id="Stroke-302" stroke="#353558" stroke-linecap="round" stroke-linejoin="round"></path>
                <path d="M624.2949,247.689 L636.9819,225.715" id="Stroke-303" stroke="#353558" stroke-linecap="round" stroke-linejoin="round"></path>
                <path d="M598.9229,247.689 L624.2949,247.689" id="Stroke-304" stroke="#353558" stroke-linecap="round" stroke-linejoin="round"></path>
                <path d="M653.0703,297.53 L640.3843,275.557" id="Stroke-305" stroke="#353558" stroke-linecap="round" stroke-linejoin="round"></path>
                <path d="M608.2051,275.558 L620.8921,253.585" id="Stroke-306" stroke="#353558" stroke-linecap="round" stroke-linejoin="round"></path>
                <path d="M582.833,275.558 L608.205,275.558" id="Stroke-307" stroke="#353558" stroke-linecap="round" stroke-linejoin="round"></path>
                <path d="M620.8921,297.53 L608.2051,275.557" id="Stroke-308" stroke="#353558" stroke-linecap="round" stroke-linejoin="round"></path>
                <path d="M624.2949,303.425 L627.6989,297.53" id="Stroke-309" stroke="#353558" stroke-linecap="round" stroke-linejoin="round"></path>
                <path d="M598.9219,303.425 L624.2949,303.425" id="Stroke-310" stroke="#353558" stroke-linecap="round" stroke-linejoin="round"></path>
                <path d="M636.9814,325.398 L624.2944,303.425" id="Stroke-311" stroke="#353558" stroke-linecap="round" stroke-linejoin="round"></path>
                <path d="M640.3857,231.612 L636.9817,225.716 L611.6097,225.717 L598.9227,247.689 L602.3267,253.585" id="Stroke-312" stroke="#353558" stroke-width="2" stroke-linecap="round" stroke-linejoin="round"></path>
                <path d="M678.4443,297.53 L685.2503,297.53 L697.9373,275.557 L685.2523,253.583 L678.4443,253.584" id="Stroke-313" stroke="#353558" stroke-width="2" stroke-linecap="round" stroke-linejoin="round"></path>
                <path d="M634.5059,297.53 L631.1029,303.425 L643.7889,325.398 L669.1599,325.399 L681.8479,303.425 L669.1619,281.452 L662.3549,281.452" id="Stroke-314" stroke="#353558" stroke-width="2" stroke-linecap="round" stroke-linejoin="round"></path>
                <path d="M662.3545,269.662 L669.1605,269.662 L681.8475,247.688 L669.1625,225.716 L643.7895,225.716 L631.1035,247.689 L634.5055,253.585" id="Stroke-315" stroke="#353558" stroke-width="2" stroke-linecap="round" stroke-linejoin="round"></path>
                <path d="M624.2949,259.48 L620.8919,253.585 L595.5199,253.584 L582.8329,275.558 L595.5189,297.53 L620.8919,297.53 L624.2949,291.635" id="Stroke-316" stroke="#353558" stroke-width="2" stroke-linecap="round" stroke-linejoin="round"></path>
                <path d="M627.6987,297.53 L653.0707,297.53 L665.7577,275.557 L653.0707,253.584 L627.6987,253.584 L615.0117,275.557 L627.6987,297.53 L627.6987,297.53 Z" id="Stroke-317" stroke="#353558" stroke-width="2" stroke-linecap="round" stroke-linejoin="round"></path>
                <path d="M602.3267,297.53 L598.9217,303.425 L611.6097,325.399 L636.9817,325.397 L640.3847,319.504" id="Stroke-318" stroke="#353558" stroke-width="2" stroke-linecap="round" stroke-linejoin="round"></path>
            </g>
        </g>
    </g>
</svg>